<mxfile host="app.diagrams.net" modified="2020-07-16T06:43:05.864Z" agent="5.0 (Macintosh; Intel Mac OS X 10_15_5) AppleWebKit/537.36 (KHTML, like Gecko) Chrome/83.0.4103.116 Safari/537.36" etag="8vaGCIdkqsd2FW7eVnmV" version="13.4.2" type="github">
  <diagram id="Caz0_-wxpjKv_U2W4_Wp" name="Page-1">
    <mxGraphModel dx="2066" dy="1154" grid="1" gridSize="10" guides="1" tooltips="1" connect="1" arrows="1" fold="1" page="1" pageScale="1" pageWidth="827" pageHeight="1169" math="0" shadow="0">
      <root>
        <mxCell id="0" />
        <mxCell id="1" parent="0" />
        <mxCell id="5vH_vZtWq0DqF-4MKCqL-1" value="" style="shape=image;verticalLabelPosition=bottom;labelBackgroundColor=#ffffff;verticalAlign=top;aspect=fixed;imageAspect=0;image=data:image/png,iVBORw0KGgoAAAANSUhEUgAAAVsAAAEqCAYAAAC7sfOJAAAgAElEQVR4Aey9d3RVR5ovetZbd707675Z67277n0zc/u+mbvW9Ezf6W632+62240jGBsDToAxmByMTTTBBIHIUQIkohISSCAkIRBBEjmJJJICSTnnLJ1zdOKO5/fWV7X3OUdCwjbGNMb7j732CbtqV3311a+++uoLJlX1wC3JECTRuAwaGDxg8IDBA0+aB0QBgijApHo8EBURsuIyLoMGBg8YPGDwwBPmAUl2gi4OtrIMWXYbl0EDgwcMHjB44AnzQBewFWQFkiwal0EDgwcMHjB44InzQBfJVoGscLAVZa67FWUJouxmlxeIFZkNBD3j/U0mFUTX7/p/VF6QXbweSWBlZK0OeqZ7Of//6B3+7+HPCt5VV3+Hce+Z9gZdDLoYPPCM8IDkgiRpagSJqREIDAUGcKJEQCdBkCQ4XRJEUZN8FX6QxoGQP09lFEUrKwkQJTevh+qQNLCV3BAZ2ErggMqf7w62iheIqR38ovrpktnlU3Xov/vuRFi9Tc8IkbstSgbzG+Ni8MAvjwcYJkourrPlYMuBjJhBlumwzIGaGgmBa8/i2PFiKJIKSXIxyZKeYVKvwssoMgdYDnZOyIobLlGBpdMOq9UBiQFwJyTZpUnGmsSsKJD8AJbq4e+m9/B3ybID/PIBbXf9Mn8vtdvXB4Opf3lMbYy5MebPIg98J9h6VBF5RSJ+/aexCFwRC9VDYEu6B5IeJSapCgS6EoEc3XVplYNta3snwqNTsTvuFJwu+s+pSb0aUBNAdwdbRZeMuSTM6yaApvfSXQdgfzDWgV5koE6A+ywS3GiTAQQGD/wyeeA7wNYNVZXQ0q4gLOYsLmfmQ5ZVZhLCwdYDSfZAlAGX4IHNoTCVA2cmO2TZiYqqdnwxJRJffrMX7WYVsgrIigqSoglE2bNdwJZAW4Yoq6xeqltQAIdbhZukalWAIDs16dUFRf+sSJBVqlNgYKsoIozLoIHBAwYPPCs8wHb2D6sRuMQoSQJKy5qQcrweCUcbcPN2GdwCHaK5GKiVV7Uj9XQ5TmRYkXCsCSG7inD2Ui3sDjpAc8DS6UTS0Vq8NmQ33h51BLsPNCDpaA2y7jTC7iCplQ7NXBAVBaLMD90IfEVJRl6RHSnHq3H8ogUnMmzYGFWI3QeqUFxuhyCS1MpP9lTFCadDwM2sRtzNa4GLpGdNzUG6YOMyaGDwgMEDzwIP9CLZcl2tokiIjDkN04AkmN5JwlezIyCJCmTVCZcgYv/B6/j1+9thGpwK0/tHYXorEb97LxhnLrVC9cgoqbCgz+hzML2yFaZ3jsD07mGY3o7FjIAUNDVbICpOiLKjC9jSwZlTlLFh5wOY+u2GadARmAanwfR2Ekxv78OYGQnIL+qErJK+1w5VdaK4VMDwybsxblokmpusmp6X64WNLdsvc8tmjLsx7s8aD/QOtrKLbcMzb9zF2q238S/vhePjUSEQ3TJkxQpRdODq9WL8ZUgETH12Yez8KwgKf4Bfvb4C4+ZlwAMPWtsdCNpxC//Wfwt+81Eivl17G4FBF5CSnoVOuxOiQoBJoKjpebWDMVFy4uzFarw+NBqmF5bgt8PTEBqdjzkrzsL01yB8u+YmnG4ZkkJqDjfKqwSMnhKKyTM2o6XFCokkbyb5Ggz3rDGc0R6DJ3+pPNAL2PLDJTpkEkQnbHYFI6YkY+AXOxjYKooFsmJHfZMdX8w6jn4TM5D7wM70qp9+eQR/GbYfisotDIpK2zB8yl5M+uYg6hpEdNoEuEQZgkI6WTok89nMcisCJxTFjs5OETMXpcL0ZihS0uvgcqvsfSPm3MYfP9mF8qo2thiQtYTTJeLegyoUFtXC4ZAgKi6m1/2lDqrRbwPQDB549njgkWBL23RJsUJVZYz5ejcGjtwK0S1BUcxQVDsamjoxdmYSpiy8hIZGEYCKsd+k4bUhu6B4PJBUDyqq2jD6q0hMnb0X5g4XFNXGJFmmpyWdrWaP65NuOdg6HSJmLkjCG0OjUF7ZAUmxQ3AL2LGnAv/6bhCycsvZ4R2P5SBBUQHFA4iSwvTJvN5nj+DGJDDGxOCBXyYPPBJsJdkG1WOHx6Ng/NRofDh6OzyKAlXtZL83tzowaXYSpgZkoLFZYmA7bvYx9BkaCdUDSCpQUdWKMV/txIy5e2G1CIDqZvV5CIy9YOsjPtnVkmRLYDtncTL++a8BOHupDrKsoNMmY3xAHn4/YAuKSluhqOQc4YLN4UR5ZR0am1uZGRlzxtA81QzG9tHWoIVBC4MH/nY88BDYkoTJt/MEYiKy7juQfs6O346+AdPQSzh62oYbd+yw2hTcLehA3wkn0O+rLOQVCXC6ZLw7JQumj06jrUOEKHpQW9eM8TN24/0JabiV48DtHAcCN9xCbHILnE4KfOPiDg2KxN14NbB1OATMX5YM06shMH2YgdlBbfhoTilMfwzEjMXnuURMZVQVCUca8G/vRyEx5SYEgerR7XT/doQ1mNqgvcEDBg/480A3sOXuuAS2ZJt2v9iNv74/D6Y/roDplVCYXt0K00ur8XLfb3D2mhWrNh6D6YV5ML26HRvCspGQchOmN0JhenkdNobuZ4dknTYXgnZchemVTTD9JRimlwJh+s1YLFxzDTab1DPYqnY4nSLmBSbC1DcepnePwvSnVTC9ugZfTE9HeQW3HaSOCIoHi9ddwJsjj6CopAOyqnLvNkOyNZw6DDdpgweeIR7oEWxJMiSwbWmTERlzEotXH8KSNccQuOYIlqxKxs7IE6iokXAlswCrNiRg2boUXLtVjbzCBqzZnIaAVQdw41YeFFWFqAqoquvEui3nMejzzRg+MRa74i6hodkGVXFD0Vx39RXAq0Zwks42HgPH7MWlzA4kH83CmYwidDrd3HmB6ZPdaGp14qvZcQgJz4XFSvaE5PBAtrZk4WCsrAYNDB4weODZ4IFuYEuOBVyNQGBLnlwK09HK7DCKDsroUlQZkkQmYPw7/UbeW/S7qorsonIiszpwM8cCt1tCa5sES4fIbHUlWenZHpY5JLjQaRXx1dxDeHtkMu7mWSGR55rHw95J7sECxUpQ3CgoqsLK9YeQlVXJnRl0sDWA1lhsDB4weOAZ4oGHwJbra32mX/y7HbJiY0FpyNSq54tiIZDnmQWybO4WDIZ+d0BV6PDLyWMrsHBjFHKMe6ORmy2/yINMwsmz9fj9x6RG2IeJ8y/jTl4pRFIRsHdQfQTiEpqa25CXXwqL1c4Yi36nBcNYzZ+N1dwYB2McDB7gPPA9wZa25hR1i7vxPvpOMRFsXcCWHYLJDubCS/ESdCsEejm/dKAVGIAKooTQiBv47YBQ/KpvMP7h7Q04evwiKHWP7918QWCRyihimOSTyg2wNSa4McENHnjWeOCRYKs31l/a1X/r7d7Ts1wK5UCtS7IPl+fqC4lZJXhQXNqMM+fv48SZe0g/fRe1Da0QZQJb//CJWhldSjYkWkOif4a2jQ/zuAGAv2SaPAS2XCrsvg3n7rQMCAkMe7oeyeS6OZlPkn2Y6No7SGfM9MWkJnCxOAyKx8neSUHMu7aP16tLyD4g7t5+g8kfprdBE4MmBg88TR7oBrbfkYOMhUIkN9weLh1saUvvDQT+OIMpgAUhVxyQFBvzYJNUOiDrCUA1yVb7zwDbx6G3UeZpTjjjXb9cfnsk2Orgpd+/D6P8kGf1+kiS1T8TqPKMD6ST5RkbuHkYl3z1+vV7d0m363f/eo3PPhobtDBoYfDA0+aBZwJsmZmZF3B1sOWSLIGqf7odHWT1+9MmmPE+Y5IaPGDwwOPwQDewJfdZ/wMog6iPQ1SjjME3Bg8YPNCdBwyw1XXNxt1PlWNMlO4Txfhu8MSP5QEDbA2QNUDW4AGDB54CDxhg+xSI/GNXRKO8IVUZPPDz5wEDbA2wNaQagwcMHngKPGCA7VMgsiGV/PylEmMMjTH8sTxggK0BtoZUY/CAwQNPgQcMsH0KRP6xK6JR3pCqDB74+fOAAbYG2BpSjcEDBg88BR4wwPYpENmQSn7+UokxhsYY/lgeMMDWAFtDqjF4wOCBp8ADBtg+BSL/2BXRKG9IVQYP/Px5wABbA2wNqcbgAYMHngIPGGD7FIhsSCU/f6nEGENjDH8sD/y8wFbPEPGkAfKnqvdJt9Ooz5DADB742fLAzwdsWQYIPUMEJXd8QivtT1Xvk2qfUc+TG2uDlgYt/4Y88PMBWyLSTyGB6ml8qG5Z9Mbzpbi+Pafi6Qryvvi/PaXt6frsE1sg/oYMY/TBGFODBx6PB35eYPtTgIwOtqxuX2JKA2wfj6GMiWjQzeCBnnngmQdbBnpdUpVrSR4lSo1O0mfPHfvO37vVyZ/nec70PGa61KrfKQ07Xf5t4m3wgfT3kYa/s22P2yej3OPzg0E7g3Y/MQ/8rMBWEJ2gSwc91vjHJJDecS949lBPd5DV3+sPtnobvM/2mAX4MReEHtpkALVBS4MHfp48oGOOSfV4IMnPXg4yUdKz6qpQFA+7JFkBNZz/93iEF0UFquphlyDqKdz11OikH/bRQpREiLLEnhVllf0nSgokSYXcTddrSLaPNx4GgBh0e955oEew1aU1X+e7bq/1bbbv/ihG6a2sfxn9GfpN/8zvDFAlBS1tAgpKzCit6ERLuxuC2PW57uUe/V1Ea5uA67cqkHOnBG63oh2MuSDJdFE7dLB1MaAVJBU5d6vQZpaheFS4RQWV1R0or2qGW9DVCFSW2qX3rac26v8Zdx+dDFoYtHj+eaAL2IqyzLboDOAUMrPiJ/SS7AS7FAckxQFZIb2lyy/FuAhZEUEpyXWmkQmsqLym4+TbbJdWVtO1aodTvi04ldeBywlZcUBRFFy+UY3/+dlFmPrsgemNGHw+8xLqGtuhKARmdsiKjV2i7ISoUHZgARKTfB0QJQdru6zw+iTVCdUjY+mWKpheWok3P94As1mCR7FAliz8WdYGAltqL2/DzZwWmP6yGkfPOAGPC+3tTgSsOokRU3ajoITa4uZ9I4lYkSEqJA3rfXFDZvreH6Fj9gK4j8Y6rY27QRODB559HngIbEXJBbZtZmDLAZPAkMCESX2qG7JKIKIfUHFJTgdbelZi6dBJWiR7WIEBMf2v10OgTNtynUF6AlsG0oobTqeMzycEwdQ3GiO+uY73x6Vh8rwTqKlrYvXSIqBQWyQCVjcEid5DB1lOUF+ozXr9rM2qAEVVkH7Bjd8MCMef3luO9nZSEdigEHBT+yUBClMj0CJjh+iW8c2iffh/Xp2PO/fd8HhscDgc2Bp+ES/2DUBSym0macu0KNECQ2ArC141B+87LQD+Uu+zzxz6+Bh3Y6wMHvjxPNANbBUmkbklGS5RRm2DGcUlDWhodqKgqB7XMktRXmVhz+gSqL5tJmmOpFAGdCRhSirsThGNLXY0NNnQ0ER3frW22WF3aoDkb1GgKAyEuS5Wgc3uRNYdG/7prY0YvzAHDwoE3HlgRl2DyCRXSZbQaXMhr6AB125UoKyiCU4XSaR0iOZAW4cbxaV1qKxuQ4dZRlFJM+49KIfZ6oSqAotXp+PFfkvR1CyioqoFRSV1qG8wQxCoLwTaTiiKE1UVIv6lzzJMmhkLwUXA3M7A+VZ2Bd78ZDNmBF5EUwt/ni0imr6XwJXqau/oRGubDYL0BJ0xDEnXu1gbQPDjgcCg4U9Pw25gS9tf2g5LqGtowdINJzB4QjwmL7qMD8btxR8GbsboWSk4d7kMLgZqmo5Sk+ZkBra0XXfC6RKQknYLkxakYsK3dKV7r2kL9uHCtSYIIkm3JD1qHVUkLg1KLiiqjMtXbmPo1FSYXtmM/zpwH96beBITZ0Yh83YbVFVBU4uEyLi7+GD0Lrw4aAuGTdmD1LPtkGUJTpeIxKMl+HTsRkxYmIGV26sw5MsDeG/oSsTE34LNJmHp2qN44b2NuHHbguHT0vDRuJ1YszkNdY0il5ZlAmUJR066YPr9XBw8mgePh4DYwkC4uc2FSXMPo8+oVNwrIFWGLq2T5O9kC09dfTs2bjuKzeGXUNv40w+ol5Y6TY27j78MWhi0+BvyQDew5eBH297ahlZMWXIdptdjYfpLFExDzuGTaWfxnwfsRb/hO5F116rpTAVITOXAXWkZyCgOdNqcWLY+DaZ34mDquw+mfvu91//ZZzUi4ivgchGokU7VB0JsG89UAxLOnc/FwClnYHp9L0wDj+Ltccfx+ZfRyLjeClEUsT+lEP/5vb34948SMHjKaZj67cE/fnwMhSU1cLpUxB4ox28GRsDU7zhM76bif3x4GH/6cDu+DriIxmYXlq9Lxr8PjEFITBNMfeJhejcOgevPo6beDVUhlYILqkdFwKZqmF4JQlmFBSr1lS0QAujQbN3Wm/j/Bibg/JVaiKqHLVYi6bQVGwPkB/m16D80GO+OTsD9Igmyaki3/uNtfPbxvkGL55sW3cCWH5CRvlMQ3LiY6cSv3ovGv/ffhFMZZpRVidiTXIz/0nc7Vm+9w0yfOINoukhF8upLSfItKG5F2pl6pJ1pQPrZRqSdbUTq2UacOFeKymoHRJH0o36SLQNd0vFynbDVase1Wy78fZ81mL/6Gu4XCigsboWt04WaWjPGz4pHn8/ikHq6EaVlDsQlV8P056VYG5LO1AS0td8WXQDTm4l45fMUpKRX4vrtBmTfa4HTJWH5+hSY+h6GadhV/PqDSOxObkJVrQ1ut5PpgKlvHo8HX8y+AtM7UbB2kvmZDrYEqAp27S/Ff38/DinHi+GWyXyO67Z1ybat3Ykj6XeQkl6IdgsHWlKTcFXJ881cBngY42vwgI8HuoAtt18VGNB4FBcKi0X8tn8wFqxKg8NJEqyTgdEbE69h7OyTcDh8B2he3a1M9q9upqsknWbYnly21Y/aew+RcQ/YtXvfVeQVmSFJZK3Q8wk9WQF4VAfqG0T8rs8sbNl5Eh6QbWwHVMWKrNwqDBixDcuDzqLT2glFbYXdJuCDUVEY/EUIJMnDDugOHcuHaVAaYg7Uw+bQDvOYxKpgdfAxmN46AtPbh7Ai+CJsdtK7WiHJNu44IZMOGvhoymn8w4C9cLk9mm2tdvCmyNiXUoN/HLAXiUcLGNj6DuO4HTDprt2CBJdbAll76ECr3w1m9DGjQQuDFs8zD3QBW0Ez/aLDJVVxIb/Ijf/oH4wpARmw2SWoHgVVNQ68MiYD4+echMtNYCuCts0+sCWTMBcsFhtmzt8B04tzYXppIUwvLYDp5QCYXg7Ef/rdOGwMv8MsDYQuOlvfFptAi/SltXUy/vcbAdgUfgUeqFCYJYQbN26XoO+wrQjaegVuF4GkA7IgY+iXB9B/yFqIogeSqCLxcCH+MCwNF6+ThQG4RYTsYH1ZHnQcptd2wfROIvoM24e7+bSgyBBI8iQJVVWgeoBh087h/+4fA5vTww7+mCeZTKZupKqowK8G7MXBdC7ZkuqBWUewQzpadDxwCx44XR4IIvWPAJ9LtoZ0a4DL8wwuRt+68ncXsNXtbBnYqhxs/zBgKwPKnftbkV/iROC6YzC9vhVBERWQZQ8ztRJVAlsuoRLQ0EUmW1dutmFTVB027arHxl31CI7iV0hMFbLu2uEWBXQFW27bq4MQHYKVVcj49zcCsXbbJbhFlel3PR4VBSXN+Gh8FD6YeAz5JRLb7l+9LeD/eCUAU+cnweMBBEFB3IF8vDA0FeeuEsCRB5oIVXbA41GwaNVRmAalYlt0JUx/3YKR046gpr6DHc7RQSFZZZBn3cyVeTC9tpk5U0iKqkm9IhTVg23RdxnYnrxQBRern/S9RAMySROQe7cM8wNCkXL0EpNuuU7aMAEzJmLXiWjQ4/mnx0Ngy39wQFXdyC8W8OeBITD9KRiml9bA9PIGmF4MwISvN6KxmSQ7bodKtqi09Za1S5I7IUqdUBUHAzYCNx2EvXfFBlEicygb37bLNoiKAyK7W5lN6r6Ec/j1x0dg+usemN5JgmlwGj4cHY77BWRSZUNk7FWYXl2N//7hIfSbXgTT69themU97ueXos0sYOy3N9jCYHozCab+h/F3HyQheMdFmM0WbN/XCtOfV6HP+wvQ1CTh83k5MP1+IUyDUrA3pRqiQHa7FqbK2HPIDtPv5uDC1VombctKB2TFDnOnjNmBJ/HSkGRk5bYy6ZrTwg5JMTNb3LCo23jpnUU4eeYWFLJRlq2aedzzz1wGgBhjbPCAjwd8YEsn6RKPOUCHVqpCYCvihfeCMSmwFHOC2vDJNzlYE9mBhhbSZVIldmbPSpKwRNt45l1Gnwl86eqEIrdDVUjPaoGsmPklmyHL5K3Fy5FXGrtUcgogoOpkEuyeuJN44eO9+IePj+PvBx3Cf3ovDh8M34Q7+QLgEdHQJGBVaDb+6b0ImPqE4j8GRSM+pY3pa1vaXRg18wT+17s78Hcfn8J/G5iMX/WPxPotJ9DeYUFodAl+8+4mTJ4ZhuYWBWu2l+PX74fht58ewO7EfAa2BIwe1YaCIjdMLy/C4lUHmFmZJJHHmAMPCuowYOR2jJuXgdp6AlKtP4wWVrS2OrBwTRYmz05GawfFUSCzOlqUaCfgGwTjs0ELgweefx7wA1vALRGIEmiQSkDC3TwB//beVmyIyEdLuwyzRUSH2Y0Oi34Jfp+13+h//8v7rF6m293/Wf0zKyOgtU1EXZOEuiYZ9Y0Su0ii7jCL2nsFtLSLyLov4HiGgKIyEW0d9B+1S0BLKy/TQGWbJNQ3S+x5+o+8xuobOWC3mwW0tIjsMK6pWUJ7O6/fbHbDTG1plzFw/EH8j347UFAkwGJ1oa1dwK64B/iX/hHYGpGLpiYBZu29VL/ZKiL3vhmj52UhOrGG0c5sdsFqFSCIovegzJhkz/8kM8bYGGPiAS/YyqTjZKfvLqbXbGpuxYawfJjeCEPfsYcQGHoPO6OvIizmKsJ3X0b47qsIj7mGsN1XEbbnKsKjr7BrZ8xV7NytXTFXEBZzmV072Z2+U7nL7NoZcwVdntfKhe2+hp0xmdi5+wbCYrMRFpeLsNgchO3JRtie2+z38D303mvYGXsd4XHZzOIhPC4LYXtuInzPNXaFxd5GeGwWwvfk8PJx2QjbfYO3e89NsP93ZyIsJpP9HhF7G2F7shC++zrCdlNbLyF8dwbC9+Ri1IwjMP1pIeaszsauvRexLeoaPpmQgH9/ZwPmrziP8N2ZnC7s3ZkI33MDqzdfwMCxCVi5+RYiYq9jZ9Q5HDqSxbzJiPC6btqYjMZkNHjg+ecBL9iKHsClKiyYCh0i5eVX4i/DD8D0ejxMr0XD9OZ+hG4/hsiYE4iMSUNkTLr2me6PviJi0hEekw66+z8bHp0Ouvx/89VL79HfRe/TL9/zVF9ETBoiorWrW/1Uxvuf9oz+rnD6TnXS+7u0gfeN183bHBGdjujYM1gZdARbwk+ycuHRJ7B5WxpCt9PzpxAZc1zrh95O3v7o2NOI2k2f0xEedRQphy+jtZXM3iiamOznEOKzxDAm3vM/8Ywx/uWNsRdsKbarKPGwgowRFAV2J22NnWi3ONHpIFdaOsyiKFs+/azvM4+8RQdHvt98Ebl8v/VUVv+NHAV4dC5+51G3vl9ZvY4nd6cDO12fLPpFF9OjjHVtV/f++/qi1+EL3/jLYzQDXIwx/6XzwCPAlqQusqNVmL0pD6ZN/v49X+ywSwcn7zMObv9KB0be33oqT5G5eCwB33M8jKPve0/lvs9vGvh+Zxt8dfFwkk7wkI0UtpEuDXhZPXq/fGWYna/3P/pd7xNZbPA6DLA1AOeXDji/5P77wJYyNVB8Wb9Tcjo9J6AQZBe7/P8jw3x/m1GRFMDMwcEXx5UZ8LO4CXqAll4mm/aM73DO95z+W2/3rm3yldPbx0BPi7/b+7P+5aj9vC88VKSbOTiQ3S2PUUtZHPxj/XYty9/BacPpw/+nst/3/cZzBq0MHnj+eMAPbLnDAANIzcuJAZzi9oIti3Mr6UTwBxTyuNIlQC4RcqDRg9Q8GmwpLCEdFnFpkOLp+g6PegNZ/ffemVJvny4h9+wW3FN5aguLR8tMtEi36ge4mvOGTifeVl97fSDPrTo4HVyal933b0NP7TJ+03nPuBu88PPjgW5gqwOUbv7FPZ0IbCh8IKkU9KDfDJBYQBUKJkMWDOQIQRfZ6NI2mwDI/T2kQN0Mit7JLSEoDqwOuI9/Yu/ryw9lTG/fSLXBgo3LLFoXD6DOE05S/+ggkYEuC7jOAbfrIkBBdUh3SyEjOU0fvz8/P+b6oXQ3njfG+HnmAT+w9bDtsy5dcgmNgx/Z156/XI+iEjNkssUl43ymkyQplABFgtUq4l6+CzeyXbif74bDJbEwiNyN91ESHQG6g0X/spjdeFBgRX0dBYLhKgyWsUGz/dWBzP/e++BQu7hahLf1UW3oyuR63wj0i8pciD3UhoPHnbDYSI9N7e2E4HairNyKolIrXE6SzKl+nxRNbeTBwyU0t4goLRdYDN3e29u1DcZzBj0MHni+eMAPbMFMkfT8YjTQBDqqKqKgWMRr7y3A+o0HWTxXfgpPVgMktUmwWDsRvP0yXvtkB/73gO146eMopBzN4JkbWJCaR3lMUZoaOyTRiSuXCzFhylakpt1mcQXYexiAcanQH2T1z70xJCWEtNmpnMq84agvvT3b/XdyKSYPuuIyN0ZN2QXTmztg6heDrRFH+KGhbIa5w4mNoWcwd+EuVFY0cWcQTTfsbZskoL6uHSvXH8DoqfuQlUOpfB6tUuneFuP78zXhjPH85Y7nw2CrSWfEFKQ+oIwJxZUSPhy5BmRbSgFc6OSd4iKQ6oC20qfOF+LXA3bgN0OPYdCEA3jx/SAcOHgGFDCGQI5LfX5E1jM7MOmP8oW50NEhYWnQTbwyYBUuZNzl0beY1wVPGS6pKgsMwwN3k16Y9KgkSZJEqQd20VQHioLqOiuGz8jAxohStLbx6GS6xNq1jK9dHCR1aV1FEDl19AnB1KJJI8gAACAASURBVKWZeH9MHP5nnyW4V+Bm8RJcDhdCt53Cy+8uw+G0B5BESupI7st6e2wQBAfOnM/HH/sFYOzMJBSXdULxi5BmTDwf7Q1aGLR43nmgC9hSPFuvVMbAVoDi4WDX1GyBpdMJQVRYRCtVId2sEx6PhJ27LuAPnybhzIVGNDU7UF3TgU6rA6LA63sYbLkxPwM9Td9ZWGLFX0akY+TUFDQ1U3hFD4u4RcG7KYJXS4cEp5vi2VJCRW4d0RvYSooHNfVOvDDiLEwvL8a0+ckoLqdEjXpwcw6o3QeX9V2T1lvabBg8PgkDpmWjtNKN7LsdLHBNUHg5PCzMoxOXr1bi1cEbMX/NBbR3aFknWFJHrmqgIOR7E2/jlYHrcfRUFU8Kqemzu7/b+G6AjcEDzzcPeMGWwgWSUwNJmRSIhuxKKVbt0RO5eGfyVfx21DVsCD3OgoKTzpLsX1s6OhEcWQLT4JMwvXMQvxqZjTc+P4BlIWWQVQ+TRAV2UOaL38oPn+hQjJI2ajaokooT56thenc3NkfkQ5AUxKU0o9/kaxi2sBrDFzfCNDANvx95GcnpDawNFEOXwjPy+vhhHAd1ymJLv7uRX9iEL77aBdOfNuKPw4/g1IVWuFwKS2dD/3e/WN9ZkkfSPzfiLwNXIyTiHhwOCZIo4uVP4jBi2hEoCoVq9KCpxYrRMxLx17Hn8aCIVCpacHAmbXfC5XYhdv9NvP7BEly4VKhlKCbpl4M9b3t32hjfDboYPPA88oAguiCITpgobqskkwcZ6TY52JKKYGs4ZTKgmLZrMWTUWkgiSaudzNOrtr4Fkxccg+m1CJhei4LprX0wvTQfH088CNr2i5TAUeFmVF1XbZL8aMvvSw65I+YK/vH9XThz2Q23KGL55hswvbIBpj+sgunPm2AakAJTn3D83R9nIOFYLbOKELQtuU8a19UJTogipd1R0NwiYXlICUx9NuG/vLEBW3ddR2OTnaX90SVrvTxTMyikp5Zw6Voh/vzuUuxLug9BoMDjCgZ/eRqDx8XDJXhYLFtBVLF6yy38t4FJuHStHhTrlhYXtsDIdrjcbsQm3MIbA5fi4uV8lrON66G//2FdV7o93yu/0VdjfJ9nHmDCoOQisAUH2y6HPALsdiuqqgV8ND4eg77YCcFF2WUpdQyFQXSird2NwHXn8don4Th1vg7F5c1o7iCwJscAgSdAZJKej5F84Ma9u6xWFwJWHsMfB23B/Xwn4LGjpdWFL789BtNLyzF/fSnaLAqy79Xh3z5KxrtjktHarpujaQdf5Gjg75BBmR4UKzNHc7vdOJDeCtPHp2F6dSsmBdxDbT1J59xszdcebqZFYHs+Ix+v9FuExOT7EAWyypDw6dRzGDgmDk6BHEAUZg62K76YpcU5nF4CUeRhFNliJalobnVjwerr+NPgrci8WWSArd/4+I+V8dk3NwxaPL+08ANbn2SrHyRRnFo60KEMs6OmJmDgFzsgUiocFgDbymIgqIqIkLBL6Pd5FB7kNUJhOlXNC4vSv2gOAf5M5AM3DrYdZgdmLkzEKx/tQFEpgW0nnA4XZiw6gt8NikZ+HsWPFeF0yVi9vRz/2n8T7tyv1gJ5E9iS8wSd8nOJme7UMYrTQJYFHRYZh0804vfD0mB6dT1GzDyL8iqq02eLy9vkA9sr10vwSv9AxCXch+AmyVbCoMmnuGQrUhZdDrbxWg6yA0cKNLClOshdV8G5S6UwvRmJviNjUVzWZoCtAbZdBAL/OWF8fn5BVh/brmDrtUsloCJpjqQ/C1RVxtipUQxsJYEkW3JasLKA4B7FjZCwM+j/2Sbcz6vjwb9Z0sTeidcdbCnYzZwlB/HnD7ejoNgJqBY4HE7MWpiIlwduxN28FmYB4XK5sWp7Mf713WDcuV/vBVu+OPjMwzjYikxnXFtvRWjEHfzzwDiY+u3GiuDTqKppZ1K8TgT9ztrFHBAk3Murw18HB2HjzgewO3jusRc/iceoWcdB4SgJbMlSIza5Ev/0QTwOHivRkkzyQDqSrOJ2bh1eHpqMPkOjcfdBrQG2BtgaYPsL5oEuYOvL/ko6RSdEwYmWVieqqkV8OCkVrw0/iLJyEU0tlJaGDpicaOsQELghE38amoCT5xtRWSOA1AK6pEhurzqY6Xcf2HInALKHXRtyCr/5IAw3sik/mI2B7dwlB2D68wpMW34P5zNdSExrxX98kogPxsajqYWkYm5doNdHnWEdkgWW0fZ2rhkzF6fjv74VhLeG70LswXK0tnPplxTwenv0u95mkpKb25z4dMJefPL1eZSWOXEjxwXTqysQFF7CQJ5L0Qq2Rt/Hrwbux8nzVSwTLwd+kmzdcDhEbIvKwSsfrEPG5QcG2P6CJ5rOY8a9dyHseaeND2w1awRB5IAlywKq60QsXnUUH005CVP/FJj6HsIHk09i3rJkFJXbUF3bjHVbM/D/DkqC6e0EvDL6DD6dsAu79uXAoxJRKYgNqRIeTWBK9R134A5M70Yj/kgjPB43HE435gUmwNRnF0x90/C/Pj0K04D9+Jd+W5B4uAKyqj4UOEc/wSQQrm+0YMD4NGYnO37OaVy7WQ+nmztqcH1z74dUbNGRVWyMKIGpbzjGzDyJV0em4p/7LEXuAzcUjwOy6mSpz79deQ6/H3oMN3PbIaqkiuHedaTXJi+zfQk38fqAxbhwqcAA2+/gg+d9shn9ezQOPO/06Qa2kpbtljszlFVLmDh1C/7wwWb8fvBOvPBhBF4cFIIvJgXhXmEnKipqMGvRXrw4MBR/+DAML3wYjj/1nYsNWy8x5wcOtjyIS6+EJAlTEnHtViP+cWASFqzNZFloKTvvrIVxeOHjOHyz6j6Gf70XXy44jCPphTBbyU734Xp1sKV31TW0YtzMRKzddhWllWSdwF1qyUpBppxpzPmgt8EnNYqAkkoBX86Nw//12ir8/RsbsH3XWbicpEaxsQy6RaUdGDwuBiNmnkFlDelqCcA1dYZig6CZfv114EpcuFKugS2XenulhwFID+04DFr1xqfG7z8n3vCBrYdiI0gQKHYr8/oS4HDIKCqqQ86dSuTcrUbOvWrk3K1EQWENOu0Kkz7LyhuRc6cKudr/2bmlqK6h5I7ECBSW8GFQ7EIgiQ6fSIp2Y+iMy3j/i0gUltTDLXgwa1EcBo2NRUGJBRXVbahvtDJzLlFWvO3sUpcfUDmcTpRXtaDN7GBWEdxMjILIOJlrMMUt6K2sbgJGEm5ZZSOOpeXh7LkymK020LtVxQZJdOHQsVy80H8dQsNuwGajYDOU5JKrKcjEi0zG4pOy8Id+S7H3QA6cLi0wTTfrjN7aYfxugInBA88PD3QDW5mFAtTBliRAAg3ulutgYCIToKjcFldhka90t139OQ3Q/CwDOAD1RjQOQA6nxPJ0vfj2LCQfuYL6RgUjpqfht8PSkH7WDJtTgqR6WBQukmp5gJveAZM6xm1ayXGC2qtZLVC7mDTde1ndGoP0rhTpSxQEyCIHUaqXPOc6zAIWLj+ItwYvwrUbRZqkTNl1dbDlEuz1m0V47b256P9ZKG5mN7OFhVQ1XF3TexuMSdYbvxi/G7zx8+SBHsDWJ4my7AOUepul3ya/fjL3snpTxajMtdU/9Q09a9dSen9fgnCwpYYUFLchJOoGLl2vwopNN2H683qY/rgapleDkHToOHPfFVU9Nuyj62eHXazd1B6+tf++TKo/r0u4PEUPB0/6jczJbDYRB1IKEJt4hx0SEijzEIw62PJDQsqyuz+lCMs23UdBCalnNHUGCyNpgO33HRPjuUfzu0GfZ58+XcCWe5D5AxMHDpLWOABx6wGfV5jvfxZsmzkx+HuM6eV6P4zSJUGSVMmdjexTyfMrJf0evpwTizHTdmH01Ghcv13EvLbITZddLHbDowjsa5vvHY963vdfF7AliZgFzpE0V2YeWEeQRAiSrMX3JecNAaJK9sUUu8EXg4H6xMpLFJydh3xkwdKZt54/rX3vNyaOQQuDB54/HugKtooMUg0Q2Dw82D7gZGlj/PSj9Kz+m37n5X1lHq5PJyYHRR3MWYNIL6qqLGoYRQ7zqCqzPqCYCbqTBHuPLh0+pH/VgVZ/xw+7+8BWo4UGtpwu3G+d95nHQqBYB2R1IZDXHIEtXXQA541xS/XobaLy/Dn9Pb3T5oe1+/Hr8bXt8et4Wm191Hsepx96GapX/0z3R73nef3Pv//6Z3+6fJ9++5f7Ps//cp7pArYEFL2D7U9FFB8g6+DD73qWXa435l5ZpHf1tcNrfcAO2UTmZUaeZjog+z/7OJ/pkI/qo4sf+PnerUv7fILS/2SlQIHVCWipT6Qb9kspRHpmUjWwjA3a/359eZz2PbkyfAxYX74zv5o/DX6Cz2xh43Qkuj/UR9Y+xUdrirusSPy7bglCOzEqy57tmlfPWx858DwkXPjR4fuOjdZeb729lPPPQafzFcv555f3T3+mx373Uu93vfeh/1m/fa7tzK3eWzfvvz4P+W6VxqA3AYxozPP1KarIoupJKh2K9xxV76G2eN/bwzg/zn8UCEqmcycu/P3k7/uBbewGthQm8BGE/YGVf7/Odh1gfaAfzqrLVRg916nXwSfZkwJbehdNDJ9U6s8UPUxMmniMRty9V5YluF0i3G4RgiAxt1/qnw7Qvr70Jg309rt/O57EZ7/39Ai2fv//JDzQrQ+6J2MXsPW1gQkFfiBFdFQoE7Rfpgy+cBCgdnXj5gervp2bzm/6uOnffePke69vvHpur15H7+NLdfGyfDHgKif9Nw4SxFff452POw5scdDVWRyUuOORPof4/Kf+0zyivvC7TjO9bdpdFOG0yXDbZIgOCQ6rBMHpi1rGaeHrt97XJ3Pv1hYKfEX5DL9Txdht/B6Xlj+wXBewJcZ8+mCrd9w32DQQ/kzvY/yHpRUmBZDFALOQ+AGDqq3wDEy7TGq9Pb47f79fdl1GZL29BKz0rGbmxiRYgalBOi0OZGcWo6m6E6X5dSgpqIbo5hNMUEUI2krcheZ+klKXfv/Agf2+zOyVAjSJsafMwfpYfN86f4rnOC1cfJzZYSQfH2o/vY/GQD/Q5Dp9niOOgIvKkgmioEtdjFf4AWZPbdXr4eDd0+Loxxvazofq4W2h5+l9pPKi3Q61TWDz6mEQ9tWjlyfgeyrj3gWQdF72Aa0+5sSbuvDCacyDS1EfqV/2VgEXU+/i7KFcPLhSi8ToDJTkUIwULdzod5l+/gi+Zu3ys2330vdRO5of8b6eeOWH/NYVbP8magSd4XwDTh3QB1u/+wjpkx79O8okBbZ110y7vNKB/+qnvYsBmi5VaJOjm97Xq6LQ2kKE4p5lPOsDtYfaxgmoed1RfjINbCmGRPaNQkRvOYKCrHociLmM65cpghhJWyKb+ALLXEwMrpum+bVPey/rI5POdDo9yTs/zGTbRSYR6JKBvzTj10+dUX+y9vTUNz5+TGLxZnZ++Dnv+LNxp/8pQSnFTObtZ/zTZVHV+YKe1T9Tv3X+0t/B1ULED/785v1M9TPeoINbririmaY5LblLud4GytRMY+0DMA5kWjB8Bkx0oPpogPe+Wx+PH3XnQZvYOUMP847xuNZenZ46bSk6XlOVG0tm7sCciaGIDb2Ej/rOwLF92Sx4FZ8zfH49fpt9Y6NjAJ+bdECtxcXW5iK1lY+zPrf1MXw27l6w9ZANq/SoA7KfusGcITnBfO+i714ieplKZ17aBskQRJkFFOdbSa4r1cv539mA+0mO9J2kIGJuf3Clz7odLH2mVZouVQFUxcMC8/DJTe3U2u3V7/L3W9tt2Ba0HxsCEnEy4R5WfBOPq+fyGNiyaGOU7cHv8m8DvdPLnN10bN7fvbTw0eqH/6fTkUvt7JCPto3agqHTjvrYtU2Ktj3/Me/+vmV1+npYlhCBFiuZv5/rav3q0WgluiQoFHeZtpUaLekzHbpS1DoKEyqJBMa6fs8neTKJVFGZTbckKRAo24hfPQ/RmOy5Je49yDIxe0RtXIk3CbxJwtOkW4oyx7I1a2cAigCBHIiIB9nvGk94OGg/9K4nMuacXtR3dmkARckDFFVlcT9ImqVL363pIEftYecSItGR96mzQULI0gQsmhKDk3ElGPnBUpxOLNHAluYCt9553L7oPKjfqR4aU6IrjY8kUVhTrhbxf+Zx3/dTlnvGwPZhvSzfyvHfdWJ674oIm82J02k3cDIlG7Rtp22jrmPqWlbfNvJwjN7tpUOCtcO3EpK+h5iMS5vEUDI6amScSs7GgahrOHngDsoKayELZN6lTQpVgGSTcSLlKh7cKwbpatuazJjz9XpMHbkFEWsvYexH65EcdwEu8iJzyrA2SmivEtFRLcLWJEJyEPPrqeI1gNFXah3QtYXH23/tu77N6+3e/fnu36m/jInJ/I4mviTCbhHhdJBkSMHi/cfFX9LwA7onBAQMoDQJj48Bdx3PvVKPXVvScDr1KkSHDFFXCWjbVOqTIivoaLViz4405GZWspROLCMILR5uCTmZ+di78zyiN13A9UsPmEqHqxx0aZPiMJNrt4j72cXYG34CJ5PvwunwW/y69ZODuAJXu4T2apGNqaVWgtSpgHY3bPIKElwWGdY6Ce0VIjqqRFiqJbjtCuMjl1VEW62AjkqRPeMyS5BFTa/qv/B2e/fjAIPOIxxASSpX4LALuJ1RjvNp2Wiqs0CRfDtLttDqC4IkobyoDvE7LyIt6RraWtsh21XEh6cjPvIiSrI78e3UENTk27gagcwhvcGhHo9XdN7z3TXhS5FQeL8Gl44XoK2J7Pt9lkqPQ5enUcYHth4wZu2iP3wCg/uoTrAVystM3LmBTzDfwDAidwlozonNJpciob3NgrWBu7ByXiya6jqYHknfzvHsvzxGLR8sbZvBVmjSqyrIuV6GsK2JsDvITVnWAufwMuSA4HQ6EbH+GEYNXILRH6zD6MGrELUtAbKD9HEkBbqgeEQU5zZjyhcrcfwYZRVWYW7pxObV8Vgz5zAORRYgcFoSTh/Ogdsl4FZGPlYvCEfgzN0ImLYLq+ZGs4ldXd0ARfXlgesOir19ZxOIQKenqxeA7l4X18dx3bfLLuJo0hmcOpEBm5284ugiV2QaF/+FwDdO/uPcdVx7fsb/ef/PBLa6bpXGj+hL5n/xO27gk75zsDZgB0QLeRNyYGTPan1UZRW1FfUY/sFcJO7K4E4wJAGpbraYJUSlYtzH6zGs3zrs2ZnKD3I0JxlOOyckcsV2CUiJP4kvBi3Eiln7Yemg/nOJyr+t9JnGq6mpBZEbD2HZzCgEzqArElvW7EXWNQoYL8HS5sbBuItYMn0nlk3fhcDpMQj4OhJ7dx+G0y4gec9ZLJweiiXTorF0ZiS2rTmAnFv5cLu7Wt90f/fjfO/CK6QeEGRkXc/DugX7ELw0Hofiz7OFlo8zP49gCxLRSZRw6UwWRn2wGotn7kRFWQ06mlxIij2DwntVuHz2ARJiTkN2qV412Y/hBeqfd/53xwBFwvn0LCz8Kgy3ruQx7OI7CS44PA5tfuoyXrDV0+L8lGCrT3BJkqAqtGVRoVCqcUmFh77LKug/2lqRXohAi2xs6fJ/hlZjMpuhu+iUkZddhTyK6mXjhyLEKHQ9VJYcC9gWhGxgJVAyydPx5fhmTAhcFmoTqQgomhil86FYBzLKC5ow5bMgJO24iztXanD6cC7uZhcwyYPiSMiyCFX2ICHiMr76PATFBdWsTxQXoaW5Ay31VljaXGisMcPSQfGBJVw7U4JJw1fg8/eW4qvPQjB+2GqMGLwY29ccgq2ZQJz6JrM+U79VkUx1uKmSbi5E9GJ0kTUaEo0om7G2PWS0pbIK/5+2zTTRZFn20proTZfCpFdNulckuNsVbFuegN1bT8DS4YTqoXgQ/P2yqnjDWJIqxTummq5Un1z8vfSsJhXq5bUtH2NsXXeuLerUdtqm6m1mfWdbWxWNFWYsmxOOlXOiIFnIDpubf7EFktktC1AkFYJNxKWT91FZSAsv0Y12ICTByWisa8bNc1WYPnozYrYchttGjiguJs3rh5UqvV9W0d5gwabABKz8Jh6W9keDbX1dI9bO34vP+y/FuE/X4MvhQRj74Up8M34z7mWXoqPVgeidKZg8fDVGDViNkYNWY+ynQdi5JRouh4i4rZcwtP98jPlwPb78bBNGDlqKWRM2Iv9GJZOOyX67VyDQ5gG1WZ9DfExVyCLxu2YL7hWc+NxgAKq4YLc6kLDnONIP3kDWtUIkRJxFWUEDO9hjKg7iGUmB4iE+UdHeZEfs5gtYPHMHKkprWbyPxuY2UDaUlpY2tLeZvYsyzUGdH7q0n427JvV726X1kZ0HqHzuk429H5+rTCXDhS0SdErutWDhV+GI3ZEGa5sdEovrwseKLxYceAljaK4QnhBPcL54BE27t+kJfX/qYMvBXIbd7mBbkurSFrTU2nH1Qg7u3iyBw6oTQYLN5kBFaSNKCxshuRVUlzXgasYdmNtoa6nCaZdRX9GOivwWNJa74HbqZUWWbLG+tg3VFS2oLm9n5Qrv1cBNMRZYhgYFNpsd+zbdxtTPQ3DvVh3KClpRW9MKF4ViVEXY2iWcSrmJiZ+uR9bxDtQWC2itESELHAxJYiLJpa3ZgsUzohCy5BQ6zeTOS6EWffaf3gHW7IHdNhEJkZcw44vtaHxgRV2xBclR2Zg9fiuyLlWyRcDc6kR2ZiFOpV7Hg+waTU9Ji4wCu82NytJmVJY2sMlSXdmE61fuor3dzBYLAlpzRyeuZeTj8vkcNDdQVgrKLCHCbhNQXlKHhhoryoqacO7EDVSXt7JyMp0gKyJqi+1YPWc/ggMTUXCrHSUF9Wik7SVbiHwAqkvDBLh8gePSH8U6rqtpgcOmSYOanpy2el0YXbeLZM4pXB9I9MvKLMS54zdQfL8erS0dbFsvOCTs2HAIy2ZEo+hmK65ezEVVRRMoSDs7PFNEdJpFVBY1orKgAy01FPyedgm0aHN1ENHF3aZg8fRt2L31CGgcmPs3qSRUBYJbQXF+LTJOZ6G6oBWxIWexZm6iF2y7AIY2AWnxIkArv2XFzM+3IeNwDVorO3H/TDXmTdyJqK2JkGwq7BYXWgotWDtrP7atuICqB+2wWxxQRBVFN2rx7aRwpERnobWsE1fTyzF9zCZEbz4NawctBhwg/d/PQYx4TIHDJsHc4kB7i127nGhvdjD1AKlWvAueH2joYGuzOBAXeQyXz9xHaUEtEiLOo+heLYvap0vBlOm6rKQGZ9KuIz+rFif25WDp7DBUFlMuQBlu1j5Nl6ovrn7v8m83+8wWXp+tb9f/6QxGQWN9O0oKa9Da5EDBg2pknMpCbVk7EygIaMk13t0hIHzdYQTMDEFVCeUA5LkTeX36DkyEyyGgvc3KVHhsIWeLsA8rur7/p/v96YEtm1i01eWT4EB8Kj5+axm+GBCCr4aF48PXF2PI20uwMSAZ1SXNTKo7mJSGz95bis/f24g9QbkYPSgYH76xAOsWJMHcZkdOZhmmjNiAd1+djpmjIlGjgQaBQlVFIyYN3YZh/Vdj/Edb8OHri/DFgDVIT7oFZ6fAmHzDqh346M21GNYvGIPfWIIP/joHU0evw71blWyCRwSlYcg7izH83Q345K3VGPTGbMyeEIrm5jauk1JJlykh53oJvh61FucOFEN0E6CQxOdvWM/1u3RKTdKwKis4FH8OU8cth2iRGbiW5NUicGosTqdko7igEktmhLO+fvRmAD59OxDxu05BdnEGvXI+B5+/t4rRI+jb05g2PAKDXg9A4Kyt6Gi0oia3A7PGbsbAPgsx+M0AzBwdjtsXq5jEeD71PkYNWoxJH2/D6AH0zGJMGhqKGxkFjCblZVVYMjMCQ95egyHvrMFHby5H/79Mx9xJ4YwmJOX6pFliTA4E+m8EaFk38jBi0DIkx9xg7yTpkiauDsg6c9NvAnnf0SGKKKK6qAVBAcn49J0V+PCNxRjx3jpMHLoK+VebILglbN0Qj8/7h2DEe5swuM9CTBkehKun7kF0iUz6jg+7gEFvTMOgN+Zh68rj7N2k++SHPU52OOVuk7Foegh2bTsMt12EW3HALTth63CzU/QxA4Mx+PXFGDNwE8Z/GIyVM5MfCbY0pjTx6/LdmP7FemReygYdNls7HAjfeAhBi3fB3U7CgROiWcD6hREI27gfNosdIoXhlOyouFeHb78ORvrhS2wHoaoikqMzsOjLGFSXNkOWKCIfnUXoQMAP1mgH9uBuCQK/icPEIVsxZdg2TPk0FJOGbMekISFYMS8K9aV21m8WiIkdVpH5JBn/a5YRooxrGTlY9HU4Vs2NQ8KW8yi73YrC7CYm+NB4XjxUi8/eW87oMvL9dZg6NALLZ+5GZVktOzzkO9FepFhvm327IFocBVoEejI/UyTUVtdj8bQIfPzWUswYHoXh/dZh8OsBGDtoLdITb8LdSX1wQpZEnEm9hmlj1+DOhRLIorZ4MsDnKj7RJeD8sRuYNnYlzh26zdRJ5GzU0wKk8+VPdf+bgC1t6fLvlmPt7HQ2oWd+EYaj0UXYE3wVk4etwJ5th+E0SyjMr0DY2osY9cFmfNp3KZZOT0LCjlvYsuoQGutaUF9pw7F9uQicEYeFU/YysIUHoK2uxexE+NqrGNZ/JRZ/FY+UyAdYMWM/ls7ZxpiEtqhXLuRg6dQ0TPo0DDEbb2DvtkykJWahqZqC68jIuVSH0MA0jB28GVGrriN+xzWcSLoPu52827iqgcD2dOp1TB21FnkZlexwgRhbt1Zgp6aM4cjch1Zelxdsvx6zCu0NLrQ22HAsKQOzx23HjXNlqKlsQPzO89i/NRuXk1sQsugMRg+ZAztTMYioLmtBxNoMjP94E4b2XYnAaYmICc7ExuV70FDShkVfhWPS0DVIicrH4ah8zB4bjlULdqG6sg7V+Q6mVxzWbwWC55/Eqf01mDshFPz64gAAIABJREFUAmsCdrBDHXOHBacP3MPsUbuxcNJ+7Nl0G3u2XMbp5CJGEwJbWky6A6c/2Obczsf4oauQEncdJBWRCqRXsGWT3s30hMlRlzBh6EpErL2MU/FVWPvtEXzafw6unqj2gu1n7wZh04JzOByZh7kTtmPb2iPoaBIY2N7NbMb+8EuYMWo7tq8msPUwdQ+1jehOOxFXm4SF0zYjmsDWIcKtOuAWnbh7vQRfjlyBpVP3IzWmGEHzUzGs3xIsn54EawdFjtOBruudga3qRl2BG1NHrMOVs7lMR5t/uwrzpgQhPDgRAi3uqgOCWcC6RQS28ejssEMg/bDsZGA77+tgpKVkML5RVAE3z1Vi3sRI3M+tYDslXzwSTnsCOOLR4sIqBC9NwtyJu7BgYhQWTIzEt5N2s7LBy2JRX24H1UdWAdwyQAdbbn6mSB7YzBLOHSxDcEAyQgOPImDaFsTsOMR2bGUllRg/ZC0WTtmD43vLsSXwDEb0X4cl0yNRpYEtOyPpTWXA6NZ1QeYgSzzh7+mlW52IsJrtSI+/iynDtoP4NDTgNE7vr8LyWfsw+fMVuJNZy/pEKrx7t0oxY/w6nE3Oh+Dk1kU6kNKYy24J51MzMW38Mpw+eIsdrvKxpDZ1Hcuf+vtTA1s+QfkhDq0sdOhxYm8JPnt3Ma5dzAZUwNJhQ8y2I1g6PRal95oAKCi+LWDMR+sQODcMrTVkAynDZrezlYm2iaR3PX7gJgJnxKCqrJmZZzFdqiAh81g5po5ah9uZ9+FRgBMpGQiYtQWFuZUs5KIHCtL2FmPGuBB0mgVWl8dDW3V+SKN4FGRlFmDy8MVoLbKyNpOukICWgSmZbgkSDsVdwKzx61GSRdt9vpVhzgKaK6OeZZhbObgZ2B5OvIAxg0OwccFFrJ2diklDgrFx5V601lOIShm1RS24nl6EjIRCxAXdxMjBC9FcTOZLZKrmxP3sEswYtxHLZ8ahLL+ZZ/t1qrh3qwyf9V2DuI05KMqpQsH1aiRsuoTpozfh8qnbkG0qtq+Px/yvN8JcZ2PebftjUhEwZQscDSQhSnC1yggJjEdUaArM7TZvv1mfNPMf0iv7M6cOtiTRC4ILJcWVsJhJquI6cPaspk7Qy3knm6KgtqwNa2cnYfu6g4wPPCpQVFiJ+TPX4c61Kga2ZEo3b1IoWsolpg6KCz+JTQHH0FDB4wjTYRXxQ9CCJIQsS4KHHfqqTDXCrCwUJ5wMbDdh19YUBrai6oCz042DkdmYPWkz8u+WMV6srWrAgq+3Y9nM/Y+WbCVuLVFbIOLrEeuxeEoSQgIuYM6YGMwauw23Mu8wXpE9LghmEesWRSJsYxKs7Q64FRvckh3ld+swd0owjqdcYjsikoLvZzbi24nhyL1dpoGtZiKmWawwaZLoKciwtblgrnPA3OBER4OTf653oLPDBUkzgSNbYDJR0xdJpiKgRcglMl1t9KbLWDYzAau/OYyzR/KYOswjeZAQcxLjPlmMmgc88WtLgw3rF6Zg/tStqCqr14SOh3ct+hjzO+nMOdhzwOdA5x1/DfR0FRPNL3OVhAWTd2LZ3B2wNFKwfhWVZQ2YOz4asdvO8bMHTb3xzcRgHI6+D5dd4WaL3vpIfSTBYrWCdmzmdsoI3t2O+ukB7lMDWy7p8dWUQIckpNTYQkz8JAjWFgk0sKrgwcXUXARO3YM7meUAZOTfsGPCkGDkXq9jqgWSFEm3SIOoyGT76g+2TQxsmRTjlnD5cBm+/WoLqkob4ZE9OJOaiSWzt6Mgh8CWsvhKOLqnADPGboal3ckOtmhwqK0EkKTvunXlASZ+tgjNBZQWXTP30lZrURUYsx7YfQZzJgWhNKcGlJFYlOnSXSG5vSU3ryJmdzEb0COJFzFiwGrMHLULs8aGYPuaoygvaIRCesO8KqwNiMGYjwMx7qM1GDVwFUYOWoTmYjr9pu2fE3duFmPxzDCcSrrFTMnIcoKkyAunbmDYOysxfXgEpoxYiSmfr8XkoZsw9tNAnDh4GUKHitDVcdi0Yi8cFhcDsYPxp7BoSijs9QS2IhytIgPbiM2H0NFCDKoxJEnzzFlAZ1gusdD/XrAl8JHJ0sPDDiS6eKQ9BLa0NSZ1i4rS/Hosn7aXLZx04CiLCpwOCfl3quFoE5jp1vagBKyYHQapQ2UHS/siTzGwrS+3MUcRmkgEtuu+TeBgq4IfopLUpUm2BLaLpm/magQHbTsdDPgiN2RgQ+B+2DpExouK4EF4UBpWfpP0nWBL4EBgO3VkMCYP24RZo3dg6cxoZJ6ugOgitQvZz7ohdOhge4Ad6LhlO9ySg4PtV8FIP5QBhemYBdw+X4V5EyNwL6eSgy0t4jJZS3DzQG5xQ1vuRhyIvYCIjemICjmOiE3p2LXpOCI3pSF531m0NfFdGAk4+hgR4Opga7PasW/3IezeehqxWy5jw/yDiA5NQ1lBLWSnByFr9mDpN5EQyA1XccNlU5Aak82sESpLKcFrzyoiL88w3iCplaRrf1UDH3saf/1Z0j/TZxLM2ipEzJu4HQlRF0DWMXRIZ251sHORkJXJcLkprrSHAfDsyRuRHJULl53H4+YLCn+nLJFXrAra8dJZysNOK88h2PpPSGJ81SMzsB0xYDluXiqBZPfA0mzD3h3HsXJmAkruNjPJNv+mDZM/C0ZZYQPThdHWiTywWH2KzCZ1OpNs96CqtIlJsKriZhLnlWNlmD81BJVldez3M2nXsGTODhTkUnJGAluRtWHGmM3oNLuhqmDOEU4nt1ag1fT21TxMGr4ILYVWtkDQxOLMobkICxKOJFzAjHGrUXSzCpJAtr76iahvILlkT4cdXGebsv88pnwehJIsC2sfbZ1UVYDLImJ/2FnMHLcZe7afxpkj2di26ghGDlqC9mKJbwkVN+7cKsLSuTtwMf02t4skmioK078N77sCwXNTEbUpBZEbDyMy+Ch2bTmM3FvFEKwEtnuxaUUsHFYXi9lwaP8JLPoqBI7GrmC7a0sKLO0EZBLcopsdMBDj6pOW37l5kP4b6UcVzduOAwNtFzWadQNbKkMgQJOgvLARy6bvxeG4Kwxo2Qm4qsBstqCz085sYncEJWLpN9sgWVS4nALio05j8+JUENjSYkPqIwLbtfMTEbL8oOaEwnXMNAHJukRok7F4Rij2bE9lki2Z7XV2uBEbeh2rFu5BW7OV8Qr5929dfcgLtvrWlI+9b1wJtOjdDQUipo0IxvHEO6gobGNqLjq953xPuyYJolnGuoWRCNuUgs4OAkHSHbpQcb8e86dtxPHDV9i7XXY3EiMvYeHkPagoaWL00emrgy2ZvBEvPrhTjMDZMfhy+DZ8/fk2fDV8K6YO344pn4Vg2ZwI1BTRwaafc4efKSDTXYoKOq021JQ1IW5nOtITM7F7ewpOHboBh1nAzk1JWDB1G9wdEmRaiC0CDu7IxOIZO1FZWs8sZ7rT5KHvksx2Kw0NzbB3koTNnUjY+DMVj6ZOYGDLHTtaK0V8O3kH1gXEorHSBllQUPSgCgFfxSM65BQEkYQtDwofVGLGxA04tvcB3A46/Kb5py8sAuObxtp2lBVXwWYlIYjUf77xe6itumDxE9yfmmTLO6VvH7hkm7a3CB+9tQBzJ23DwahrbEWeNmoNojenwtogorK4Hod3P8CET0ORuj8Xty5UovhBJSTyAhJE1JS14dbFKoStPY0542KQnpiL2xlVsLbbYWsXkLD1JqaN2oibFx/A1a4iJe4Svpm4GZmnSyG43UyyPZtciglDViLnciPK7nYy064Th6+hpbGdmQ8R00/4eDXO7S/CzYwylOe1aWBLIRW5kv7SmWx8PXo1sk6XsawOJDV3H0QmLWvG4e0NboQFHcFXn21BZnol7mWVsUAeFBHM0ixg66qDWP5NHHIzmnH3SgNClqRi5IBluJFWCadNRF1VOw7GZGLOxJ3YE3IB188VMbULeUbVVjVh4ifBCF18AnmXW1F+24FbJ2qRnnALpXm1aChxYMXc3QiYvhNVBZ1wmN2ICEnG7DFbUHmXrBkkuM0ytq3Zh3UL4/AgsxXFORYcib+Ck6kZjOl1Zta3pHwB4jo3VZbQ3mzGqSPZKM1r5cbmzM1Wk2C0xYrvdLi3HZ3oN9VZsXHJQSydFYlb56pRledCwe02RG05iIsnc9Fa7cKyOVGYP2k7qu9b0VjdgS2rkrH06wTcu1EPZ6eEvNsNuHWxHAFT9mHZ9P24eaEcBbl1cDhoS+1GflY1rqWVYs7YHQgOOIhrp8qRf6cELouCs4fvY9rYtTi2/xbjg4y0fMwYtQ1zx+1B7o0SLaaFvjPzTVZymnA53bh+vBpfDtmIpJ23cftiJZobO5hJHe1kCLgrC5uQeaIUi6ZEY828RFxOK+WxMgQJORlVmD4mCJHBp3DrXBWO7ruBmeOCELb+BMytdu3AVduqa/SjnRfxGAFI0d1m3M1sxN3MBnbdo/u1OhTfq4O70+de7puDfKyYHpfZCssoKaxE7M5UZhlzJi0Tx/ZfZRL/qfQrGPvJcpxNuo+qPCcyT1YiYNI+zBqzBZnnipik253X9e/6AkXOG6cO30T4lgSmemBSNnNJ5n3S1VO0qDNVmyqgtUJkNrSfD1iMbStO4Ni+G1g1fze+HrUBty5WsAWEdrY3L93D12NW4/KxQrb7YTsY/dBWkdDZIeLA7gyEb01EQ30zW6BITajzrt7Wp3F/umCrSTbEoGQTmrq3ECMHrkLAl0mY/Ol2TB0ejtAVx1CSVwVnh4rIkCSM/2QzhvYLwviPQzF5aCg2rQiHYFZhtdiwf9dZTBm6BaMHbmIWCxM+2YxJQzcj+1oBKvJa8NXQnRjSNwBbViWi5JYF6xfsw8fvzMbONWdgabMz/SSdvE4cuhIzv4jC/8/ee3BVlWxrw/dffe9433PP6XPP6dxqt622OWDOOStiJhgwEEQBRRAxYsAAKiqKYCBIzjln2DnwfOOZtWrvzRZtu09r33sPjLHH2qy9VoVZs56aNVOtnxuPgAmHxABXW9qO6JB7mPXDAUz8+14EjD+JgIkhOL7nhpwtRoARsHXaUV5Uj2WzgpESlQuLiSsnmUhNSA8jiVqBvrs2PL5RjrkTgjDp73swf8JxbFp+CG01bI8F5n4LLsc+xOLJIVgz6zSWT4nEzG8O4qe/bce62adQU9aGy2czMeO7g5j0jz2Y/f1RzB63B4d3XEJXG/14nbgYmYtZ4/di5YwokQQWTz6JFTND8Cz9lYQOz/x+H8Z/sRYXo16hpbwPcyYqT41Lp7NFJ+6yDuP6hQdYNCUM62bHY+3MM5j9/UHEnLgkHhFesKWxhdIE3YsopVK6Hsar528x9ZtAnD/5RPktG2oGzeAEWiXpG65hDgvMQ1Y8uJGHpdMOiXfF5vnnsXJ6NGaM247H10rw8HIlJnyxBtO/3oPk49l4fPsN5v0UhMn/tRcJERmoLGrF9mVxmP9TKKZ+yU8I5v4Yij0b4lBXU4/SN00IXBmFeeNCMOUfBzDjmzAETDiOHWtDYO50i2S3d1Mc5v94GOvnxIl0OPmfBzHxiwPYuy1CLODik+uzkHJsufVtqm/BzhVnxVg589uDWPjzYdy7w75T5WVBT5sJ0WGpmDshBL98GYYZX4di3g9HcXh/LEyDNkQfuIdxf12Lmd8eEp6dN+4wdqw8jcKcejhslPzpz214t/hJXDqUnPz4vo/mRd8rx5ALgSRwctvQ2tiOuBNXER1yDUf2nsPD1FewmZzo6u5B8MbrmDMuBJvnn8OyKZGY/s9Q/Pz3HQjemoymap7cond73kWIdRFs2aaeZgdCt17Gns0xaKrtUGHAPomjfOeIL9huWnRCFrtlU2Kw4MdwrJ4RhWtJTzDQTXWKGU6rHZfi72H5nH0oel4DqgxUcIqSlFl3fWU3Dm66iLORNzHYz92EUnlpXvSlyaf+rufIf3yOoAalJ7JJAgmC7fXYt1g4KRQVrzqRdbcU2Y9Uhiwq/W1mJ54+fI3E0w9w4fRTnD/1QMA1484T2E0uWMwmvHxegvMxGUg89QhJp7OQGJMhz9TXtkgI35X4LCTF3MeT9Dy011tEQko4dRPP0kthFo8CC2wDjETJwcFtCdi/NQ7JZx6g4m0rBvutyEp/K+8nn85EUtQjJMbcxeO7+d58tdS/uhwyiPu3JCJwZbL4O9LbQjEz9VJeQ5IQ22lHZVELLp27hwsxj5AYlYEblzMw0E3mp6RsRWt9F5Jj72PvptMI35uMWxde4sKZB7hy/gm6OwaQ/7ICCdH3kBTzEEkxj3Eu+rb0bXCAuX/t6OtwIO1qNkIDz2PXhmgc238J92/korOtRyS9S2czcTY6FXnPazDQYUHKuTRcjH2IgpwamTjUG3a2duPq+cfYvyUOITvicSMpR3xnZWssxg5uY72TixOLH7o91VU14MC2GDy+VyDBB+o5rzThBWv1jkhYDhv6ey14cq8Q4XtSELT+FEIDE3H76jP0d1pQUdCO+OhUpMRl4M2zatEpMtop6dQDkTw7Wvtw4+IzGf8LMY+FtudP3UPa9efo6upBW2Mvbl9+gvNRpPtjSQx0PioDt69mCD/ZrDbx6z174i72bzmD6EM3cS3hBZJOPUR62jORmlTaT+rdjYVU7AdK1ZF2NReJMY+ETxNj0lFWWq3UTk4bTP02PHtYiMRT93HxdBaSYzKREJmORxnZIjE/yyhGwqk0JMc8QtKpDNy4kI2KolZQnaB1qx8LDnocCDT8rtvqf9VgqwMXrBYr3r6uxJnjqbiSlI62RrWDY57axso+xEfcBBejkwev4UbCCySfzhCe6+2iwVapS/zr4P9cDDh2u9eeR2ryE9G1a/uFcmdjG8n7mp+s4qrWUW3H+oBjSIx6ijeP6/Dodh5KXjdhqI+7IdLfhr5WB0K2JWPP5ii01HfKPaGXLIK057iRn1uBw7suCG/Tc0jqGcUNcbS2/9H3Pj/YMtOVSLbDSI0vwuIpYXAODUt0Ci2n9EEVQ5TDJblgufKbBmzioM0IMeaGZWQMV3qGvvJ3OurzI88OcovkEisso3NMg1ZxCXFahyXowTTEbR0d0VVILl3AuM3raO5Fe3M3hgYsUj4tozaLet80YIV8WL/ZkMq0wcGIhrudXIQ5E0Lw4mmhKOTJzCK9UQ9lrPya+Zlm0WyyqDIHrLINpUFIwospwdjdGOgxoa2pC90d/bAMOiSQgaGddNVhMhX2i/ov0oZ0oR8qB1NcghxuoV1nax9aGjvR09EPG5Oz0EDAd4dIK7NYsulUbzZZFZ2Y/tEwUAy7HBjqt6C9sRudbb2wDKj3hbYG2Grp1JcpqTdmtJrQso8+qEbSFR+JzBdsBUS0ldzlEvpSb8p2E0BJb/qZOmyM4TfDPGSRPrAfut387nQooxn7xqAP0ofSMnW7dkYa2l2wmshLimbCUwMcT6tE6LFNTK7S322Wtvd2DInKhs8zJzHHhBImz5+T/hoSPb1jyCsWM3nF4MMhm9Sn9NscT6d4TwjdB+yKn1kuk7k4hkXXSL5U46J4jAs269HJgXxp7Ptd85TvvY/57g+2HCeb2So6a9oPZI7JUU8WoQ/VFW2N3ehpH4CFfTDmgsMxDKcLHh73rZttI+hnPyzCoW2XUfS6XhLH0FAm9BZDnfrO/9kG+v8yWU9vvR0b5h9DanI2mFjIQX9ph9uzgIhr5tM6rJwdgUvnMmHq585KATclZRsXf5sS2FJOp2Ogi15CSppXfX//QuTbhz/y+2cGW+W+QkaqLG3A3lU3MOf7o4g//gBlb7pAw5ad1nxJhqJDb9WWQSJ9JFbe2J6IEtxIkEIiUg8jV7VKSsdcfJeTgxNOZ1JSg6JyJeiM8vyNelZ+DGmL2yC+6ylDTTIuFAIyhuM0nydDtddbsXbRfqReuSeTj1EuAiQ+YOsZOAe3M7o+1qHaxzZx5VUrPu9r5uDCYNDB8HJQeiejT0b/uapza6iYTjl+M7EKrcjqN5VyUNpFvZaml+FOptL/cZulFiIpS9qgaEYvA3EhMnRiuj9awqUHhpJQWDbr50dZmEcyuKaNESKsdWzsuzFOpL1KNqPowbYo+qjxERoZ46Mc9LmLMGjGNjMfgkSGqeOKtOsX6eEda1/ac9Iri7mn35o+pKsAhG6DV31CGkjQhK7TeIfjT1rxPUmGQ9oYPKEAUk12T6Ico71qzLWlXtUjRmGPNG0Yk/T/H5Be9fiMdlU8puaK8J/wFQ1Lar7wHY4raaLHRM0F0k/5Lcv4yNh5dzj+dVltFty59QhJZ+6jr5t8ZaiOjDHX0q1XgieQm3AvuViCNLYvO4+b50rFRkPvIGbjo/Dicg3j/s1n2LUhAkV5VUqFQFoLgNMoS4HKgbbWNrQ0tUhYvZpbmp/+TcCW/pBJZ69iwl93YsJfg/DdX5fhAhOHCCgosOXklIEx/FapH+WEUS5VajVUk0JFwqjBUkEDcl+MUbQ+EtRIYAX0ClAUk7EO9R5/U88qUDImgsdnVrndaN2SBhcylrzPdpudqC/tlthxrsBStgy+V42gGVFtR3V9LFu1QwGS8kVmu5Wyn/o6TnJ6OJA2rJNMRSlWRaTxqlZtZYXVYKr6RH9OlS9VFgbDUqvqNGhihDkqWrHvBCHlYqbawPqpOzQ+PuoDPSkVLRTYCr1lQtLlSkUKqb5pBueVgGzkexDg8I4p65SxNtqt9HAEAXXCsZ40qt8moYPqj6KZALUszKochruq8khz0pC0VIudl/ZeCUvTXpdDerD9+qPHUdrPBUgWOZ+6jXZ6+8zxMnhFnvUfJz0OBs09fEkaqVSQuk7Ng57/fzfYKj4iLQU8DZ5SvMb5oQBUzUE9fxTtfMeH9NPPjnYlOLY296C1rl/tvrgY+QG0ntMsi4JLQ10jNi4+iR/+sg1f/Z81mPH9PnR394hKigsVFyju0rrbbGirGoLdZCwK0gcvX9F+wY/srjx8r8ZitLZ+6nuyaDks+Cw6W90Zu8ONnr5BVJe1in9ldXmz+LkqQhoT0rNN8w66L8hpFxgyH8slQfVH1yMSKAdAQFxJWe9z/eBW0FeCYBmsT5Wh6vBndD6j20xC8lnmHxA9mDAF6yZTq/d1u7yTVoOPtw9kRF/g9H9WnwCgy5I2cHKOwsT6GUUXI2frCLp6AUY9a9BKspmNbDN/V+V4aaJpr+uRqwGgQgv2/UP9HwG2qtwRY6wBSgM36Sg7hXcXMN82KJAjTRSgKBrqEzXe7ZfvIqTeHTkubBM/H+6LMhT6toPlcoFSZY5Wr3fc/fvNd0Ri9gcmP3oqKfn9ZY9sj/9zBq/x5AvfdmoeEVr7h2d7y+AYf7h8LcUqqV4F95CWSvXy3ncdDjQ3dqO8uBnlb+vRWN0poOk7P4X36AvvZugyBQ9lQBRDogZWYw6qe+qcOs3D763bb67+kc/9SWBLdxSVkYpKbMZfSwYvgzieDnIyGtuNd67ymxfI9ITwZVr1XUmBAngSE+59x1OPACulLG1VNSQvA3D1c2oF9mcw9awmJCUFBbZqBR/tHTX5fVd4VYZiXtVelqOf852s3B55/FYNxtDSmaKRf/u820FPOQbt+LyuQ/VR02r01d+fxv6LiJQhE9WIsBOwfJfenjqNZzV9fcdO39N9U9I8J63vOL3bV76n+klpzAu20tf3goOXDurdkWDrbcsH+iILgf8i4C1XlzHadbR+e2jkD7YGTXU5/zLY+kjaqu8GTYXOaufhbctIeo/Wbt0ufVXCiNq5Ua0kPOMnretn9ZWCj2T70hm/dIJwz/zUumzu2MwCtl5efJfmXr5VbnAf027dlj/yqjHis0q2evDU4BrbZpGmVHQMO+j7zIe+/5HE0GXp+pQUPEp2IkMPK9KbRyJQE5Srr3w89wkQhtSjmUUY2WUk41CeC6xTyvMDBGEUTrjfuV3UfRq7jgSKMXqM0eNz88B/D7A1dC0CbsZKrgHv166fgmC6TpGMNED6bi+Me7JCGl4JWqpUfVAhjEqfpUBYbf+15MwVXoW+qhWZUi4lWR9QNcBV1eFz37cdY99/dRv7KfhjrMwxoP49PPCngK1uqAY1pYdTeQd4T//+Z18V2P4KY4mVmttuQz9LtxN+5PRcXx0ok2SoUEFl8NESvdItsq/02dUSLEGWTvH0U9R64T+bHmP1/wovjC1+/23m7n9HXv1TwdZDEAOwlHO7svxqSdHzzGdkZM8iIPox5b9KQgn4ihSuFgS6sLXU9eDN01p0tjOShvpUupPRcs7D6JwqhNBhALCoSjTI0qqqDsOjPy8TeJcV1inneWY96rCg5HUjBnvN6jwq+gUbqglpizbA+eu5PyOd/oyxGatzDPD/p/LAnwq2eivN9GtiDSWgGKAyGth+rIT3MUaDD5WlQc2jaxUnfirjteWTYKoc0u9ff4NNi07h1fMyFcwgXgEqg1hLYzsybmdJYAIzhCn3I4KtkoLF7cZhlfPKIo9cRERIEqw8nmfYheJXzQhaexrPM/ONgwO1Cxh9N5V/sO7Dx/T3fyqDjrV7DFz/t/DAnwO23C7TkMTcsDxLiudi8ZwryRVLx3sl8fkTWYPLiPs+VlNlqTas9aPc178rCVRliSLgM1BB/8azlujrJ/pTOxNlD0s2LXVMuvIQUN4G6uyxvBeViDt5C5XljSLNao8CZinKzSrDluXRqCzokVwQBG/WpxcSgjoTt1S9asXCaYGIjbgiKRuZiaqtuh+bFx/F8QOJklhHSf3Kz5Tv6fb+adcxCXpsyzzGA7+JB/4ksKVLiQtmq1XOImNkSGdHN5qa2iWEkeG60rD3DCZBVwDR8ANUOl96MqjIEbqS6Xvvu1psNgwMDsFqZ2gfQdAp33nKLs/QGh5W4YE93YOormhGS0OPpMljZBDBVgDf6sRgtxndLYMwSRy71y3JbnEi804e1syNwtvsHlgsTjnbjPVQH6s9GRhqmhqfh/lTgpCfWw2XgwuK3jYgAAAgAElEQVSRCfZBO+LDb2D5rN1oLGk39Lk+Kha/vr+vn5/uvtfYN2Lxe8+YjT0zJqH+u/PAZwVbvT2n0ae2pgk7lp/FurmncWLnIzlDbN7EI4gKzkBzVR8cNi3hGi5VYjhTfnUE2/qqVpw9mYHwHfdxbMc99dmZjqPb7yMl/h7s/V6DG8FNf+jD19nZg7DtqVLnsYNn4bK40VTfjpCdCVg9MwaJEQ/R1tiP1HM5WDXrCGZ8txsBP4XgZuIzOAZptOLW34KEyEdYOv0wNsyNx/MHpRIhQ6mVPsMPrpVhzo9BmPbVESyZFI0V045j5+oIFL0sl9BBRuEwdp7x8PvWMqXiKQz0MZGMA1Ync3I6kP04H3N/2oFnqY0qXZ9DhRNT/SDRTRY7nt3PR/iBi6h43Sj5IJRe+V1/0H93Rh/r/xjY/9k88KeBbU1NEzbMj8fEvwfJMS5rZ57D1sWXMPXbnZLpqqdNGaGUPpKAq3SVKoesDbmPCzB34g6M/8s2TPjPrcZnB8b9ZTsCpm6AqYMO5oZLFcFWHPhVAmmCbeDKFEz4WxDCdsWivcqKopdN2LnmFKZ+GYzYw+loqu5C2I4LWDH9KA5vuSN5U6d+txq1BX0YHrajp92ChIinWDL1mKQ5vH/9tSSuYUJohgimXy7HnB/3Yua3x7FiajzWzYrFzlXReJtTIR4H7AcDOph0ZeW0Y4g/kiH/kyFU6kaH5GxdNTsMCUdzJKmGN27dANshOxJOXsfEr5ch42qeHDap9MGjByX82cw2Vv8Y4P0788CfArbUP9II1Jhnw6R/bpYUaUMdKqtTclwGVs+KQm5mpehLKSnqUFQBXjGg2SXLfmvdEOpKLKgvNaOuzISGMgtqi01obzGpI3QkTJex0kZggngJmOWUiPzHXZj+/Q7UZfdg5/JzCN6YjIfJBdi2NA6FL5pEfzzYakVrUS8a33ShIrMDs37YjyepjZKVzOHmIYPDqC0aknOq7l7PkcxaOqafWaoy773F2rnRKMnpFSC02VTOUfrfUhXB3K/MxD97/EHcTipSOmvjNwZGMKvXtuVRCNl0TbJfidRseCRwl8BUiLWV9Ui/80hOBhCdsA5tfU946b8zs4/1fQzs/0we+KxgqyRNSqkWAazmAjsmfbkZmWlF4LlTTDdX9LIZ25acx62UZ8p1ynCXUkYl9S59UXkaQ+GLOrzMqMPLR8bnYR1ePaxD4es6OK30a2ViD8OYRDcuMbyZ5PiZtjI7Zv8YiKTwN5j1/T4snnIcR3felbybjRUmWEwW3Luah5VzDmPm90GYO+EApnwViMxr9dJ2lsvE0Q2lZuxccR4esJXwQZW+8El6MdbNi5aTDiT1oBjHjIAHl1Vyv5YXNWDWuAN4cKXSA7ZcXCgdM0Vk0NpY7F+b4gFbLa2Thi6HXY5RkYMNjfRzbJcObR0tlv/PZLaxusfA7t+ZB3zAFsqabkhOn4Io4urFLFDUVw7b0Fhox6SvNuJWynO4rG7ZKr96Uo2ti87hzpUcAVsVLKCiq6gKkFSLDitePy/G0tnBmPLNAUz/br9kBuLpBdO+2Y8VAYGwdDnVs5JiUTG5gA9T2Q3bYO5wYHXAfiyfFI+530UgYHwM5v0YjsO7kjHQzoMeC7FkWjA2zIvE0V1JCN4Yj6nfBOHx9QaRjJluzjVsRX3pAHasiMe91Bcena0Y0OwuPM3Ix9p5kSh/3SN6Xlkw5FwqZWSjZFtZ0iRAfje5WE6xdRqLC8F2aNCOHStPyaGGzOsq7Zf4cqpH6H9rFz1vT2+fGN/EVc3HQDUGtmPg9inm8ViZv4+vPjPYEjB4nIw6HqbprR0/f7UJq+ceQXZaFV48qkRoYBLWz49EYU6d5IVVUhrBhVItVQrKx7S5sRO3r7xAyplsXI7TH/7/HGnXnsBunLSpUioaYEvplifiEnBNLoTsjMWE/wzEnuW3sWvZDUz8r22IP54Ke68b52OuYsWsoyi404iuGieep1Zj+jcHcPtcpSSCZsLu9oYhvHzQhi2LEnAlLht1pYPo7eIx63YxVmVnFmLVrAi8TG/BYJsD1cUdyHtRi96eQZE+aSBrbezFosmHkRSRJck3dB/patbe0ofVcw8jNiRLVBQeiVWkaisGe21Iu/Ic11Luoqur13BDUXTihNDGsrHJ8fsmxxjdxuj2R/LAnwC2BFyqEexoKrRjytdbMX9CBBb/HI1FkyKxcMphJJ/JQH+XsrwrA5kGDkZdqXyW1MMqH1h1RDHzW7pdkA9PExAXq9GkdOo03dyCu5F4+ia+/j+rcTu+GteiXmLK1xuQevEBXKZhpCY/wNLpR3Fs200c23EXS6aE46cv9mPzgkS8fVWNivwWHNp+BRvnxmPWt+FYOTUG2xddQHL8HdDti+WXFTaId0PQiguI3nsfmxadwY6V51Bd0QYn3dMcbgz0mbF96QWEbEsRtQG9EaR9LgcKXlUiYNIepCdVCXirRNQqqxFd0OrL+hC0OgGxJ6+LWkXlVlCL0R/JJGNljYHOGA/86zzgA7bD6rC/0QDKZ2v6RxCd2fJ5bDfB9pdvNuNSdDaSIjIRFXYdGTfz0dUyIJnXaQRiA8WJ3/As4P/qQwmO7mHMJzDyowBZS3jGc54+0GBG45IbeTkl2LnhJOpKzCh72YAj++NR8KZM9KB0BYsMTcXSGaFYMuMggrclYe+GBOzfEo83uUUSWntgRxy2rYhA0Oo47FwVg63LTiIh9ooKuXVYMdAzhJTTWVg1NxRLpgdjy8rjuJ6Uhb6eIZUf1WETiTUh/AWWzQyWwxxdbCePY7bakRKfgQVTg1Ce22pIrUawh8MGt9OJ3CelCN6ahDfZlSrKTBYi0se/z/86o/wR4z5Wxtg4/DvzwGcFW+3Mb3MqI1VrsR1Tv92AotxqWIbs6O8dUC5OlPp+Q5pF7b/rf/3QwIqPq8mMhoYW2Kw0RlnR2tqOoSEVakt/3LbGHrx5XoaC3Aq01feKL25TfRtMAzwLyybnZNXXtqLB82lDV2evSLUu5xBcDjN624dQ9KYSb7LKUVvRLGc30bDF8GRK+E6HHfmPGjB/UiBSLzyEy8oENGZ0N1oRuCYGuzefRncL8y6oY15UH+0C6HevZyEpMh097UMGGI9N5g+N+dhvY/zxZ/LAZwVb0Z/yCBYHD2u0I+taG6Z+tRuXT79EYxnzuarTEsSDwNDRal3t77u+n7lUXgb+TkmXUWRUVRjZu0QytMFmt8DOM4+kLUYCZH7XqgzPgXx05VK/c0GRzF1GPgXR3zLiTc6jUmdSqbqoTlGeA51NvQjaEo7gQB6Z7cQwnHKM9Yq5B3D7ymN16CHBlodlytUOm9WOtwXlKHtbKye0jkmz7x/rP3OCjdU9Ni6aBz4v2NK45TZJ2sCykioE/HgY3/3frfjx75twYGsihoaG4HQ7jXDYT7sVpvFIJZZhVJoVVjmZVvm/0r1KJEhDv6sPm7Q6mBWeByqq7Tzft7qscsaX1clyGMbrTRRDkFbpFHmml3HulcMiwG5zsp8qIY3N5EDRq1o8Ty+AfYjHd9jRXjeEJ7fK0NHUJz7DEpRBsOUhhjwOhF4dNjusVkbKMbz509JLM8zYdQw8xnjg9/HAZwNbSnyUbOmJQEDt6urGlcSHOB+ThvOnb+NJRr7kJhAQNCS+TzmoYqkXx3+6YfHjNFyrjKgzkXKZf1YdDaLcqgholITV8SfatYrGON5jIIKWjnXbxWglkrF6V4OihA/LfWPg7A5xHWMZBFsm53HYnLDb7Sqnrec4HFUOFwMCu/jVjgHtmBrFY5P4fUCg+XXs+uno5wFbl5tnsjskxaGS3LTl/4+4MlyWQQV6K87/1aFvlNCYiIYfghbBSI7eNvK08v9P9hFA1Z4OBEp+VwYm8emV0xQIrOpDlYB8KJVqtYNc1e/sk39blYeAVj2ovlDNIJKqoZLQagmVEYyDzed9JWS2i3UqCVbVoQyFor74lDQaK/udMfUf47H/P+Ec/V/Ef1RL2uzmT3y6rqRUdHkOVNTMqUDdDNmeGzlaubKqNIWfboUZsXpryXUUyUAb3FQaQ7bfWBBE8qZk+W4b9Tv6Ks84jJNdR2Ec3V/R9Up5yrVLJGTf88j82yltUSc/jNaOsXvvjs0YTcZo8mfygEeyZZw/JbgRRxqPAia/u7HG1pvvi4Tr49KlDEVe8PICz0cwh2HMUkYsr+QoRioDvPRvI9tubOuNs8BG/qbq1YCpjGkqT66KgtMSuqFWGFGPVw1htVrQ2dqDgd5B9Pf0o6e7Fza7lgK8Lmyqv7osH/WAR/2gDo30Sr5G/l0jcGG0tn/cPV0nr+yz7//+3z9iLP5IfvFti98Yq3Z+qD2koe4T+U3T3LdP+n3fe/od/3v6vn7He2XZ79JO/+5bjr7Hq+99/b7v7/7P6N9839P3fK/699Hu6d/01feZf/37u3RQY+DZDRpjwL77jof3Pd826DbaxC7R1NCKmopWdLeb5drR1g+HhL77vvNHfFf16vb5ttWXnz5ubr3bns8Htsax4Eof6XtOPQ0+aiuvO8H/9Xd9VVt8n/uSXEYl+ebWn8YpBeLa8m/knPU5rpt1K7DkkTVWUZnoqCxdj69U7QVbQ6/rMoMJaJTRi3Uq7wV51zhlgveo33XZXairasLl2HTUFrbhwc1cPH9coEJ6OUH1iRQ0mBknQOhyedVGOv9B9qeVbjevXj30SHqyT6MvYP7HPhtStRgyST+f/LnGjkPKkVy6nzafraa9XIVGygCpT/LwnaRsk4ytZ0Kb4XCYZFILXeS+zhpnUUZG0bPzhGOOrWEQFT24Crph5jV1TDbpwEnow3s+33U7NA/6T1DdD/2+msiqPhpV+dG/ScIkfZiox9/dt27bO8KQ71zx1CXjo+wKbA/vk99kJykuhxQWVO5n/7p9+d/zm09/fe/51q0BSnndmCVzHemn7Bla/aX6reepfkeXqQ5FVSdrK1dHG+x9ToQFxWNjQCzuJNTL9Wr8SwkIon1Dv/tbr3z33fcN/hdffjVHNd1IQ1F5GjYVz3wydu167n2oHZ8VbNXAs0NM/m0QVQbfOMHAYDQ2XDG4XuH8GV0xIIGTlnh+HKJPVaumh+l8gFbd876ndKJkOgXAikiqbbpuTzmS0JsnO9jlo5+VdIaeiapUBQqMHDANWnA54T5O7LmENxl1CN9zDblPS+F0DCsQELWJ1gEbLmfa4PUhsPWXZg2asU2qL96rHvgPga3ui76yz3YnFxVfAFLjIPpnYzHRZX/01aedH/OOpj2vHCtxoZOjiOwS8KJATo2nXpjUM7Q72OG0Kz258JzwmrIbKImIHh9uyTts5TgYIKvHXe2KjLJ9+OpD7dbtk6T2olvXPKsWTr7LNtuoi6fRk3zLxV90/r6Lo6pX91/aJLRTQOC9r+YIhQXVbjWfhF583qC3ep5AS+GCiy4XSbVQKhoa7TSAywMi7wFYoYFRti89yHs2qsvoQ264P3JeWiw21FS3oKWuE3abCrfX7fV9n/cU/6p+ilcP84T0ObF19WH88s12XDlVhJk/7MaZo3fhdLrBkPaRZWia/8pV08fTD0VDoZ3wghKYFEZxjLggMvGUNy/2iHrlBBYu0h+u97OCrYdRpLMuT2QYVzQbD0j0kZg8zxpSxciVyJAueaSNzYmaikZUlTTAbFbGLUUIL3P6/v/OQEudRgpGP3D2PGt2o76mGaVv61Bf3YahQSb3Vi5qAkySFMaJmqo6dHV2wO1yoLutH9tXn8TmBWeRePQllk2NQtqlVyLZKn9iLjAM3jCO4ZGjeNTE/JBk6z/IvjQb8ZvPZCHz+3/0s0qa0EzrpRnDqXlihkwcY/HzjsmHmYpl8z3PxDXGWwOArvtDV77rrduOjuZ+vM4tRlVZHXjkkJLwFTBJvgy3RbKwmUwW5OcUy+SWNnASM4uag7kmulDwsgIvs0rRVNcCp80p9gIBW4P3pI92J7rae1H4phTlb+tgsfx6CDSDZDo7elBf1wSnTZ0UIgZNn10bgZaS9EC3BcV5lch/UwSbxe05idmXvp7vPnOF90bSTAOTAdC+NPeMP0HCIsctVZc1oaK0FlYT3yOAcFFVwKxA+MPjqmhOFZayv/iOj5woTX91kxvFhZXIf1Ui/ezu7seZyCtIirqDwR6zhKJ75hXB0gOYXt7TfWdIusvsQtKZe1g7Lxz5j5sRuOosbl14CZ7G8jFtHkkvQ/3G9nvowz57dwxq7tnFC6iyshZ9PSZZIMkjul36XV9wlYXivwvYKsKMZA4ClWw1hCHVqsdOccXVHeMzKpkMmUNJIXyGHgsss6+vHycOJeDI3nPoaO3xIaJRHhmNmb8kbaF+nwS2wuV2oLnWiqxHxRLyy/KkfkPClDY7nMi8WYKty05g+ewQbFp2HDevPoDTRuMU22YWUOhqcGDf5hg8uPdEPCu62vuwYXkwlkwPQ+SBDMz6cS+Sz96Xlb6lZgj3r73CzaR83EwsRMa1UpS+7IZ5wKkkdBrgjHZ7r4aOV0sl8rvSHetntISnJqXxmzAJ1QGUbjgpDUA3/ILJXIrmZCb1nNPqkKi3ipIa2KwKrDhOCjy9Y6OZ7t0r6yGtFUhxPEWCM7b5IySqEUyvxkWPl2wlmY5z2IVL8c8RMHUnIkITYB9QGd0kd7BI9Io33MNuNDW2YOnsHbie9FjOteMY23msvMmJK+dvY/msECycFIZLCfcl2bviLQaM6NSXFhnbW1czsHzOHhzZdRl9vfSRfj8QURBorR3E6WNXEbzzNJ7dL4HbzR0MF2QCrKKxSsDkQE5mNVYFHMS6pftg6uQ5fGpcPDsHqYt0ViDKtjEpvR5ntplj7KUjx1RJXzKW5A1jLAmofHag24GTYckI3ReNttYuI6CGAUYcdwfa6rvw8nkh+vsGjLrUe+y33aHmoNTvUXuotql5ShWPWfrRXGPB8oBd2LgkHFWF/RgcMiE28joCV8WjuqRD0dmY30JT8oTMcXWgqe8clzlrc+FszFXcuJCFmpJWHA9ORkNVL5gdzwPaHxib940b+yJtlv4o2rE+WZjdTvR29yFsTzxuX8yXOasWBVWn3kEKbYyxFT6SHakxZqO06fNIttRhGquJGhy1SuhJxQ663HY43Aq81ORUz8iEY5YumewMWVWT3yr+ug4M9A8i8fQdxB/PQE/noEwKxYQqHSO3w5LYxc1tviKmWpF4zpgLGdcqsXH5UTkLjZNal6/a5EJzUxvWzj2JjQFxCN18GzuWn8PlxHQ4LA5pL9vHgyofXivF3Al78DyzQMJ1zf02PLqTj/TLb1H4pAl3LhagpKBJ3Osyrr5FwE9BmPXdYUz/5hBmfBeC1bMjkHbtqYAC28APJ6Fz2A7HsKGTloE1zjkjTSTAwQIHpTo3wZS6SqWb45VAQ7o6jYAKoSvLIB3cDDBR2deExqJDtgiNrP0OnAxNwtlTKTL52BYBConwo9rGGBsfhlJjptQ4nAQ6EMT3vu93PQl87/G7LBgcK6GBFU436WtH7u0aBEzaj8A1x2DvtcM1rNqvx5JtGh52o6O1C7vWxyAj9a2RstKhJEeTE8/uvZHjk5g4KPqISsju2xfhR7cZLocTuVlFWDnrCHYsSUJf9/vBlgsypaybSc+ReOIxMq+8wcEtCejrGQQTItGWIPYEg+bDww7U53dh+/IY/PLdWlhanBjmGDE/sa9kargHKpowWx3HmfOEKjhj/pBeMq8UbyuwUHThd0q0CmxtMHU7kRSTjriIa+hs7VUnPHMhsJtFwn92rxB7tx1DTXWDUQfzdxiStMMEB8vS9QvQq9/Ybrcs/CZJm9rXbMOezXGYPX4/Sl8MgS6lWfdLsGl+HB6l5cFhp0ChF2zDvsJ57zIJ75HnhT+Nueowu5B5PwfdrQNorO5GzrO3KmKS9HhH0n//gujlN+peDUFM+qP+dxipTWXeM5f0oFXyoWxZHI+erkFZPD1l+OxW1OLGxZSJs/SxVaO34/OAraFXYsMk3NROvZpLzvNyDLpgH3JhoMUhOWa5tZNVxO6Ek7lfh1xwDLjg4n3jOaZHlGfo9D/oRFfjADobBmGzqFVFjGD0GTbxHaccDz7U6oClh/WqAxeddheGh4dx83Q1lk8Lx0CjDc5BN5wWlzzj4Em/NjfeZDUgYEIICtMa0dlgQVNlL7o7mSjHKUYAMg6BNWxHMrYsjEV7c6/4FNOnzmq2wTrkgN3igJXtsChddWtVDw5si8eM8UFIjS/BlXPZ2LrqJDYuOomqwh61RbK6YGp3oLvODkun8kl2UNVC1YPdpehicsFpdcLe54CphfkSnDJxxG/Z4YK5xYn+JieckoXM0JEz4szsEtrY+hzoqbcr+upTjnkQZ4cTR7amIPLgXXQ3DIFjJIuLsX1UEsXIFVyDpuwGqEbgeHF8PFKaMXGNraNWC2mdu1xptLC6MNDqQF+9HbYeB9wOl0TQmfvtOLQ7EbtWxcHc6MRQs13GltnV9OR12VywDTjQXNmNvlZKd5QsKdkqNYl50IzOajM2LTqBmGOpctqHSDiy83EKEJi7Vd39rVacCr2FoNXn0dv9/twTYmSxu3Hq8GUUZzXBMejGvs2nUVvVCpfbpY6vd/AkZpeci9dXZ4e104VHVyowfcI6mFt5ph11tgQPY5IaW2u101L2DO6kbH1O9NbaYe9xSnmcQwQz4dlBlxhlaZglzztMThkDzieh0aAbnXUD6Gzph53zQqRfSpMuOM1uZCYXYtOiKFS8aYdzSPGHw26cgu1Q9ZlbHOhrdAjvMZeyLE4ca7dL6uuut8Pa5kTp80YsmByGkhcDEnreVNWPvesTEX3oMnrbB0Ri57tsv5vjN+iUj6XbIWNvkx2eWngddhvMQ0bEptUGi0VL9OSnkTzooZ+mo75qesoiofT1TMEqOGJyYbDZgaF2h6KXwSscr4fXyjFn/B68fFpuRHFSVWXwseiYqX9X77k4FnaXz27jXcD9bGBLCYKrBsNNKeVmZ71G4LrjCA08izPH0rA6IBjbVxzHg9uvYLGqUwyyn7/C3m1R2LflNApfNOLQnjisXxiGtEvZsNpsqCprxvHgC9i8Mgwng5PR3tItDMv0hZ2dvTi6LwEHd5xB+L5LWB1wEMHb41BWVCcE4SBfv3wHy6ecwoyvD2DbsihsW3kcJw8lor66XSSGu9deYf3C45j25W7sWHAO29ccQ8yxq+gfGFRhxS4yqx015Y1YNScUieGvYOEg0sJNFQMZ2pAgKRVwi0Q6EIguxmVi8fSDMsgWkwOvnpZh08LTeHijCF0dPbiS8ABblp/A0hn7sX1lJIrflsvqarO7UFxYg31bYxC66wwe3MxBzKHrWDv/EK4m34HFbIXNbMeFc9exJuAIVs8PxblTN0TnyRODC15V4UBgNE4GX0ZYYCKWTt+Lk8EX0d7eLidHtLd14tyJO5g3PgwLJoVh27IYbFpxBLEnbxm6Oq3fHclMGmy5O2horMfR4HjkPi8zLL5KJyaTQaRjpsdUH+q+dYCLyWTCwzs52LYiEitnB+PApnhEH0tEYw2NK06cCEnGwklHcGDjRayeF4aowxfRUNcsY8BDRJ/cL8COdYexY/VRXD+fCYfbbUQGcnG2SaY5W5cTW5Yd9oKtjA+lQBfKixsQFngeK+cE4/DOi9i2PAY7V8V/EGy58DmdwIUzd3H2eBqy7pYhcO1xcHGw8URl2V47UFfbhMjQFKyaFYK96+NxPOgmZkxYB2s7wVapMBR9CHBKJ8r/uWBQcs570YBta45g5ewwhGyPQ8HrYjndpLe3FwmnUrF9dTjORCSjp92MY/uTsH3NYSSf44IyjOrKOpwIPY9tK07geNhZtDVxO0/1mgk8qunB3Rysnh6Bmd/txaaFEdi28pio5WqqmiUVqMvuxpXkNKwNOIpV80Jx5thltNR2q52Xy4Gurh7En7yFlXMOYvPSE4g7ko6FUw6hJGcA7mE7LH1WJBxLw9YVh1FZVKvUFNxVudyiF9+1PgLH9iUjZOd5rArYj7iTt9HR3Cs7Gu5q9HziHBIcoZFRA+mvXbW9wEhsxYXh2fM32LUxAiGBZxF37A5Wzj2ILcvDkXEzF1YreYH2Cic6yixYMvkAoo+kyILFnYLegbBNxLP+bhsuJd7HzWvpMA1Ssh05L3z//4xga6xUoit14fqVNEz7Zh9+/nsQfvz7eiyYFII5E/Zg7k+78PB6rpx4e/PGXQT8dABT/rEPC386gp//vl1+Xzl3H+prG5GfW4F1C4Mx/os1WDkzCg3VHWKl5IA01bdg7cwYjP/LBkz55zYs/DkMU78OxOGgRHS0dAujHjsShSlfHsSkf+zFjB8CMX3cFmxcHoqivFrYbRacO5GGWeMC8cs/dmHudyGYPn4jtq4KR2dnp5ogTIXotOPJ/TwsmroTr+8y1SG3FNx2UlLhh/1WH0ovlO65Al46m46l0/fBJlLKMIpz67BubgTuX83D24ISrFlwALMn7MK6eacx7du9WLcoDPYeuqzZ5NTdeRODMeVLqiKOYurXQZj23TbMmbwB7XXdSDrxBj/8dT3mTQzCgkkHMemrIMQeS8fQgB1Z98ow96dAjP/rJvzy5W4sn3YEv3y9GbEnrsJlGUZdbT32b43DlH/uwS9fB2L2+D2Y8v0G7FgTbbjxqJ0B+0Q6k5ko3WmwHXa78TD9Of7x/wUgOixVgEKekWfflUT4no0eAWYbXtwpwpyfdmL6D4FYNj0ck7/ahh/+thIv0ppk63g8OBHf/79tmPr1XiyYtBfTvt+CC1GZsPTZ5Jj5lLh0TB+/GhP/vgnHdt2QM+IIXFQ1qDBxK6ydTmxeGobT4ZdhHbLD6lbb/MaKDuxaexo//dcWLJgUiqnfbMcP/7kegcuS0dej9NXsr0x2AUHVf5lALic668w4vCsRq2dH4eLJt4g/no4DO8+gubkdPS1OHN99G5O+3IQFUw5i2o6rodMAACAASURBVLf7MeGLQMwYtx6WVqeAlpYSvXRV21LuoErymjDj+/2Y8s1uLJ95CJO+2oyNC2JQXdiH9tZ2BK07g+/+73psCIhCV9kg5o8/hh/+sgHBuyJg6XMj73UB1i0KxcS/b8eyWQdQXdKkcnW4hkRSTDhzXXhhyj93YtZ3uzD9+01YMXc/ivPqZIFPjSsWWsz+aRcW/RKCX77chZP7rqOfBq8eF2IP3cBE9m1yCOZOCMX4/9woaoSy3CG4hxXNnmW+wcq5B/D0agEcFiWMcMF9+jAX077ch5/+tg3Tv9uJBT+HyjFVN5KewzKkPEoUn5HXvHNpBIjJeLzrhSO7X9lJGRKnqNZcuJ56BzO/C8XEL/ZhwhcbEDAxGHMn7MWcH3ch/Uou7Gaqr8yyEwlcewIblx5Wuzux0XDOs09K5VZf1ouF03ZhyewtaGvs/O8AttoyrQjvtHNbMoyrURX46W+BiD/yELY2F+oKu7F7TTz2ro9FS20/4B5GwQMzZlO3+fUe5Nzske1+6cseGQhuf+xdLlyJycHWxUmoq+7AsBtKd2l14vnFGsybEIybsS9hbXIhJeoxNi89jPK3tbItYBtSTlRhxdRTaC+2w9zkhLnTBYeZE8kixH5+swYLfwxFXWYfLM1OUDKSraOsbCY5muZqYgaWz9yNsux6ZUwQEFZ99WUK0d8Z26fLCRkImBiIV/fb8SjtLTYsDcOaOeGoKlCHQ3ZW2dBebEJXxSDuJ9Zj8jdr0FVN/aBD2vfmYS2W/hKBuT+cQEZSJXrK7Sh/3Y7a4kEB4YjdDzDYYkNnrRXnDr3A6vmH8SqnEM5+N8KDkhHwUxhKH/ZiqMOGiL1p2LwsVPpO1UpfnQOh668icm8G2oqHMNik+q2Z19dQpsCWzKxcm+TE4LYBXIzORsWbAc+JwWrCaLD1ThrReTmsaG8eROi2FGxeHInK111w9Ljw5EYVZo3fiezbCmyPHTyPeROO4vX9HvQ1OhF1MA3B266gtX5Q6eH6HLB1usBk7Ud2XBM1EVUvGmyp27Z0OrBpSShiwi8psKWhxOLA/ZQ8zPs5EHeT8oUXn6dVY8HEEKWz7eER817XKu2iRJ2hjvQb6Dbj9eNGhGy+jZUzo3FoVzKKctpht7nx5F4hlk07isuncjDY6kTtSxuWT4/B9HHrRdVDPawCW63LJLAQ4C2i7gncdAQLJ4Wj+bUFpk4bcu9WY82saCRGp4tqqr3cgZ3LzmPRpEO4HFWEmd+EImTjTfR3cIvrFu8Na5cLV6NzsGV5BKqLGkWqdbgG5dBRa78L92LfYvP8WBQ/aoOp0Qlzq0OOqmqobcHscfvlhGnyU0+jDdcj87FiViiyMnNR8LwRy6aH4HTYQ/Q2WmGqcmDzwnhM/y4IpTmDcA8rHXN7cx+C1p1C5L676O0wSX/pwTHUb0dk4DMs/yUC+Y9b0FvtxOHN1xC+LxGd7T0eYFNAq6VGL/+Q/9QYaPdJn98MlRX5lou6KsMpi/D1U7X48W/7EHc4E7ZWFxre9mDPuvMIWhuHlupeuIbNcNmdiD58BXN+3gJrO3ccJsOopsDWSQN/jw13Lr5E+o1XMPV9WOL+TJKt8kGTCChKGg4raDm+ea4EM37YidaWDvCP28m0q8+xZfE5FOY0iL6nNLcfM8cH4ublTFBq4oRh4nGlRFcHR95MfiYGB7pl8dBIbo/sVhseXa3E6oWhqK1qlITgd248xpaVR1DyukYGcRhu3DhbjqUzQ9A/wFWYUgYdsk2iBuDW9NWzQsydtAltJf0YHqYhSq1sVIhTVeCw2nEx9i5Wzt2PyjcN6lBJMUxoxvBeKV1RkqKu6lrSA0z+r92Y+MUeTPhiC+ZP2o+7qZkiXfL0hvspBdi+KB4rJkdi+eQoTPl2I1pLbXANm2B3DiH/dRnWLg7FheiHMPexXWRsJzLTczDpb3sQvOYeju++j+NBD7B75S0E/Lwfd688haPPjUN7zmD/zlPiC8xtZEpSGtYvPIS+FpZvgaXLhiM7EhF9JBm93f2GIXBIaCYA42MgEHcuGVMFtmRs6hFpfCT9lPP8yAAIJRkoCz3Blrr5mrJWbFsSj8vxmfIujV29fb1IOncR9ZUthmR7XrbLzgG3WIgTTt1B8JaraK4ekIlEfRrf27MhAaGBF0aALbfNboJtl0MWlujwKwK2HJOBHitiQ55i17podHb0yns2mx1huy4gcGWCx0Cm260WUMWDTKpEd7O4qBtYvywMh7bdRcimW7id/BIDXWZYTDYkx2YgaFUyaoo7hb9Il7PRqZg2fh1MLaQXAyuU9V8tSkofSqOnudmBpVN3YcW0M4jck43woLs4tPUOlk2KRtiOJHS0d8vcKS2pwerp5zHhr2GiYumpVa575GWrm4ZjG25efojNKw95wNbmGlDqLosdj67kY9OyMFSW1oik7XAPweVy4PmjPPzy1UHsW3UPJ/fex4nd6Ti47jYCJobgSvwD3Dybjc0Lo1FZXIfhYbuoojLvv8TMCbtRnNMP9zBBisnuXbgY+xgbFsSgqrTZ0IGaMDRgQcS+ewjZcQ52nj496EZ06EUc3huL9qZuEXqUoc87j9gX0kkvdAoLvJLvyHFS7+mdFxcxqrpunivC9O92oKW5CxjmaS9O3L+Wja0LYlHwvF5oQD1sQvQtTB23ARYuPsY4qfE3+N1pFywbBiNwfdv47ncv2BquKp8sXFc3RJTVCmyvx73FzHFBaKnvFTDk8d9pl19i29KzKMipF7AtedGP+ZNCUFPcJQMkAGdsx2lxpQX35oVsbF8Wi7oqBbZiFbQ6kHmtEmsXHkJtVbOUfzf1CbauPIrSN7VitSdzXI8rxdIZIejvpTWU4EAwU+5i3ObkPi1CwOTtaC3uV1sLkVq5SlIHbZEk3pfO3pNtV8VLgi09B0bX3QjYGpLtFUq2Ew7hUkQBrsXn4e3zLjF20diRfvMpFk4JxOoZh7F7xTmsnhGFyd9sRkeZAkMCR35uGXasicLDm69F5WF3DYqhIuNOFn7+2y4s/PG4WO9Ju0WTj2PlnDA8uJEDW68bh3bHIWRXLIb6LOL3m3L+DjYuOooBAVurSE+Htp9H1KEU9HYNGC5uJnGKpxpDmFwbJ0QnpvTUIjnI+GpVg9I5yiKrx1+uSsrQblFcfCqLeapyPG5dzFXGH3H6d4hURvWG3ezAiYMXsHPVcTh63WJ8TIi6g9AtN9BUrQ1YysNk7/okhO68KBNfjkhiG51WuF02MbpRZ3sq/LqALQ//7Osy49T+BwjdcR6DfQya4EnPbkQG30LQqosG2Pp6YejxV5IM/XALXtagrdaEuENPcHhHKvZvOYMbyc8ETNjOkM2paK4eFOmI/b2Z8hzTxm00wJbpPt8FW07ugUYHFv6yEzO+DcbiSccQMGkfFkwKxpLJxxERfA1trZ0YdvLg0FZsnJeMqV+GY/OSKLRU0oVLuW1xzjCg4ebFTGxZGY7qIqoRyL9KwrRb7Hh4KR+blobJrk9J7CYBoKcZb/DLl/uw4KcILJi8TxZt6s3pqXHrwlNcOZ2FwOXxqC1rlYAG7hbzs2sx76eDItmqBZfeJU4UZLdgxaxw3L2eLXYF7h6H+i2I2peBQ4EXYDPbYB9wIzqEYHsW7U09yrvGmE9KOiWIabBVfsu8b7XalYuWnb8TiH0MjgbPKbBTYJsaX4SZ3+9Cc22/0M9uceHu5ZfYvjgOBdl14gXjsjkQd/IGZk/cCmsbg5qUV463HXaxJZj67WIrYWDVhwD3s4GtrwM0pRlKtjfiyzDur5twKuQ+Sl42IDujDLvWxOLgpgS01PTDbLbgZXoH5k08goKsOjkuZ6CfW3e3WDSpkO7u6EdKTBa2LjyLvJxqdLXxtAcrSLz0xBKsmXcI5W8b4LYO4/blp+In+za7Fk67SVbi2+eqsPiXEHTWm2Dus6OhshVVpfUwD1pgHnDhUVoxAibuQ9nTDnF0J3PQYCF+mbRM2p24cz0LS2bswdvMGuWlQLA2fEp9iS8gTpcVk1O2gEumHkJLuQn9fYNioHEOWzHYbkPk7lRsX3oKFc9b0FNvQ2LkY0z5eicaXvGECwKNA8/SS7F1RQxuXshFR3MfBvvpsuRGwetyTPlyN+JDX6IkuwdlOd1487gdj++WoKGqDZZOF8K2J+LAlnj0t5mF6ZNi72BTwDH01Sndp6nLgUM7EnBsbwo66vsw1GdHRUkdqsvqxVtASV+G25EAmeHpQPcxl0uMl3XVzQJS/F+kX9nu0TeZ23r1oWeK9pduqOoS6S/i4DV0Ng3AMuhGf58FeS+KUfW2SfSy3JpvXx6BwRYXhvqsiAu/hwPrbshZbOw7XbTo37xnVQoObLiIztZ+pVekV4LNKe5YreX92LjwOCIO3ERr3QAGBgbEv/lS1AtsWBSOsrwWWAbcaKzqxM4V57Bj8WW0NfUpzxj2weMjSrBSYEbQoPvfQK8FO9cexVCrExW5bThxMAnmfgfSUnKwdVE8nmeUwTxoR3eLBUeCUjD9+23orKAPOBcDr2O98Axdt4ZtsPY6sXYxT3mOw9sHZpS/6sTb5x3IutOAgpwmmAZtaCjpwp618Vg29RgSw59izvhwHNp+B60NnbJTMg9Z5TSPK7GZ2LI0CnlZ9eju6IPdSjcsi3irPLqcjw2LjuBtTgMs/XY0VLehoqQeBTmNmPndfkTvfYbiFz0ozelE/uMOPLlbgZryZjy+WYJ1cyPxKO0NTL12DHU7kBT1EHO+P4DCzD45sVs8Ulxm9LfbEbT+NEJ3nUVfB1U/LvR1DeH4zocI3nIRg/0WWHvdiDxwBaGB59FS1wMnt/8SwWVIksJPykgrKijmoh5ySqDKs8w82Ibo6mcdGQatF3gj2RWx5/bZckz460ZEH7wt2PPiQTl2UYW57hxaqmj8M8Ex5MCRPeexdPZe2Lrp201+9Qa4cAFpqOhEakIWSgtqRfDyne/+371gK4loHO/EXvu/8Hv/Hwm2ylE9Nb4YE77YhFnjg7By9lEsnX4Qy2bvw8MbuTD3uHDnxiPsWHkWP/8zCDtXxiB0exJSEm9JlIrZbMLDuzkI25WINXNPYtYPBxG4OkYsmlVltWht6MXOZYmY8u0mJMTclJX+xIFkTPl2HVKiMzHUPwQMO5BzrxVTvyfg38GFyEzsWhuFo/tiUV3RgLuXX2Pr8ihM+udW7Fl9SU7jTb3wRCy4DHnk9oWqj9fZZVgybS8eJJfAbiWQ0D3FYA4fiY5hf3TGLs1twIaFYfjlq50i8ZyOuISeDotMrsFuO06F3cC6AE6ch4g+cB8LJ4dg3F/X41hQmnhcPHtQiO0r4jFj3G5sWHgG+7fF4/L5DPT3DmGw34pdKxOwbNoRJB17itS4F4jYl4b9W2PxMqsQLzNqsGTqAcwYtxFPbhShu2UI65cdxOxxQci8USzbM9ugA2fCL4s0nHjsIc6dyMDq+WE4eeQsXFa6nxn6LwNohScM/14mNCovrcH21ceRfv01XMJXShrhcypiTbkzSV4COqe7bOjvtiDh5EMsmLIb4UHXcCk2G6eP3kXAtE24ev4JCp7WY9bEbZjzYxAeXitD/oty8cCYOz4UaZdz0drYjdgTtxAcmICACaEImBCMkB2JOB9zF+3tnaiv7kBc5DUc3HwBM7/fgyVTQxG69QrOnr4Ia78b+U8qsWLOXgStPYPk6CwEbzuPyV/twoxvgpEYf1vc99hvThi92IiLoSFFkQ+o/tmzKQp5T2vw8NobnDpyRQCtNK8J25afwpblJ5EU9QgR++6IMWjCF+twOvQBevsISl6dsJpj6mQOGlOvJWdg9rgDOBGUjhvxOUg49gj7NiQhJT5TtuQMvCB/0He3s9qExVMiMO5vGxF+8Bza6sx4nJ6HQ0EXsG5ehEhzu1ddQMiuGJQXtoqum25crx6UYNnMPTgaeAXJnAfrYrB3ayRqyzoQuvUSFk0OxrmjT5Aam4OYg/ewb3McnmTkoLlyQNQvaxccQWJEJs4dzcScCTsx8YutOLrzmniLOBhUQl9vqwMpNAzPDEJdYYcE/2RlvsH8n45i4S/ByEzPRXleGzYtPol5k7cj51G5qBboFyu8I37FVEsY4cY0Urnt6GpyYuPSMITsjRQhiQs456Cio5Y2FWhzsRQV5tliMaTOHr8Lq2YfwbIZIVg6cx/uX30B+xDd2awwtduxYeER7N16StwlCbT8KP63g2qGtMvPsSbgEF5nF4sb2Mg6dd3qOhJsGXwwisP6hwr42N98wVbp1lxIjSsUK+ClqCyEbL2K40HX8CQtD/39g7D0uXAu8irWzo3G+nkJ2DAnDutmReNkCCOI3BgYGMSVhMdYNzcG6+bGyzNrZ0dhzawTcmZYQ3k3ti5OxKq5JxETnorK132IPHgDK2aG4PzxLAz0mOF2WdHZaEbwjnNYPPEkFv98HJsWnMGN89lore/G2WMPsH7eKWyaF48Nc+KxZvYJxB5KF/0hJ5cG29bGPmxeGonju+5jqN/QJ/sn+hCpSKk9nt+rxObFx+Vk3vVz4hC0KRod9dS7qixHL5+VYufKOCz88SiW/xKFoOVXsW7eKfH5bCjvErXJqpnRWDcvHuvmnsOKmeGIOHAb3e0D4iVR9KIBQWtjsOTnk1g08TiWTYlC8JYLKH5VBQZUbFlyCktnBuNq/Gt01Axi47JD4nZ2M+mlcnK3O5GfU4o9a5OwZFIkFk06ge2LL+DR3VyRbCXowpgA3KrK2GqwdQ0jL7cM88bvx6WYHA/Yih5NnqXLl3pH9LlU3XBy2O2oKW2RHBJLp0Rj4cQTWDolEkHr4lD+pg2Pb9Vi2exQbFgQjauxucjOKMLWZVFYO/sMrsZnoba0A/s3XcSqOZHYNO8sNszleEXjcGAKGuqaBFgObE3AmtlR2BxwHuvnnsWaWWcQvCMSlm43+nsHkXrhKdbPi5Xt+rpZsQhceglrZ8fh8P6zsA36gSEnPCV0WXSVRwZ11XdS8rBv83kcCbqIl48qpK+mfise3nqNbUtjsWRyBFZOi8buFVewYd4Z7N+Qos6tE2mfAKF4RNQ1kmvAjd6ePpw7/BBLp4Zj4cSTWDjxGDbOPy11vX1VK4vGmlmxCN+fhO4mE/auuYI1syMQvO0cavMHkZr4DGvmncTaOaTLWayfHYflsw6i4HGLBCJQLdXW0InokOtC80U/n8CGeWeRfDoDfV2DqCpsxZ6NMVg8KQILfjohfaAESHuG0zKMF0/fImh1kry7ZNIx7F6egq3zz2LfuvMoKaiSSE+q3KimKyuqx+Kpe3H//FvZgqddz8KqWbHYuOg0bqQ8Qt6TeuxZm4hV8w4h63aZhBkrsFWA64s33CkSbEtedGPp1ENIv/lKfIgliGSUgAe92yTYpsbnY96EPbgclYXQrVdxjNhz+w36eqn/J9jaUZ7bjTk/7sbVpEeya2QgFcsmL7scDvHTPhN+C9EHM9DV9v7AF91mD9jSsOBrcZXJYQCv/q5f+r1XLfZTf0Rj1y0ap6YcESf6zkYbelu4xTZWA5sDLQ2dqChoR0V+Nyryu1CR34Gm2g4VKmu3o7NlABUFnSiX37rVswVtogfiAZLVRT0oy29FS303LP1ONFX3oKygCe31JqWMZ3SPxY7mul5kP6yUSJeqt50Y6nWKqoLbzMrCDqPuLpSzrDo1GKQBE9HI1epE3NH7WD7tKGrKWuBwKGd+5dDP/igdk5YI+zptqCxq8ZTL9HE2s9pKkiFMQzZUFLbgyd1CvMmqQ0PZEMoL2lFT0gWryYmu1kGU5XegLL9TaMM+NtcOqIxilL4sdjRW9yDnUSUy0wrw5lkdWmoH5CyznnYLKovaUZrfhM5mC6xDNlSWNKGysB2dLWQY1ScadqqLO/HkXimyH5ahvnRQ1Bfi6K4l2xFSuzJQ0FOjt2cAzx8UoaGyW6lbPJZglSryXf5RkWfc1nY0DuHVk1pk3ilE7uMqNNX0iaqjr8MhbS4vbENnk0mBQHE7yvM60dlsAn2V6yp6hE6KV7pQUdAhbbCYzTAN2FFXwXvtqCwgP3XLu/VVrUIvp8MhhrKSN63IyigWv+66kgFU5HWhobbDkFpIG59J7yvZGy5wgz1OZD8uRMHLSlgGmCDJJufYDfVbUVXUiWfpJch7Vof60gGU53egrqwHdgYP6K2uLt9QQ7FdpOlghwP52XXITCvE84xSVBd1SQiuacCCuvJelL/pRENNp+g9a4p7UZbXivrKdjnTrqulH6Sbdx51yTwY6mG9CuDtVgfaGvqRm1mNrPRSlOV1YrCXOkk7HDY7mmu7kZNZg4dpRTI+TVV9IkUy8QzfZT+ePyhHzqMKNJQRoLtQW9ol6i3uAhWGOGE2ObBnU4xY/S1WO7o7yctdqHjbgY7WXvFbJZ+XFTajr5PGZDUvRtDd4DuRUl1O3E7JRdCaODTVdss4cQepdpHKC4q4RvoyUQ4PSGAo9Y34EiyefBjmdic6G+3oabXCYVbJgfgsVZWJEY+xcHKo+PPTwMddKQFT7W4caGlsx4mwc8i6zxwXrEvPAW+9gqlGZOBIsDVAQYOr/1UxhAGGPhPtY+8L2Mox4i5YhuiSlIMFE8JQ9KYeAwzBZGON1cNDXJEgjK2DH3NLvf6/Sxy5Yl5G4Ph+fNvJgeL/vKpnVCy77zMj3jXq4fMiiUl4n6IF9XVFz7sQ8ONepF19LN4GI1dXL9jqenXZ3BJ5vhvt0c/otnn66UvzUfqt3/Ptw2j3dHmsV34fja5SlwsMovAt72O/s1zfz8e+p2nBd/V3z7u+fWb7/Ggnz/k8o9/X7dDbT7nq5/xoruviO77Pyf++9P/Ad/969bu8r7972vqe+nU7RruyHLaNqir+rv9X94x26/v+7eS7Pvd820NQdzqH4XCpRDrynOhLjTBwJ+cIdfBKD6/wgaoxfqgaYmQaQYk8o77LswK2nG8Ocbt6nFaKyNAbokdXZRllenaD1Mka7/u01bfd0m8+Y3Mi5uhVXD6TLfprzjsdsq53UHpXTbUVDaZmkxXxh3MQ8OMhFL6qEexxDjPSUIWxsy+MGtyyLALhO9MwNMDdhjquSu84GPFIsH2cnitCodCCdKDu3di5+V9VpkELT2pgBiq9Aim91B8PtsrKT3C6ce0epnwZiHF/2YzZP24BnZgZSaNWB7VCkBF+68dmV+F8vkykv/uXxQHz/mZ8N7bD7LseNH31rmpawvHq7ywDTlxJvIu810Wi+OfA0mqvGEQ///H90Yz1vja/777uk//v3n7y1GAd8qj6zN94T9epr+odnYtU9+X3L7a63A9ddbv5jICIMdn0ff+rb1nv+83/vu//vu/zO3/TVwEQHx70f3a0/33L1t/1c77/+37X9ennRrt+6Hn9m/9Vl+N/X9NV39fPUcDx3lPf1T01FzT/6+cUz2jeHskXymbhvad4Ts3roUE7utoHlArGQ1/Ni7zaPUn2vW3zlqXviTHWasf9tCeoKmlVuwhJaqPcCvVz6sq6CZou3L7+ANO+3o1xf9mKGeM34vr5p+K/riRiBjQ4MTRoxrWU+xJQQu8R0kX8dZlp0JjbTNJkHuIumXOd9+l9w4WQC8W7H49kq09q8AdY3/9HNv7dzv/a79TbMHzV7XLhTW4pIvc+RmTQU0Tsv4XCrDbpsK7PI9n6rWyaGaTzfr+x/tF+f9+zvu1V73kBdjSw1W3jisUVzPcZGjLMJosYz5hrk5ZqHpHuW4fvd982+bb5ffff1zffMvV3XcZo5ep7+tkPlauf1Vffdz7Vd10Xr++rQz/zvt9/7f6Hyv61d3/td902/yvf0/d+rYyP/V2Xp68f+57vc3zX+79h+ZekRAoY+Zsqf+TcIO/7vuvbhtG+856eP7o+MZD6APxo7+lnR7vSbuJwuCW1quQFEXcvhsm/C7a6bs7TNzlliNrzFJG7nuHkvpvIy2wWH3W1mJAeLHdYvKFYro3eTQK26lgsDbZsk8YABbbKr3yEtC67ACW5SxkOC/5jeBhqC+Cnp9WNlEJHAbfRiDDaPaU3UaugaqwTNiZR4cfGpDPKis/VZ2SqufcD1mj1fPQ92Yr5x/mr9kkZ4i+q/velgZcO6jfNIDJQhhVUqUtU+KBqD1c+L/N+bBt12fp5/b8M2m8ci197R5et6+LVX5Lx/e1Tfh+tLZ+yvk9d9q/R/vfWr+n0r5Tv/64KQjGkshE8piQ7j8Q24jcNyJwTo3/XCYkoROn5pASqke/4t+dDtFGHrtJ2osBVXCuNEHnlC67BT/WHgGhlUnmqK/ywRwQoEaIMTDAOp5W5bCSvdxl9Vvhl5MbV/aVO2I8m/m33kWwhPnGaEKNd/V/+Lf9rJTXf0SuaEEtcpLhyqPySArYiESow8w7I+/7/nWDsAVtdrl85I8BWJaCgPyU/o/VbBkXcgPTAe9UIauB/O9iOVs/nvKf7qxYY0smPRmP//++jie/21398P/Sb/7N+/3uNxb5eHf8aT7FM8XUeMe/0POP88wdbdSo2DWVWZi3j79rgZRixVCi+aqOe03qXrcFWzWeCrdJdc15IW/z67D9fPhvY+lZM4FVbcUqxFricTLtGKz8jrxSYjQb2o93zLff3fHc6GX47utuGtz5tBFBgq1dB3/p0n7TrnAIow/Fdqxw8Otz/GaAltHExLyv7TSb+n9HusXb+zxgnzhlfIey3jpsG25HveSXnEfPU5YCcnGH4v2sgpkFNjGrC28a7houiLtfTTh/DoPzmA7beZ1U6VOqG/T80rtH+8x/U2bIBXoDxGsm0dKm3LfLSvzTxlDSpyuPhj2b5sG5BfwEltUKN1h7fe7qTv/2qCMvOi7Tqse56JV29EtntVKyrj6p7pEVX1y2D4qOGYdlqFfRdwX0NTr739QTR9f/W3/T7vOoyfu2e7+/e98TKTUs/F0JJI0kmMeglZSsPCrHWa72V70IiTEUdn49F3zhhQtNq7OpPIj4GfAAAIABJREFU+7H/fytPjC5NesH2HSCX3apBZwnN16kt9VzTPM5FwF/F6FUbEAOkraM+w7mhklX5XzWevAO2SvJUbgyDJiv6B9XEIUCKTpXgZDh1s2K9yoxcBYwGy5ZdidwCsARVhmo6h9E3aEFtYz9q63vQ1T0gPqqUDqVMcSMxnOb9wJ3t42RmeZ5Bkm3Ox7kqibTmsqB/0Im6hg709PGsIaYwVImKpUzDUGC2uNDVbUJHJ59n+Uw68aF6jEEzPBvo5dHXZ0ZP7yCsTKhtrHBCR481VvdDD7j6n/SUvhorr5acdZ9lG8Ww0REfRV+1xdKT2ChXj4UfPdWz6hkuumabA9V13SgobkGPHAtDbxXuPKwYMtvR2d2PISNZOzP1exiQ5bJ/droL2TBkcmBgiIso3/emYtTtH7vq8Rm7/m/nhRFgaxsh2XLiMZLCibgLhdh+MB0tbYbvo7GtFDcHQ4pSq4xX4tNArCRBNRlFgpTzjMySCIOhnKfj0/DzshuYvvIaEi8+UQci/v/svXdwHNmZJ1ixsXF7EXNxF3N/3F3M7d7GbcTs7OhWZjQtN93ypmVGGpluaaTRrDQ9krrpLUCCBEAAJECQIOg9mwRJECQIwoPw3jvCe+9NAYUqlM2szCr8Lr7vZaIKIMimWpCm2V2IyKgqZObL9773vV9+77OsSiDdJ+lONMmTFzol6xC/Oapk1U1L/E8seAIpHbiex8B2zh7W1m3FW1tPIiOnnl0+qAS2QuVlNEW7zaHgQeYUtobk4LdBmQiPq0JP74R4e21o9KJn08tCOxQXrFY3Eh8242pCEYwLy9rugZKD0LO057E/owA73zhE/31vaDqvj5XULVqCck5Urn8n9zr6rv3mBCd0j0476pd4jj+dBNgKtQ4l9Sgs7cc/7UzFl39+F4dj8jBvpHtIpeBAV88kok+lorJ2UJNeKXmPeEFSm2J3omDO6MK5dztx7U4VFpeswjdUyxvxYV9YgfE9b+19NM+tA1tdWtMWI4Xver0IPt4Dw6fCceUmpTkkp2XSc67VrQoHcP1+krTIu4BEatJ3OuGl1IRcC4syNFF9IwdHkYUfTYbhe8UwvHYT+w/fh8tJIrxoXwA1ZeOiYnKkV6WELXSO1A4CGAhwPFr6PHoOP4/A5DluV7wQPJRF3onKWjM+8douXLpexFVxqW96/yhlYVl1F/7jd+7C8I37MHzrHv6Xr19Dano1v4T8dcz64hJAqetqhSqmo3sZ3/xFIt7adRtTM2Z4PU6seIgGNB7K1kWhw6S7JpUKqSueZkaxc6BxET2JluJe/lSX4fEsQ+U2153zv47v02lEAKwDpG5oEEA+PCrhzd/cheH1+/jPb5bD8OlQ3Lw/AXgpE5QVdfXDeO17RxEUng7zMt1LKSm1MWuWYUlWkJnXC8PXEvCb/bmYM1LWNFFLi0vAr5HE10vmgd9rdyoBemxED33NvSyfT4HtqlS1qrNzoX/Yjb/97ln8/F8vcY0rMmb5jEp+kiRvUUWSEZLshIQjyp44HW5QeB7lyGRpTqWF68TI6CLuZyzgb75/A3tCHnBIqcdjZ+mS7ifpmlzDlq1UtpzAX4RA8vNpm+9VIUkKbDaSqkltQc/zSX/+gEKTQr/pPLmAUCLuhQU3Cou7MTy6yNVQCThIqiXAo0CPyLgS/IdvJiAlcwb55SakPx7GyLhRs3RSgUohgQvJ3geSwh1FZrXB3Uf9+ItvJeDcjSdwUD0wr8KVBajkOYUj2u0KZw/jFI+K6CNLn36gS7Sgg3YfdL8oNU45Syn02c3pAzmxOKcmFP/3cnkP7btWmpxeQsS4PhppErg+Xx4VDzPH8LHvXEfsxQ7UNLvxmR8n4ou/yGQ6E12mZyz47Z5EvPbT+2ju0KOH9N0E7VpcsNldiDn9GP/t62dQVL4ASaZyI/qz9Gt99HpZFkygn4E5e788wHjIBjItn+0qOJG+lLaeJBm5PfjJWwn43j9egJvAQpOiNnwo601VzeDlgslkRdLDOmwNSsbBiAeorBuF00UTRttayuTvYGnvm2+ewa6DyZynlKQn2spTpEtXrxVRsan49bZbOBZfhpS0GswvKFih0DrFjcYngwiPycBvdifjekIRFk0kJcosKQopd62rFoMMS4deVNe3I/JkAWLPFqK0vEkAKCX39rixvGzFg4xBfO6HCTB85QaCY3sQE5+BkqoxKF5A4goAJM1R+K6f5KG5m+hgS7re/ZFZ+PiPklFZT1EzXuSV9CDmdCruPmjCjTu1+O3uRJw8V4ShkRmOPBEvBKEvX6Wxpkt2yip6B+eQ8bgLqVkdSM3uRFoOfe9EXlEH5k0S2nuWkJrVhEeZHUjL7kJadiceZbWiuHIIc4uUw5R2JwR+QroVzxP0dMoeHI2vwud/moWGJ4ucmPro5RkYPh+H6VmaL/AL49rdVvz560m4kzIEN/GOZgDT6Wu1uRAek4Yv/uA0xsZE/S96ibHO3l/Pvk53vDrewP99togALT4UtFgFW1owLn+dLUs/BIg2rpn15q8v4bs/v8BF7Hi7qiX01ReHT7IT0ouserBgUnHgRBcMnwmH4RMhMHzqMP7f79xCQdksXFQJVjXD47FgamYJ33wzHrtCkkU0iMcMj9eFwVELvvmrLBg+EwfD30TC8KlD+NjXIlBcTUDhZUnzlTcewPA3oTB8/CAMnw7BO+G9wghFY2Ew2RhsKRFOUMgZGF6JZSDZH3qfk27Qi8TrlTA4OIav/fwmDJ8+AcMrZ2H43EUYPvZrbAlKY/86Ahc9vE+nge+TjIm0nXehf9CIH/zyMt78bRImqOyOy4pfbs+G4W8jYfjiuzD83UWNNiH44Vsp6Oglq6eXXySkUtD1qpShjFQNM3OLeHv3eRheCYbhM6EwfPYIDJ+N4OMvPvkrXLo7hK/+9Ab+10+8JehO5z8TBsPf7sf/8YUwJKU9gZMqF3sIzMWuRJf26VnLdi92hxXg739Xjr5BSkMpI73ACcMnD6Gj28h5W2nXUlq1gL/+wSOEnahkI6OQlIlfhJqCwDYsJgOvff8kRhlsyTuB9NO+fKA+egWkpQAtPvw8sAq2ygrgYmlW6BlpuyhcsuxcTvpn/3IR33rzNEdeCOvzWhATOkUimA9sC8v7YPjydfzw7SIUlBhxLXEO/9t37uM3uxMwNy+A1uM1M9h+66cEtg+5AJ3iXeJCcQ9SK2D40iUcOjmIqppFHIobwH/4QjRySiRMTMziVzsS8Gffz8T521MorTbiH/e2wPCFy6hrGuAk288DWwqpbe0y4ULCDAw/yMc7exM1sLUwIFhtbhSWmfB3vyyH4bv5OHtrBrceTKGxhXSPInn4Gs8FTfogqZhDeT2ka3ahqWUEr34vBvtDM9hQRqBZWbOEj/0wHYbPXsW3984ybYKPtcDw6llEnKqFi5N9iHSXOth6VAfrei1WCXceDeHNoBG8ETSKHwdN4CfBk/hx8BR+HVSBikYLTtyYxc92V/O5HwVN4MfB43hjXx/eiRhEfZsVMpVDXzWS0ZwJXTCBr8nixu/2ZeCNbRUYGXMCK04UlLtg+ORBPOmY55IipCbo6pPw9V/l4Dd772OWy1PrumQBtsvLLgQfeYjXvn8Co+OkyhDqGwL2NR4kAantQyG1BV4W7/2yWAe2Pn2nIB7pL61sFIuIzWQp7/BZSptH4W+0dSbAFVtR9idlHaMIErA7JByJK4bha6nYHmPC1ftmnEsw4wu/asJ/+copNDVNQlUWoapGTE0t4fU34rD7QBKXlyBpl/xa84sa8GdfjsNfvlmC7dFGJGcsoaCMXJG8qKrtw3/99nV8+p8bceqmGZcfmHHo9BIMX3yAQ8dyuBaVbkwTY9Et8MJfjiV21QmzxYXv/OwUfrv7LmTWKVugquQxIHLD7j78EKTioOt0f2CdsTbaEgsJnyTbZa4VVloxgFdeP4aY+Fw4nXZ4vEtwOdz48f+4gr96LQQmUol4ljE24cBPd1bje7+8hrHxJR4/BxWsGrHIQ8IJSfKyGsayLMNi8TuWZRDAyZIHDju5mrnEebqODwlWK0XOeNjljvpOwLdKG1atyGzw2nIgEz/ZVomhUQ1sKwhsQ9DUPsmGQaLPyLiEN97JxM/fvo6xCZPoLxso7XC7ZVy/Nw3DZyPxy7dvwrREYE6GRxqDn44/ALQBoP0I8cAq2KoruhpBGJeE5CMs2+SBcOpiKQyfCMOvgxq0zDYbgC0Tju5xwGpzYndoGgyfexeGz56H4eP7Yfh0NAyfv4J//8oBlJSNQlXMUFUTpqbMeP2nZ7Hn4APILtreks5WZp/WgyeHYfjKJRg+HcZqhF/+9iwmphSUlHbif//KaRi+QFv9ozD8971iq//5q/jNzuvs6fA8sBUeBzbQdvfbDLaJ7HYmrPtW1ktTeN7uQ8n42k9OwbxEhp9l9ojQwXajT3+wlVU7SsoJbI8iJj4fTid5ECzCZpXx9784h2+8eZXTzHm9C5wD9kB0Pb7x00voH5jmxOai/zogksQowWRaRlTsQ3zyW7H49Lfj8Devn8SnXo/DJ78dhy98Kwjp+VPYFpyOT30lGJ94/SQ+yccJfPKbR/H1N84gv7QPkiJyc64BW93VzelFUFQxXv/XCnT12oAVFx7m2GH4VCh6h0yrYDs+6cLPtmTiH/3AVoCpjcd07NIYDJ/Yid/uTmLQF94kBLbvLQEErgnQ6MPIA6tgu1HWLwIk8gxY8XjwP96+jle+G4/ZObKEU90k8uf06RR14rA05nHA4ZBwNL4Ahi/fx68ODSH+SiNOXmjGsTMdiDtfgeERkiBlyJILgyMWfPmnCdgSnA2bVYVEybfdK6itn0Ru4RjaOl3IKXFgR0gRDJ+Jxqkbk6ip78MnvnMe/9/PaxFxuhfxl6px/GIHDsf3Ij2nlUtor1Uj6JKcsIS7PV64ZDcHKnz95wl4a3caHHY9fytJYg62vm87mINX30zA7JwLTpfMQKWP9dmf4n7SY9Y1DuPv/j4aIVHZsNvIt9cEu03GT351AYYvnEN+yQLmFxwor53H3/5TKd54JwUzcxaRyN2vBAcbFKmyxIIFhyLu4i+/Eo2/+upx/PXXjuOvv3ocf/XVWHz8S3txL20Ev95xH3/9xWD8t68eXz3++qtR+Pz3TiIrv53pK3YkuirIRxvydjh9tRn//R9SUFA2CUn2YntkL/7dly/CtCxB8VIYooTeQQXffSsH/7IrCTOz5HpG6gHaCQk1wsycHW/tvI0v/SAOYxNCjUBGz4AKIQCkz143H27aPBdsqWS2W7FyrZ2f/sslfOefbnCyXg/5vLLTvNDP+m8NhfO8k7PPZxeOwPDNB/jnvXXILphGbuEMTl/txbH4IoxPmLFgknHrTi6OxD/B//W1C/jcTxIRf6UBBWW9MC15ERxyGZ/4eiTOXW9HUfk84i+3w/D5KERf6MTI2CJ+vu0RPvbDZFy+1Y/i8jncezSMoJhmpOW0gXSy7Her+QMLSV3oo0mvalxScedBGWIvdeA/feMCXvlRAs5ca0ZOURdMZhnzC/NIzuzB3/3kFv7sq+cRda4Dl24WoaVLVB8ghnk2cAiwJZ1tT98MvvPzc/jn7cmYmXVixbvMYPvTty7D8MlIGL6Tgt8dzMKX3riAf/+ls7h8d0AkaGadKoGheDkIA5QLbrcHS0sKRsfFMTahYGzczb/HJhXY7CqMCypGxuh/+qGArpucomguD2RKDq25xwnGp2eIBDqkqy+uNOHj376Cf9n9GNeTxvDnr0bjF3tq4OGcxyKevarBjE/8OAPBUYWwLPtc6nzeCDJCj+fh1b+PBfntksEzALYfbjD5qILoi477mWDLYMJlva1cmO3Nty7hO+T6JalY8VKZZDu7PNEiFdZs4aokvov/kcQWHFmMf/daHAxfuS+O197Faz+IRnf/FBpa3fi/P7Mbhi8lwfClRPH5+dP45+3pGBhREROXAsNXr8DwpXswfD0Vhldv4JtvnkZDq4Wz9mTm9+GzP7wOw2tXYfjaQz5vePU8TpzPZGDYSI1A0i75pT7plPGxL4dpz6VnJ8LwhfP4yb/eQ8+girrmHnz2jdswvHodhi/eEX34XDiOXxpk/1umzwYuTD4DGRmMJMwZrdh2MBWfezMZTa3LWFlxwW5X8aNfnYfh9XT87c+y8T9/8yZe+dEtnLxQhFmjm8soExjSM6g9AkAxoUICJRr7+9myq5vmb8uSJQdGCG8DMnqRXy4bPDXvA25XmzfKXMRJOTQdPO1kTCYJIRHpwlviy6n4z6+Fo7RmeVW1Iale3E3pxv/57SRcu9vNemBfmzRuF6tnwqNT8Or3YzE6QX0QOmcxDn08gc8APT46PLAObH2VGkiicpNBg0oQW1V84x9v4Qe/OMOSrdcjghr0cF2h+yNpTpdwdABWMDHlxI2kAWwNrcLvDpQi+lw3SmumYXM4MTWn4sadGpxLGMe5hAk+LtzqRkHpKMwWD9q7pnH70SRCTrTjrb1FCD3ZgtrGWZGg26PAalNRUjWLsLhmvLW/GHsjq3EtaRLjM6Q39jf2+UCKJC/a8s4ZVdy+34Tzt8ZwPmECFxLGceFmLx4XDmJxScX0nAn3M4ZwIWGYz527NYart5+gqd0Bz4qIlHu2ZKsHDUhwSQqu3unAX7x+B+8mdYPSStrsHnz/ny7gW/9agtYuNzIL7ah5IoxTBLJMd814tR5sxeIU5YMIWD1rAjh8JUEEWFN+Aq2kCYcDE+AJHbD+UuRSKly0UCTloJ0J6csHhiyIvdSDrWEtSMkagsNJ3hE29oiYX7Rjd1gmXvlRIqqbSOVBASU6jX1gGxGbjk9+9yLaewTgi5DegIEsALAfHYD1n+u1YMtRYzpQim0lhVheThiA4bNHsT8slXWhFIhAoOWfz9G/UVp4IpxWZjcpsoAvLStYsshwuShYQtSrVzyU0IXcqCiXrjhUFfB4AFU7RzWR7FTkcMkFh9PLAQsCYMjXlsKBycl+BYtmWUSRKaQ+8M/Yo4OAABkCSAGSXtCz+Nn0fO7DilaDicCUPC5E3+gZdN7N19MW/DkqBC2oQwcz6mPDEws+/0YStuxPxOy8GYsmL775syv47i/JUi9qG5FLGEnipPf0B/G1YCtyaLKPrxYWu/ocLQLMNz7fuP2v0dUSa+eLjJ2iUiyPjYxYHgU2pwdmK+UApVIfbqwQ2KpONLeO4dXvH8fv9qXBuChDYalVB3EBthS4cu1uEwyvXkboiRosmrUyKBvo+df3JfD7owlGH/Z5Xwu2HO7qW6QMml4Pwo4X4+s/jkVr54RmjRaArKfYe5pIuvSipdjT9I/CiOIrr6FLVWSUkRVxuBURckvuZSJwgCRmsSVm/9VVXaPQZdKzCUxIP0rtk1TGx6rV268vGkgymHH4q8ySJkmbPAb61L7TNfR/PcG5/l38FoBNngerY9dClVd/a5Ie9clkdiP+YhGOnkjCxLQJJy61w/C5SBg+exw/+E0qOroHeZvPL7BVdyy/ttc/h3/7j0t814GWx7fqYvX0db4++pIei13K+mcK2pNbH0uuWtKcltZBbN97Htm5T7TKsGT48oEtSdxEp+4+E3657RH2HE7ErHGJX44bGVX9+/Nh+S68Unz05F0f7fz8jg/LWAPj8M3z82ixDmz1RDICcEVeUw9GRhbQ3TXJEpe+oJ/X6PpzAkTIz1KzVmu+uc+Ssvzvp3vZq0CLBtOlNHGN/mIQLmp6Iprfq12tL6tJYFZ10D4JX3+m/qn3j8J09e/C91inn/5/AikyFkqYnzNjctoIi13B3phu/Pm3k2B4PRX/6QcZaGgZWDU+rbbnD7B/xO8cavyM9nXaC3qKxMfEMNZlF8bGZ2CxUEQY5arwRYURjUiFQQmZHS4Jo6MmDI/MccpGfmFpLmZ/6nH+qZ+3nq5CZy707/r3P3WfAs/T1+W/zec6sCU9pya1aqnyxOIhlYIw2Lw/sKU21yeH0SWu5w987X26dZ4kZl1VoAMuLXKtzaekzKef4WvX7z7WU+v92vjTRx8hyREDiyTBQmrxZ2hBK5K26RD6UqoyOmskdzcrBoZtGBq1sUuZbzxP99W/zT/Fd59UtpYGxCx0CNrR+PVE6Pr/fbxDcyGYS1M58W+aP30O/+3HuRm09PGDxgcc8k7qLZ8UuxnPCbTx8vPLc8DWZ+ySPU7QQRP+fsCWFp7OlAK8aRG/GPH87xP3avdtUJJitU1Nb7r6e4Nn6e0KgPb1ZY20usF9/mOh9kknK8pf+HsNiPZ0Wol++4xVlDeCEqdLCh1e9gb4wIGtv9Su0UF/efBOwy+pzOr/WarVVCysziFgpQxuIicCScCCFi8+/8+bww/COZ2PVvlA9cBDmdk0LxL6JOD9IPQ10Id/23l4LtgKIJJXCzS+/8laKyGtB7jnt7v+3vcmmL4AXrxdEcLLZYFWJeZnPcdHD5IAZY8MySPB5ZEgeX3SDEs2/JIRLnG06ISEKypB6FIfARF9FyD0rGe++P91ier5Y3/v9jYECI02+q5Af5nws3g3QbsNHWw13fyqhCuA9sMGtuLlK8OpupgHbB4XLKoDZtUJK42dBJQNX9rvPQd/6BwG7v9g0fiFwHa1muSmMc3vD6Avxjii3fcFtlouXJJKnvcsAhhZkeBSJNjcdswuz2PRaYbRacLU8iwDpy7VCIOeyJtLuWbFbwGsoo8ij8SL9fe9GYcra1B1DTYavvf1zxqn3s5T51fBdoOXgx/Y6uOhT9HG+9/ZPNWHTePB908f/z7RS4nm26o6MGwaQ7uxFyOuCbQt9GPYNgXZ894lrv3bC3zfnHn5INJxQ7DljtI2Xdv+bzbY+i9G34J8H0TmBU61zbRD6++LSM6+PpCbmhteAinFjRVFgNXzJsureuBQJTTPdiO1NRcN8z141PYYReMVcLopxFksQAJXkmYpYTqpGp7tvfE+xr4B6Ojj4LFscP55Y9LVJ9x3jQ4Eus+7R/AJuYX5DIM6XcWc6C8uAbYvMi/v+bwX6dOf8BpdfTAqG3Gx7BZ2ZQQhYe4h9mSH4GpbIlxe2v0I/tLpqQP0yzbWQH9fYD08h/eeAba6AUoskj8cbHVJVu+s/lv/1P//9KdLdcGp0OHkrRp7SPgPSNfP+r0c1i9q3XVpzbZ3tX6ZMJA5FCccbic/h56p36O3RVtBB/fDBa/HA5NiQXJHJt5tTkLufDniSy6iaLYaErmgKQpklaoqSJAUsszTd9pSvvd435uh17ZBY6J7aNETjVw0DsUBGs/z2rIrDlgV8hDxtSfmWWI6LLtt3I6LvCnYHU4ELvjc6iRI5HGgOLGsOOCjmSb18rzoNek2A2yFS58+h9Qn0S9f/9eOV/+/oM/aczqfCZWHjwbPulZvS7/P9yl2AQrGCWxLbmHbg924Pf0Qu9KDcan5NiSvApfHzTwsUS4Qjd70UlvbJ/0ZWh+eKgQqrtfHv/be9W0Ffn8Q6bMh2K6XNl9E78TX+DEQMZOu99MfIq6h2mRCElW5YoAqKh0QgPpJf7rEYFHt6JoZQNNICxYUszAmUekXkmL15+kSrj8Ik65sRYHkleEgv0+vrkvUmdkFlYDQK8HqtqJ5rhtVo81onO7AhH2W9W9kOedrPCpkr4q22T70LgwD8GBUnsTJxrMIL4/E2b5L2JOxH7dGH8CuOuF1e2D1OGF227CkWLDktvCng8KfyRdYl3TX9ZcZRB8LfWr6PpI6STIWUXG+Lby+8FSV0jR6MSMZ0TjWhsrBBoy5ZlfvoXYIFEji5TY9brTMdqNitAESF+CU+Bx5nCw6ltAw2Y7HQ5VoGmuB0WkUQQ1UHZdfUOJacu1aci2hZboTJSPVmLHO8YtGfznxWNaPT6vMrPebw4T9S5xrgRV0nvvJ15OxiYxOElTNN5rv50q9woirP5O37F4daHyqC70t/z4JnvaBraisIdQeev/IaEk+4HpIur5jEXMh5ofBVpEx4zYhozMfEfkxKDTX4VjlaTwcegy31wsL5f9dGMXI4jSWtWQ8vOtZQx9ffxmIA2C77mWkz+vL+6njIJcyF/W7fItZZ84XAVv9WpLiKCxTZ0wCTRFoICK+OJCBJCWO/iLQXBuNRb95m8XbegWLyjISS5IRl3wG4/IsCKDJ5UiXsKj91UPXVdKiVCU4PC6MmSdROV6PeWWRrcRr23fDKJtRPliNiPzjCEk7giOZ0cjuyIfZucSTTVKqjUDIbcGJovN42JUFYAWTzllcqr2BqNxYXGm5iYMp4UjqS2PpkuhYPtuIpLY03OlNxp3uZNztfojq8QaYnPTCoNBXAk9trLqbkGbNZ3UDg64uGZKRhYI8yDVPqCYETQVYqIoKr2cFXY5+xKSdQkhyJOqt7VjxroDO8XM0XS7NExny3q2+h8j0E3C6HWzg86okjcvomxpEfP5F7HoUhJM5Z9Fp7Ae5q6luojnxhgwvS5UyhuZGcb7oMg5mh6F5spVfahQUQuAv+EGXaMV807wJnTid167R8uryC17jFf1FykDG/ab7qC2Za7aJlw5FIQr+0edUhCKL5OQEmPx/jZ9Ef3wuWfybQF17qen38gt8NcpQSM+0SKh/gqeFwVPvI6mevB4VJtWK7CcFyB4sQIupF9erE9HjHIXH68G8soR7Tem4W/UQA5ZJuBTKjay99Ff7p/8W7dP8roK+Hyhv9D8xtpcXhD4q/d98sPVIXGmVGHNlReWKCVTI0OtVsbJC6fnIKi8YS4AAMZdIlEKLgwxJfKhCf7rgNiO/uxiJDQ8xLM+tlda4XS+3Te1TAUWW3hhsXbCqdlQP1+NUxUX02IcBLzgROrevqCwN9tonEJ15CocqIhDffhlxzeeRPSTAlkFRWYFFdaJhvBVbH+7Co5k8rKysYElaRt10C8pGalE724rigSq0LvTw1pqkpAsdt7Dt4V5se7wVW7O3Ynv2DlyuvYUxyyyDrdfjxQrRRDufRK6iAAAgAElEQVSoTyLEWTMqMdgKQCaa6WBL32mh06eXKh3TuFUPVjxAl2sMlxsS8E7SThTZ6wHvCp+ja/WDpGR5RUXqSAGutt1l1QxJ99SGS5Uxap7Cvd4MhFQdQWhWFGrn2tjo53Vrz6V5YeB3Y8pqxK2uJOwp2ovKyXrYuK4c1Z9br6sVuxYPj5nCsT3MFzRnDFqrvt3iGSsrVMSS6szRHIk5JX00G/5o3rw0515+DvXbQyBOYyRApLaYn4gfvPBqblj0AqAwceI15kWmm76b8vmXczs0F3TeK1y4xEvGB7a+JEBEe0F/i2JD63gnphxzGLNN8Pdl1cH9n1fMuNOWioj04ygaqwOpcPRdBgENPZNBXtvZ0e+PCgB9lMa56WCrSwr0Np9wz2JAGkefNIFmVw86pSFMuI1wMFh4Medewog8hSFpHGPyLPqlCXRJAxiX52BWHAwEfdI4Gm1daLf1Y8K9AK/i5W3tsmrFlHsBA/IUuukaeycGpDHMKksccispEkakaaQOZyGsKgoFy1XolUYx5Z6HRbXBrjrg8DiRvVSF3RnBuDmZjBJHCxoc3RiX51m/qsq00Fcw7l7AlcoEHEw5glbnAC8wkjBsigM2xQ6bascyf4rKvCQFdS8NIn+oFNGNJxBecBQZg3noNHazymLGbcSwNIEh9yzanH1osfcwXQj0OFkLvYz8Xki0+CTygiCdn1fCMqlWXKNocHaiwdmNUXkWC4oFc4oVDbPt2Ja2G+nWEjQ6e9Dh6odRWWT9q1dRsahYMeY28r1VthZWe5CKhYCMdKBOt8TjT+pOR0zOKdTMtXCGNVKN0MIgN7dReQ5PHD1osHfisaUUR2qiUDVRDztXexCAqb9ICfhI5047lFF5BgPSFHqlCTQ6utDhGsCEbOR2See7oCxhXJ7GkEz8MI9+aRxt9h6MSDOsW6Zd07S8iD5pBHWOVuatJcUOyS3B61ZgVRxMm0ZnH6rtrWhzDnA79NKlXQ6Nk/iv1dmHZmcn8yWpmWhMtBBoPifdc2hz9qLO2YFBeRyT7nmOhqM5JbrPuBfQ4Ozg+3vlcRCQktsf9Z8Pjyx0+27H6g6PXkKNU52IzDiOm71JMKkWvxcSgS3tWtxwemQsqTbMuBe5Lx8lIPoojHXTwZa3eF4PamabEZt6GrEFZxBXcREHso4gNOMYktrSYXQuYWUFaFhsx7HUOJzIi0dKfybOVl9FeNoxJDanYtw5jzHjDM4WX8WRnBiczbqMYXkSK+oK3IqCkcUJ3KpIwvHCczhefh7BWeE4lhmH0qlaji4jY1dafw6CUw9he+52HCg4jLDMKFzMu4ae+UHWqdZ21mFP/gFsSd+GfY9DEPo4GtfK72DQMi6kIjdJVivodI0i5GEErlbfBlmdyWOBttK61d9fEqFFSYfbKzPIXe2/hTMVFzDmmITNYwNVb0hry0Rszimcrb2Gw1lROJwRhXtt6bBKNk74QtLeerAl4xWBrUuV0DHTg5iSs9ifEYYDeRG87S/oKcG8ZEHn9AC2pu9AWPUxBGcfwZGc48jvKmKDHkm6fctjuFR8C5GZMYguOIkF2yKDEI2BVCb0MjO77cjqyMOJrHgNbBXWQ9OCMDoW8W7zfYSkReDQ4whEV5/EwaJDqJloEGCrbfe5PU3XTG5R5X21OJl9DrGF53Ci/AKCM8NxOC0SD7rS4ZJccHokVI824GT6acQVnkNSTzriSy/h0KMjuN2ezLsl8mXNGy7B0awT2J91EKeKL6Bhsg02xYkVxQOzYkd5dw0O5kZhT8YhhOXG4HJlAlqG22HzOmFcXsDd5hQcyopEcHoY92PKNL2qz5+2z+Lek4c8J0GPwxDz+BQetKbCLtlYAh+3T+NO5QMEZYcyP0flx+FxRxEWHWaeLw+/IEmqJ2lX4w8yjqkuTDjmca7yKmJq4zDpmBXJmDT1AEn6tIsyuZZR1FmBO7UPMWIaZwn9owBCH5Uxbh7Y8raXtmMqx/lXLTQzQL2T9TtsT9uNmNxTOFIQjZ2p+5DenYcZyYInS504lnwCW7Lfxo7HO7E75QDCMqMRn3MR3XODGDdO40zlVQRlhGL7nf2oc/Qy+CluFWOmSZytuIq3M3+H3WlBOF50GvszQhBWEgmLbOUFmDWQiwPJh7E9aztC8sMRlRWLq3k30Tc/DKdXQn1HPYKKDmFr6g4EZ4cxqN8qvYsxAltSZyi0PV9Bpf0JtiTuQnF/NRZUBzykB9US1qxnFJJ4yWCjKqRvXsL1vgScL7+Cafu8MCApLtzuTca2R7vwzt0diCiNQXhxNA48CkPVcANo60lSpt4uAbdQLygs3Tab+3Gy+Bx2pQQhujweUXknsC1xN2Lrz2DUMY+u2UFsydjKL5DogjiEZR9FaEEUGhbbeF5GrBO4WZSI4JxD2J62E9O2Gdi5OCWBg8pguyTbkNWZjxPZ8agmyVZWoMoejEtGpHU/xo5HuxGaH4WIx7HYlrIT23O3oXKyDnau7KGpidgnl1QKXpY4CWwPZIfj7ay3sS1pL44Xn+Zx0/fs7kJMKIuoG2tBWEY0tmRt5TnZl3UQERnHEZV6AuOuOdQbW7A7Yz+Cs0JxovAMglIO4UhZDFpM3XBQzTpzNXY9OoCQR0cRV3EJB/KOYEfSfiQ2paFdGsGNJ/ex98EBHC2JRUxVPLbe243TpZfQJ02xzzTtRPYVBCOq4gRiS85iR+I+hOYdYz9qMr4lTaZjV/J+RJefxLHKk9iWvAdnCi5hxER5QyR4n6FnJcmZdlGJXakIKYlEl2mQJW2hQhHGTwLbqeV5XCu6jaDkcDyZbA+Ard860NfDy/y5aWBLzCIMOAJwB6U5PBrPxfbCLTjTcxWd9hFUWztxrPYMjmedQY9pHFNuE1rNPdhRvAU7C3fhwXguGq39aLMNYM5t4i1uh2McKbP52Hp3H2ocPVhRvZxpyqzakD5egP01QUgYTkGnYxwP57Ox93EQpi2zLCkNSZNIGcpCaE0kci1V6LCPssRMW2naEpLuLM1Yht05+5Eyk48W2wjGXbOwuCk5uptLuJPhKXepDFvu7WK/2iXyNmBDlQ8Q/RlAgK2bDVMmxSzAtuwygy25ZZHOsNLWit05QTjReBbV1n4UGpsQVRiLR03ZWFKsLBWR/pra1SVlMnTRljdrshhBD0NxZygdT+zDeGLrx/HKM4hpPIVh55wA2/QtuDR6Ax2OETyeKEdoaRRyR0pZv2tSbJhyLSF1KR87s3ZjyjYNu4f65ZNsGWw78hGrg63kZrDtMA/hSEoMYmrjUWntRLNtEKc7rmBX0U5UTtbCrtrES4JARzPoEdjaFAkzshnXB5Kwo2Q7EkYeotU2jMrlHhytjENkSiz65HEYFTuyZ8qxq2Q39uYH48F4Hp7YBtG43IVx1yIuFd1AcGEo8s116HFMIm2iAMFFYXjUkY1FyYKTtRex93EI6pd70eGYQtZMDcILonGr8SHyZqsRmnsUl9pvoMrajjrbIBInM7AzcT9Kl2qx7LLi/pM0HKoJQ/piMVpsw7g/loMrPXdgkpbh8sg423kVB3LDUWiu5vEnDKUhpTcLE7YZDWyFsVfnAZo/+i7UPzLSR6i/4Wie64SNimPyLoD0tSok1c1GtobFDmTOlmBCnlt94frzV+D7xuvuZaDLJoKtxG5NgoFkLLltKBuoREhuKOoszfBKZFRyIq+vFKEpUcifroG04saseQ770oOQPJjG1nOyoJMBiraz7EKlSqgbbsb2W/tQT2BLUqVbhsMroXCwAlHlcWid7yYHAVQt1yE49SBGTKNwel2sHy3tK0NM6XF0LnfD617hNmnL6ZFpq7eCKksHgu+Fo3b4CayKDK9EYE65C+il4eG+pM/lYUfyHvQsjmDZIz+lPtADAnjCSf9G3gFuFQS2N/pv43zZZcw5FiG7ybjkRbOzD0GpR1Dd3wCrR0K/eRQX86/gblMa5uRl3hKT0WcNA7k9/PJ5dygRMfnxmLUvQiaXL8WDvtF+dI73wCTb0Dnbhx2J+1HpeAL66zL2I6L8OHKHShisFRq3ewWl5mrsSd6P6eUZ1jnSvHFQh1uFhUCvs9CnRiCwdXvx2FiN/Q9DUTPaDIvbxe1UzNbhcFEEqsbrQHp09jIhoGWjnjD+KB6Zn3GvOx2HK45hyDLG7S17XKgaqsOetAOocbRxf6snmhBSEIXiwQo2Nqq0u1BX0GTr551SSksOjLIdHtcKxpzziKu8ggu1N1Fv6UZYzjHcGnrA0rQqe2F1OdAx1IueqRFkjZdgd95+BJccRlh1FMJqovglvO3hHtzuf8hqitqxBux/FIIt93dgf9FhXGq7iUpTm/AwoXJB01XYc/sA3knZhgNFYbjcdwfttgHYuKKJMKBxjgvNtZFeOAy0pBbyqsgaLUJwfiiaZlph45zQwn1R0IpURy42zK1A5ExeM/8fMinvozi2zQVb1lcKFx0C25L+CgQ/PogiYyXskoRplxlpPXkIT41GyWwj7F4Jk5YZvibfVAo3+TWyq5IKhVyNKOm44kTVaCO239mHWkc3uxXJbhffmz9UgcjKE3hi7IJnZQXly7UISj2A4aVR1tGR/2xJXxmOlcag3doFt+zhYofkZO6WBYCUm9uwPykUlaNNMLmdUCQFspvcoIT1moA/Z7EE25J2om22H2aP8DPV3Y2E77DvbUsSPiXbJmOTUV3Ctf4EnC2/hEnHHBufPIoHTc4+BGccQXlfDcfQ95pHcKHwMu40P8KsbGH1hc99SpNwFa8A28FExBadxrS0ABv5vboVVpkseWxY9NjRPt+L7ff2otTeCC+86FjoQ0RlDLKHSuAkY5Cs8MukyFyBPSn7MG6d4lBTwQjk4uWGyW1DRlcBjj+OQ+VsM5wyuSGpyDVWIyg5FJWTTViQqWS5B5WLjQgrj0LlRB3MGtjSQnJ7RBAHScz0nbb5id1pOFgWgZbFbthVGfOKBXn9xdiXdgj1zg5Wc1RONuJIRSyqppoYkGh8RLMW+wAOPYxESmcOpqRluCUPhp2zOFV9BReq30WjpRuhOcdwZzyF6S+7VeYRepmZVKcA29x92Jm1D0H5h7E/7xD25x7CobwoJPansV51yDGJ1MkCnGm+htCSY0zHk9XnsSRZIHlktFgHkDlViLjmizhcFIXtKXtxreo2Ji2zkNmdi+ZK7PAIaAl42fvDQ4ZNBRnDBQguCMWTuQ6muS7ZEg+xPp4CTdxWWBUbG+0+ioD0YR7zpoGtTiQ2kHlUlmyLhiqwNWcLoupOImeyCskT+ThUGon4wgvoNY/yYiG3qb0F+3BvNg095nFM2OZEZJLHhUWnBS2WYSSP5mLLo11IX6zAiHkSs9Ii5mULUvpycbgmCuUzTbCqbjw2lWJP5j60L/Qx8FCEVMlABcIrIlG6WIcJxwKa5vtQPvMEc9ISGyQeTBdiR9o+pIw9xhNzP6Zsc+xhwNtqldzVVlBqr8eWuztQPtrAOlsyfhDYskTCYOIPtsI4NuE0onWxH6c6L7J+r2rxCQMuRZiVWpo4nDO7Lx+TZN1e6mEAvdZ0B5PKArs16V4dq3RVvKwauT+WiZCMI8idrkCvYwrTDhMa57uQN1GObvs4yucasDVlJ2+FLYoDlTNNCKk5ggf9WVhwL2PSuYAhywyS57KwM3sXyuYb0G4ewrK0zF4VRuci2paGcL0zGaFFR/FoohDDSxNYci+jfqkLoSlHcbXtHqsBBm2TuNmfhD2lu5E9XIJp2QRZpkAQscvR/a0ZbL0yEofSsS13J049uYzsqWo8nCzAgfwwnMg+y54Bcy4z0ocKcaj6CB4MZuGJqQdG2wJLnaPSHE7nXkRY8QmULbZjzLGAwtlqHC6LQGJLCsYc0zhWeQoRNcfRaxrDmGse/bYp1Ey2oHK6CbmzlThUGIHzbe+i0NKAWmcXKi1tyJ+uRNNyL0ass3jYnoW7Pelosg6gzTGAi73vYk/hfvRbx/gFdLH1XVaN9dkmUWPvwIn284jMjUXDVCf7zpLhVJ8vnTeEUdPFOloy+pFE3LEwAAepbTS3Md3tbmh5HBmdj5EzWoJ5t2m1Lb3NwKePvi8jLTYXbNlIRrHyCkdP0VZwa+ZW7MzYg+CUMOxLCUFIzhGUjdXA6LYge6AI0VmnsSV1Gw4VHUFcwTmkNGZgYXkByx4HKrrqcKrsEkLzjuJ3SVsRXhGNi7lXUTlWj975UZwqOo8tqTvwbl0SRizTuNx2E1vub0VixUPMquSSI6Npqg2H8o/gRPk53Ki/i+iMU4jLvYBhyyRK2ysRUnQE7zzYjtC8KJwoPouMphzMuxZYL0uGMIrMIkl0T9IBJDWnYdq9xIYQlfWSvkoH+uQTwBC4ZHTl48Tjs9iXF4xdqftwrOAkW/jJIHWjMxFbknfhaMoJdNgHkD1WhH13DyAqL5Z12KrXl2tAb5cMbuT6VD3fhoiMWIQ9Poqrzbdxq/EBYjLjEfv4LKqNLThffB2/u7cFsXVn0Wsewq2G+3gndRtOlpxDj3EIhQMVOF9wDYeLjmBLylZEFcTidNkFtA62scdCWW8lThVeYN3k9od7EV56FOeyLqPN2IUxhxG3a+9jX+phnGu4hsu1NxGUHYJ3Un+HmOxTaF3sES5zbCQkf2HyeaXcABIbJO/1p2Nn7l7sfBiEoLQw7E09iINZR1Az3owxaR4F/WU4khWDbRm7cDg3AjGFcXjcmAeLaxmLtEsZqGQjalRxHK7V30FEznGEFUSjfq4VVo8LqaO52P3gAE4Wnset1vu40nAbEY+OI6HiPlpcfbhSfxsHMsNxuvkKbvTeQ3z9ZT6fN1qO4aUZnM69jN0pwTjTeAU32u4grPAowsuOsffAomzhe/c8OICL9e/icvstHCo9wga2noVRTk5Eahh9vkhapXVAOx2nKmFeWsLVhgREVsVi2DoFF5egot2Twvp9CgWvGm3CibTTSOvIg0lZXm1LbzPw6aPvy0iLzQNbjoUXIEELzOJeRtlgBYLyDuBqzx1cakjA9dpElI/Vc0CA4lWQ1JeNyII4RFYf563ukbJo3Gq+j2nzPIyqFbkdZYguO8XnIqtOILIiliXAnJFitM/341L1DRypiMLt1mR0modwte02osqPI6HyASbdiywhkqT6bmsSDuVFYH9hCI4Vn8Sj7iwMO6aR2ZKH0JJIRFTF8BFZfBx3mx9iwjHLekLSu9IxLBtxquAyjmQfY/9WcvsSbj4bTz65ad3uSEFkfiwiq44jsjKWreZJHanoWx7Fux33cLTiJGJzz6HB2oXs0UJE58bhbM1VNBo7/KKa/NrXcjksSMsoHapBZPlx7M87iH0FB3G0OA7pfQVotvXiYtm7iKqIRXz9RTQtdiGhNRnhFcdwse4GWuZ6kNqfg+iSk4goj0ZU1XGEV0bhaHksavsaMS0bkdWbj6MFcYioor6fQETFcUQ/jmeJ2e1RMGQax6m6aziQF44DxYd57o7VnMTJwrOoNbZw0hWS2GhnQHxAi4LA1uV14n53GqscSDI+W3cdV2oSUDpVz2HaBGYPerN4LDzXlTEILzuKB42PMONYYGPSssuChI4Ufvnuyw/C0bI45A5XgmhCXiPkm5vSnI0DJaHYm38AQUWhOFl7gQNSjKoF/fOjuNyYgEOFR7Av/wCCiw/hYvFV1M20YtphxqOux/xCP1AUiv15BxBTGI/ckXLe6VC+iSvtd3C0/CTfF5R7CNFl8agYq4dFJsOgFvnlp1vlyEZVhZ3c9RYGcSw3DhfabsIomziIRAcMMn6Su11qfx4ull5Dx2I/q4z084FPv3XgR9+XjS6bB7bam1zXZVLAQtFYOUJKw1HuaMaEYuTFTPkCJE3iIQfzfscYuqRBdEuD6JGGMSHNcHITyjFgdJkw4Brlc93SELpdwxh2jrNjudltxahrkoMg6B6zYsWIPIFe1xCmnXOwuCnJiht2twOjzmk0LXagZqEZffZhzMkmPm+UTOhyDXAb9Pw+5whLMVa6l0JB+VCxoNpRNFCFbUl7ULBQI0rYrIZ5rmcEcv2SMEFBGg7q+xB6+BjGpEz9smKEHPudwxi2TXK48LRkxICN1CoTWHSbWTLW4/19DEU6UImjtBYVCzptA6ieb0L1QjN6bEM8pgW3BeOOafQ4B9nhn0KMJ6RpHt+INAGTvIwpChZwjqLbRTQXY+9zDcEiWTjibpq23zQnLur3MPd9yD6OWXmJpTTKdjbomgZZzetMLehyDqJXGsawYxxET7bEawEZ1HcCXHL2X/bYcbc7BRENx1Fv7kG/PIUpaYGNeqTbpMCHSdcs+hwj6HbRXA9x/2alOVjd5OdKyXycmJDm0WbuRdVCI7rsgzC6l+FSyLinYNntBNGg0dKOirl61JpamA6kTrFzIiMJo9I0ms3tqJxrQIO5DVOuWSy57az3npEX0OnoR72pBTXGRvRZh2GUSV9LUZEyRtxT6HEOo26pBbXGJ+i1DrP3CPGzmC+aI7GzE2MX4cmsA+8pRtijaGQMFbMrnMctauzxdarC3hRpXY+R017AOwzyzfXN/XoeC/x+GWmzuWCrhVSSVNPvmERC8wPsyQ/Gw+FszC7NsXsMBwSshpx6tGq9VDVXHCQN6AuW2tHDIcmK76XD4+WIGzIuUDw/+cLSp34tXUfuVf6x5XSO2iWLMIWMehTKGUCWcooQI2u3lyUj/lSFdE66NtoGksM5Wc0nbfMIyg3FjZ77cK94WILbcMI1CVQEPIj2ud+UC4FeSJRykbwVVNFv3xgo/HSF3YA2KoqoG1GoXyQ5U9+ZVtRH8gkmJ3pKjUg0oWeRoZGu05LUUKYy9oFe1ROqq9cSjQWNxCJm9QnRVVH4GpJUqT127dNCbVWvl5OsED29HrD+kaV9rkemhRxroaiUCGhkeQrnGm8guDIU2T0lGLfPgTwNPBJ5b4ggDuIN8jYR8+DlTw7R5SAPkYxcn0sKGqGKv6JSs7Dku2XyVKEkR7qBTrhV+Y9bGKVkTd9OYOgF+W3Tc0QgAs05VYUWNCZa6vMseM8DRUsST77YpE4Suxzh4qUbxugemh+i+7S8gMv1dxBfcBFPjH1wccSbiBrjTGuKDLO8jEZjO4aWRkHeG0+/bAMAq8/Dy/q5aWBLEgwdxLS0IEqmq7H7VjB+m7QFex8cQmZzPih+nBY2R0dx/gKxgNcTT198+v9ZWtaMUvr/RBsUPOBjQv06cY2QBJmZtVh+/r8mdfEz1mxJfMlROH0fW5VF2yR1kaRRPlaL5uk2Xnysk1tzv7jW13fRHi30Vc8CDVSoHwJ4aVGJ7/x71d3reYtNO6ePg4BI68fa8fvTZZ0b2eozRbIWf7qstkUJZbQsXfr/1hvtxP+F3lFvg8bPBxkQmReEK1leZwn23D+I3z3Ygj23QpA3XCrOc+IaUaeNeYf6xv/zo9Eq3fSx6vTRfmvP5MrIzA/ihfT0HIuAC9E/cc1qQhx+EeqRe9Su74WxOv7V+dafrwVw8FxofVm9RtCfAJdCuZvGO9A+0Q2zbGX6iPmmawS9KF0lqd5IXaFLyU8/1zengXMvHy02FWwJZHnBeBU0L3cjsScFV0cTcWcwFXWzHZzvgCUFLdMTSQEsCaxj0M1hJJJehLGKUjry9o5BRgunJSb3S/ihW4/5k7eCdI/mcaAtZvJuoOoML9Q/zdfSP23kC933R6HFn54xBR1FdBRFxTUbO5E4+AhXR+/gTtdD1JrahGSqZdTiSDnthf1hoxMl+LG6XSzRbvgC+JDM+Ydt3jZ7PJsGtgxMmjRD3ylRMm0fKSadkoAQw8lkLNGlED+J7LmDYg8HPYvU7wMauvSxVuJYjcii6B0/sKU+6OBK3+mc/pv9ZrmSrEhY8tz+6gvnIw62a2kka+58TvadJb5wcRFIIdGuSnIc4vv7zPEH/1re8fnxOoOtvmPQdidrafXBH1Ogv+9vjjYdbEmnSIDK+Vq1SCrVTTlVhY6KdaF+zPeeE8eGKNqKCwB8z+t1sHvGJ/mA8rER2FKeVu0+ktLpWQy4rFLQy3avBe9n9icAtqs7AB1gOPerlsCHdNWkv16zXWeaPa3yeCaNnzHHH6TrGWxZt+zjG11vrCcb+iD1N9CX9wekL0K3TQNbAlMyJukP1bfuPkmS0geu3brr1z7vUzdc6LpgYSAReUhJNeC//dfb0Rlc/83qDVJxMNOLyDDSPxLws5sShYSyoc1nrGEDHOXLVT0cDfZ7b/8CYOvjBdrReH0vMp1XxIvMj7k/hGCrq1OIF4kv/XlR58/Apx8PvAQv0Pc7X5sGtgRetIj0jgh9LBFRl140o8UaYupb/WcTm2p4UQIWPWeoD2w1a64WwUVZmXSpVO+D/klATVtVit5SVoSjOZ0j8Le7qeS0gw8yhBGoCqLIokw5gYSm+hCA65NQ9PY3/AyArR8viKKHRG9WGTCvaDpxf37w458Naep/7Uvyff0LRRcEiI8/LGMMjOPF5nLzwPYZzO9vcFpvzdal3udN1ryyjCdzPageb8KUe3FNpQZiZCop7nS7WEfMgLsBE5N0Sr6W7QtD6F8QoZdkaYdHRfVCK1IGs7lyQbt5kCVlTibtldGzOISm+W44KBE0W8Rd7O/5vP6unguArQATP2l1db5ZD+/bBa2txPtijLtK52fw3Qfl/Kpw4NdPXcL9oPQx0I8/Dc9tKtjqFn998kT1UzKK6dKkFp64CohC0vF3WRKBBCKggNqheP47Jck4fj+eKziQqoLdqRThLD9kHEXDQDOmbUauKMAJbBgYSaIWbjXkfjPmmsGlqgQ8rMnAvG1RVA9wLCKmLB677wcjKC0UN5uSMOtYZDcvWhCPWnNwsvgCJqzTWn0t4cmgj48/+VkbSLsBsNXA1qeDXQVbAh7WxWtMzuDru24Nff1A6mX8P/HRRv1+1v83ujbwv41p+LLRZdPAltUGBDDrFgc7lGuVYQkoScqkbT073Ou1qFg3KmLEycmc0pcLaj0AACAASURBVCt63MIxn7Pv91bjUVMmlzShNsj4tuJWQZFeVJ/sQv41NM32ckYrr0zO+GQE06VQiUvJUCpASgKS3pENs2TGgmpFcW851xW70JWA+ObrOPz4KMqG69lFjXIiZE+XYnfWAZQOVzPoi0CFdRPPrksyJxtfszUMgO1TvLCeNwK/1/HSurUToM+Hiz6bCLbkk+qTTmibTmnnKLR0yDWG6qVmNJk7MOqa4dBJkoIn3PMcctlnG+F6YhOuWfTYh9DnHOWwS6oJ1ekaRK2jFY2WDi5JI6rSkr5WYUn3ZmcSIouOI22qEE8cveh0DsCu2OFSnZyflQa4KJuQ1J7KSbSbjR2s2x2V5nGm4DJOFJxDhzSG2oVunCg4j3frH2BGXuJct53OIYTnxuBKeQKGnPMcUUVhoUJCI9cxBTa3gyv3TrnnMO9eYn0vSeqySjlxRcl2NuQFFlIAfAM88JHmgU0GW9+biKRAp+JA3UwTThWfx97HBxGSfQTXG+9iwjoHxetFxkgBwrOjOUtTwWwVMofyEZl9HKcqL6DF2INB4xjiyi/gcEEUTuScQ680xpVVyRBnd7uQO1SK/fkHsD1zO/YVBuNQwRGEFx7D4PwIZ/yiJDJUDHDQPIJzZZdxsuEC50mgZNRdzlEcfBiOtCfZmFetGLXO4UZFIpdTGXHNYkVZwaS0gOt1d3Do4VE0Lg9wBjAqmshVXD0UzunBgrKM3J5SXC25hcaFTkhUjYGMb551YPuM7WRAevHxTIAWAVp8mHlg08DW3+uAdKWULHrINo6o2hMIzgnFuYbrOF57Bnuyg5HRm485aRlls3UIunWY63HdM6bjQvdNvJ2wHfElF9G/PIpZ0zxuNCYiPDcaO27vR6OzV1NDqJDdEqon6hBeFIndqfsQUX4M8cUXcb7kGiYXpzhZM4EtFX6sn2nnSrE3Wu9hTjJxHoQW1xD2JIWgsLcCRtWGKfsi7tWn4kTlRU604pW9nMO0oK8MuxKDkW+qAVWpfAps3RYkVqfg4LtHUD7ZEADbgPT2kZbePsxg+YeObdPAVjd+6A7bFrcDhX1l2FO0DwmTKWiw9iLfXI+ohpM4mX8e3aZRjEjzyB8tw46cnThUHY7g0sM4UnYcVcYWGN1WDo7osU8gdTwPO+5RpYYuTptIyVXoOdPSPG53PcTR0lhkTJSg0zKKvuUJNn5RyW8CW5vsRNl4PY5ln8T9rkwsylYG2yfOIey+fwhFvZWc1WvWuYQHjek4UXUBA64pkO6XxtAw0YIdiXuRvpi/IdhSKe1Wcy/KpmvRbR+DHJBsA2ATeOEEeGADHtg0sGX/SS5gJzwOplxUNjoZ72S/jf2lB3AwP5zzgO7M3YV9Dw6hYkaUW7GrDlwau4vfJP8W+0qDUGCu4GADqpXlkT1cNqZquAm7bx/kJN5UgJH0pnQsua3I7MrDmdwLqJ/ugN0lc7kUqlFGmZgIbMmPtmikGtFZp5DWUwiTZOfaWe3OUexODEF+d4mQbB0mJNanIrbyIoPtilvhNIxPZrqw+34Q0hbyNLAlI6DmL8oEpUANmUuXcy4GLQSTgzo0I9l6L40/9A0ZuD+w3Q7wwMvHA39ksH2Ad3LeQXDFYRwqikBIWRhCKkO5/HbV/BM4FRkWpxXRbafx24fvYGfeLtwfyuBaXari5YquFqpOMNSEnQkH0Ojsh2dFSx+oiNI7WZ0FOPP4IhqmO+GQ3Fy3TKTek9ljgXS7paN1OJYZh5SuPJgkG0hF0O2aQGhaNO7XpmJOXcbo8hyul9/FycqroBIslOqPsjU1TLZxBdaMxQLAKwpR+jM65ZiljE2SmwIihLsZn+dk6qIOlf/1ge8v3yIJzFlgzjaDBzYNbH1qBOGLanE7UdxXhb0FB3B/KgvttiE8sQ6gaqkNjQutGHfNoMk+jHPNN/BOyg5cGbuDk61nsSdjP+4MpGHANY1Z1xLqLQO4P5WDrRm78GixDL2WcUw5Fzm/KmW3f9xdhOjCOGRMlKHDNopmUw9KJ2swKs1ixe1h4G6Y6kB0dhyutSZhVjJzBV1SU9yrTkFQThgKzU+QNlmOI3nHkdKSi0UCZMmDBbcN+YPl2HFnH/JMVax+ILc0Ijx5HHg9CkakGdxsT0Zq62OM241CKt9gC7EZkxVoI7DoAzzw8vLAHw1s7R4Jg7YJRFaeRFBGKM5WX8HZmisIyz6G2Efx6DL24VZXMt65uQs7U4KQtliId3sf4O3b2xCccRhFE1XIby3B0bw4BGWE4Z3k7QguCMfJ9LMoH67lQox2jwv14y3swRBZFovztdcQnhaN0FuRXHWBgJESNfcujeB08SXEN1zBmGsWqkxlxm3oMPZgR/I+hJfE4HBhFCJyT6B1vg9WWWKwnZHNuN3wEAcehqNmuVMY59y+kGRy/Wpd6kXE41hktuVhXrIEwDbwognoKwM8sCEPbB7Yakk29FhwCmagQnf1c904XXod+/NCsT/nEA4XRLIhasQ6hcS2RziRfwZXCt9F1XQjCgbLcSr3POJKLqB4ogq5nUWILTiLY4VxiCmO59pYpwrOoXikkvMwUHjuksOM5I4sHM49iuDcMIQVxyCvrQiz7gWWfmXFjUWXBXeeJCOsKgotS92iTLRHSOAklR5Mj8CRgpPIHiyBS3Gy/yxVC+h0DeNI/nGcK76OIaeR9cDkP0zhpeRTLK/IKB6pRnzNZfSbhjmDv9Dnvrxv34DkFJi7AA/8cXhg08CWJohCEFfBlrNqubGo2DEkz6DW1oaa5Ra0OvowryyxPnRcmuW6YTPKPBZUM+ZVE8bdMxiRJzGnmLCoLPH3AXkC4hjHmDyFeffiag4DymNA5cCfWHtQt9yKdqqnpdi4fcrCT/2hKgulU7UIKYxAbm8JLG4q0EcZmBSMynN4Yu1Gi62PK+eStMrnvAqK56qxL+0Q8gfKMCcvi/I7nMCGso2JfL35XaVcqI9qhxHQimQ1f5zJCiyCAF0DPPDy8sCmgu1GjMDhtRRi6/XC6/VgxethkOMEHarE9Z6olhP9ptpP9On77eb6Wh6qHeZVV/9PzxEJbqisi8Rx9lQTy0Nte0XuXAp8oGvIWEagOmifQFzFFdytS8WkfZEj0Ch0mJ7l5XsUqFyjjKRWGe4VGfe7MhBZehLD5lE4PY5VH1/OAuaRYFNs6J7pQ59phDOKkTtaIEfpy7sYNuLfwP8C87lZPLBpYKsbyPRttEi04UvQIkJWhVsYd55dpAgs/a4ha76Wa2A9cFF73KbmWkVtiPpilCeXkt2IVIiCMCSd+oUOU2l1xYbG6Q60TXVxKXUCzNXaYNyWYCqWbElC98pon+9F/VwrrO5luFUXF08kwxiPxeNmgHV4HFx2mhKmsyTtVxNtsyYp0E5gwQd44OXngT8a2ArJVZM8VaoFJkCK9Z0aMOoAKs5pxPQrGfKsLTlLllqOWa4266FcBP6+rz6w1a+lUtRUjsWpOkVeWz+QJ0b27wOrQjwUbuyC00PSt5DAeUw0DtbZapKzVpVV0eqp6ZnOAovj5V8cgTkMzOFm8sAzwVZIpuuIzb6jeiIW8in1P6+DnU9SFVKu+L1a3NE/M5hfaj1d10sSqi6VknSrS8z8naVbUa3WX/L1XSOMXvq11D8dbPm7psMl39in7/H9T5fOheS80bj8x+37zlV5A5LtOr7w0WctvwT+H6DHR4sHngm2JMXpzKBLoHqSZx2o9PPv+cmgKjJgcRs6SOuO/9pvf+mXtvPUB076oul2+Tfpf7kEj1+JETrvf3ieLubI+VM5okuoF2gMa+7x+62D7XuOSx9H4HOVVwI0862bAC0CtPDngQ3BlpLKCEnTBTeVklFFblgfyGrSq1bGhP7/QgC1Crr+kVVUB4zap+dQO0LC9LW3kWTpk3jFYLRruH3yg9X6twYEffesHYd/+/7fA4zizyiB7wF+CPDAH8YDPrD1rsCt0BZdAB5b5FUNbLk2l/82W3vo7wu2BH5cZZfy0erBAeSB8DTY+gD8+cC5hgGeCbbCJYsGqwPt2vb9QVb//ocRdk2/1oB+oN0AbQI88FHkgafAVhCBkqtowKSQxEkVZr0CiPn3H8YspEelFInUpuIBZHWFD0ldYRB+GhBf7Hn6fbpkS25npD6gsZC3gKzS80TGMP3ajT71+z+KDBEY84vxWoBOATr9vjywCrYe7wokf8l21YgkY3TCga5+C9xUS8ytqwzo88UILgBtrSpC5sQtXoyOLaCw0oTi6nkMjCxA4koITk2t8PTWn9rygeH68+IZ1C8yVulGPpfsxviUFQPDdthsoiTPRiCr/8/X/ouN70XpELguQM8AD3x0eWAVbFUALnbuF1t6BjUyUq2s4EBsO1598y46OidANcIU1akdL0Y40seqHhtUjwMq64DF/VTn63DEAxi+lgXDNx7g2KlMuCRSKywLsOXijnQv3acfusqBQFPi9lbPabplRfXCTSVpVAJtCQPDi9h+MA2/3FWGrj76XyDSK7DoX4x3A3QK0GmzeGAVbJUVDWw1Y5WQ8lzwet24drsD/9Pf7MHBI0kMtqpnHdiSrnSNlEuRVEICJd0seRF4NV9Vvk4R91O01917xXj9NwUwfPEM9h66B5eLpNVlBkoy0lFElogs0z/14AU9paEeeUbn6ZzCUi09x+NxsCT+ILUOn/zyXuw4mInRcStU1amlQwww0tp5C9AjQI8AD/yxeGAVbN0MtlQmXPcGIMnRCY/XDrtVxbd+dhN//8vLkCUPS5luAiz/QAU9MID/J2vVbUn364Vx0Ynm9ll0983AZtPbJ8CV4ZJc6OxZwpd/cgU7D6ZAcsrwemxwKw6QP6zT5cHA4Bxq60cwNOrA4pITLs68Je63OST0DhjR1DKNuXkrFNIDc2VdF7fjdEo4fbEEr30vGiVlw1AVB1TVIvTPa14QASb7YzFZoN0AbwV4gARBipB1waCuQDNO+W3TWYK1ck6An7x1C6//40VIEuUfICB0iNwDBFhrJFsyfFGjCiRJRW3DPN7am4FX/uEKXv3JFUSc6cLkLGXOUli14PHaMDVjxrd+dgm7DibD5ZTg9VigKE7YHCqu3ZvAt36ZgE987zy+8k8PsO1AGnoG3fCuqJiccePExVZ89Wc38ekfXMbP3k5GcaUZiiKq73o9dhDYxl8oxjd+FI26xjHN84HUFC+ucw4wSgAsAjwQ4IE/lAdWwda7sgIKOSWdqvB5JcnWAUUVYPvmW5fxnV9chqqQZGuDQlt0v8AHvSMEYtSo6lnByNgyvvvP92F47Qw+/6sa/OWPcmD4yi1cvVMLu5MkTwtWvGYG22++eRo7D/jAltQOtQ39+K/fv4P/541ifHdLEwzfSoHhlRDklMqw2x04d60Ghi9dwn/5YRZe+9cmGP7uHD7/RgrmF61QOOmNHbIk4+zlYnz9HyJQ3zjEobesPw6A7TrVT2Ax6Twc+Azwwh+DB54JtmTJ96i05bZytq7f7LiK//iN6+joErpRxUP5Dvw9A8QEEUCrqh2yrCIhuQOGryUh5NQo/v/2vgQ6qipd97Tvre777rpvre5+7b2ru1+ry37Xbr1o2zIjAWRSEQEVaRFRaJxaRUGUGQQZwjwHSBgCCTPIDAKBMCSBQAhDIEDmgYSQpJJUajxjfW/9e9euqoQE41WTQO+sdValTp1h739/+zv/+fc/pF9XEX/Sjk5vfYvuA9ciK6sMllkOyywLIdvN8Hq88JkV8FlebNlxjBH15zPzkXhWxb7DxRgyPBpnL+tISy9E94Hr8Oygb3EwrhLXbuiYsSwfyrOrELs1BZbJKyoUFut4Z1QiuvRfitSL2cx2zNsoNdufAlDympKoJAbqxkC9ZMsWtQwXTKMaPp+JpauSoLQYh/7/OMp8ZImM6yZbJ9N8HU4Pxk3bA6X9WjzSZxe6v74E7V/fDqXrdvy87Vc4mZAHU6+AZZZyM8KAhcyMEEq2l66W4JEXY6C0WYDfdJiKfu/uwJY9GfB6fTh2/Aoe7boASvdd6NB/I3q8vgT/2T8OSttIDP9yLavk4FVVrN+SDKX1Igz4cDcKi+ywKI0j86aoK1iibiFJ8Ei5SAxIDPxQDNxJtoHQ2RAzgmXiy8nbofx1AlZtJcKiHLKk2QajrUQiGd0gsnWi2unBqK++gdJ6OZT2K6C0HAel5UQorSbjvzp8iJNJ2Yz0yM2LbLY9BizGZ2O3wuuhBTLyGFDh9eo4fsaJf4zdh1Z9VkJp8Tke7DAVxxI9iD95BQ89Nw9Kh2gobWfjgWe+gNLyKygtp+CzLxfC8lEQhhtJ5wrwzCsb0fNvy3AlvZi13SI3MmlGkGYEuUAqMdCIGKiDbIW3APdGIPumZZoYOGwhug2MganRApmfbEMaGiRb7g/r9mhYsuYMlK4bsCjahoxsAxlZBs5d8OD0+QrYKsmty4uKimpcSreh02vL8cGob1BSosLhcEPXDCxbuQPjwk8gM9eNqioLew+X4xftZ2DirGScPZ+DNn1Xoc8Hp5B41o3sXAPXruk4ecqBzBwHDIN7TZAr2fylCejUZw5On83wu6A5JdmGjN0PfWLL86XWJzHw3Rj4DrL1BxToJvoPXY6X3lwCzUt+s3amvdYlYLa4RoELponUK8X48wtr8Kse0Rg6IQPvTc7EXwclIqzvbGZzvZ5p4NV3VuLhty5B6bINyvPfov1bRzFtQSLyCnSMGL0KSss5aDX0AkbMyELXD1Lxs9aTsDI2E+W2Soydth9KWBReeO8UPpueib4jbkDp+Q2mzd3BTB+GUQmvx41Fy46gW9+vcFoukElNRj5kJAaaCAP1kC15JJCG64ZuOmHqJl4ZuhYvDVzIyNaySHMkT4U72Zx7MnigmjqcTgObduTj2Vcj8YuOM6A8OxMP9VyG90dFo6CoHClpOjr0+ASP9V6DP/bZgD++HIu/PD8LIydsQU6+F2vWx6H9gFj8qttSKB1m4NHu8zBy0j4Ul+jM9etqhophY07i4a5zoLSfhl92CscTfaKxbVcyK5FDZOtxE9nGoWu/GUhKzoPBFvWoBplcIKtr/OS+OzEtZSJl8mNgoH6yZdqpC4blRHqGBy16rcSAoREwmBmBXsPrJlvK6kWbcAHzqjpuZJVi5/4r2LorBWdSbqHCrkM1fXC6fcjOs+FGtgPXacuqxo3sShSXOOHVfKisdiMn3434hGxs2J6Mk2cKYHeRCYMyhnFTQKnNgROJ2di0PQUHj6QhK4+iw/zhupYdbrcby1edwjM9ZyB681XYHZTJjNouyfbHAJC8hiQiiYGGYaBestWJbC0Vpk/DuPCzUFp8huWrjzM3MJaLgK3o+2/CghqCi2U8s5Y/uCGQ6FuFRddjib11qCzFIk8Q7rM00EahwbRR4nCq80Wkyrwi2H5xrsHqjZEGzRpvUiFICgfmIcF0D003eQpH0wFVc+NIfDra9hyHV4asRfqNCqbdUuYxCZKGgUTKScpJYuCHY+AOsqXqBUwrpbSERHiWD2s3XMT4qftRUkqZv6wagQ8seoyVuuEZuGpmzCI3K6qI4PYnoqFkNGSCEGYKsgm7WVgtheiSlwDlMxCBFdQO8vVl3gPsPDo3uIBH9+LH0DXIw8DutydTcAbla6D7elFe6cD6TYlYEJGAvIIqFiYsyfaHg0dOQClDiYGGY6BesiUi44Skw27XUFHBE75QHlqee4BXc2DC9ofrCo2UV9Ll1W8FIXKCFSTLgyEEcQZ/49FrtJ+RNss9K/bxT7Y/UImBa9NU6YFXexCpGUkARMT8fuQp4XBpqKpSoWm0P0QLr8PuLAHUcABJWUlZSQw0DAN3IVuecYuIiarLMuLyh/JysuIVaYWgDfbKb0KlRONUjYElpAk2gswBQS04uF+cHyRlvy2VCDy0OORdSJFrt36CDhzHtWr6TRUVJwyuVbO2BI6rqy1yX3BcpCykLCQGfgwM3EG2QtuseXHSBAWZ/di2Tm4KCGizAa21IQPMz2VtDdiNBamTGUFosKL9og/Bawv/YJFonOzEYp+wG4vvbGHOr8XXlE/werSf3ggoYxmRvErmGNqsoNwC1/MTfui96XzxnY67231+1N/8JY7Y/f2mmiAW/G1ni5+102nWaiN7SFKSoZD9ZB/XVXgNL1ymBw7TDZfJ/3dRQiOqekzl7UPkQefXuIb/uj9qnxtTvvJejYflZirrBpJtyMT50TsSSrbf9z5+smUTkZKF+8/3e0QEvov9dXwK4iNtl01ukxbXqJQOTX7yrKDvfiJgZXZE7bS628qIlpXgIaL1oFqzw65Ww6m74PTSgp2/mGYIGYXem7R/oXnXleinIX36bx3jLyFE5wpQ3Em2VGbo7v3nDyS+sBkgS5aTWINDd6DUXYYy1YYytQJl7nI4DCeTs5A53Z/6L7ZAX77HmAbOqWO85W9141bK5aeXi5hXSiDrV40FqJ++AaHmg+Dkbuh9ueYaPI9rYMHv330d0kBpEwuDBDo28f0FKYkwWDpJ5mpGZgixwMftweJewu5sktnFUGE3HMipzMeG1B04U3EZ+27EIyHzLJwaaXJkW6Z8vOJ65IrmZu2gtjQ+8PlDi2vk9KAhUxA9vMRiZFArD7ZNvFXU9Rsv7MnMRn5N3bJ0JJSexaRD07DkSiTmXViK0dsn47QrDZZlwdDpIUOLnLRx2dK9hHz5W8p3j2ewffJYKYvmhYEmIltOkoJoacGtxhZ4/Sdh8WP5Yl3wPNrPXj3p9ZNe2/3bnRNULPTVPtd/jp9sDZaDN8TMwDQ4IhQyCVCidCIBnveBBUbofDFOkCzl36X/GdnqKsq8lTh0+SgiE2MQV5yMlWdikFJ0GR7KKUFJ2YlQTPIVpo1XruAVjUUbgv0WfQ/2MdiX4D4OrNrfGzbh6DWfCnuqcHupXlsZbpVVQ2WLiYL46J7B8RAkSJ9ijGrci2miQZMDVeWIL07CyO1jMPvsIkxLnI0PV3+GRNdF+CwfDN3guTKopD0LPBHXvRvhN6/JVKP/UqtuAqWheeOhScg2dKKyyVqLbIMTOKjZkL+sIGRxPmmgLq+BzOzbyLhRCpebJmjwnHqvHXI/r+mDh/xyKRAiUPCSE4toh8ttIjf/Nm7cKEFung1V1RQ44c/9S4uGpoellMzKLoat1A5DNXC1OhezDy3A+JOTsShzJb6IH4v9eUfgNNxwawarQOH2WOCbDy6PxSpQiKKbjMRN7kvMCZR7gZAMRP+FPGgQBcmKT5ID/f9dBMDNJZxsSYvPzS/HeyPWY8a8U6iqotd5yk0sCI+TrXDNE/enz9r3CphGiHTIq8SycNlxHTOPzsPqqxuxLnMrxm+bigvuDPgMC6pbQ2FhBUpuV0GzfND8VZE5kXMTD3vwNaBP39Vn+XvzJqX7dXyahGyDhEHaFGm1RKScTAWRCKITmqOmufxky31nmRZparhdbsdnY1Zg2PBoFNzkPrTiGjWv7b9HyP3ouMx8FYdPZMLtJcKlyDciT0EupP2a2Lq3CH0GL0bblxeiz+AViNkcx8iV1WLTyTfYi9wCDW8Om48tW46x0u+Z1fmYt38Rxn47CUuuRuLzPWOw++q3KLPbcfhEEdZuyUbU5jxEbc7Hqk2FWL0lC/GJmXC4qdQ6ESr1kz6DWj/7n/0m9vM+UT94aXgeSMIGlWn+4vudmjAnaJ6TWBP3MDTcLnPi3RExeHHIHlzLoDZQe4LyYP+LGnQhDy1xT0GONciWmRIMXK/KxdqzG3GiJBU7Mg5gc+pOFGjlsHQNN4udGDf9IGYu2IUqBxE0lVQifHANlx4EkmwlSd7LRNykZEupGhmhmB4WWUYTVUxs8UlExrUrKj7J3dDEd5rQZZUujJ22G5+MOYibRVS7jGu3NCjiXP6pMhIVlYEpCs7nM7Aspgwd+y5BZbXB8inQPUSbDMtAbmEF/rP3Bvyu1wZ0GrgZrfutxpSZm+Fy0Yo7PQCoTpuJyNhCKO1nY8uOFFbNotRzG8fSjmHH5f04mp+Ibam7kVaciWvZxQh7czeUDquhhG2G0mkrlC7fQGkfibc+XIXbpRRN52ble3g/iczpOxEekQ8nYdE3TsgkI+qv3xwgtF//op+QpdBE6TsjQzLRkHnE8jLZEqGpug8R0dfx6EvbsOdgJlSNHkJB32pefJPGiwifm1nE9emzbrKl+6jIup2L5JyLKHSV4uTV07hpuwmvSWWQ3Ci6pWLY6ON4tu88nEvNZ23SqSIIs28TTuhBaNyhQd/Lk0+2/Z/r4SHmUY0Fsp8ubwDXsCiwgFIwlpVrLNViZZWGa5k6cgp0uN3kX8vDdT1eHTabgdIyg6VcLLdpuJ6lo7pah2np8GoGymwWUi6pOHdRhcOp+22PFNJroLJSR0WFgfJyAzeydRSVaFA1/ipMrkhEJCNn38YDnSNwLdOLsnIDVdV6wFbpcevYdbAASoelWLDahnMXNBxNcCEr1w5VozaSDdcLe7WO1z/Yicdf3oqsbAcMnVbeq2E37Cg1KlFmVKHMqITTdKG0vBITZ6dCaRWO7u/sw+gZ5/Hp5LN4/MVI9Bs0FyW3NeiajopKnfXb7VZRaddwNUNHlZ2Dk/JN2Cq4bDwukqOOzBwdDqfB20X131QdWbkG0m9oqLKTdkpE7GZ9q3YaKC03UFFpsNLxeTd15BboUFV6gOg4neJEm75rMGnGAVRWkS2aFvCo+oYOl8uAzaahslJDdp7GxsxJDx5GtLwIJ5EIEXeQTLgrnEN3okp3Mg8Eu26H1/CwjRbGvF4VMVtS8WTXyYhYfYK1ixYQBdmKa1EbPB4DbrfJ6twJchf2e3Gc/AyVv/y/OeChXrINdTsKuD79QKN/UAMycehwMt7+OBr/GL0TY76OR/eB0Xjt3Y1YvykFlVXVME3gyNHzeH/Eerw7Yjv2Hb6Jj7/cjBcHr0fE6hRWw+xiWgm+nLwTgz5YgQkzDqKgiPIeEGH4cPNWFT6f+A0+HLUVn4w7iOcHL3T6FAAAGZpJREFURePvI79B4tlceDQiZR/Wxe6H0vcolI4b0XvIDrzxfiwmTNuFK9fKoKpexGy+jC5vbIXSZhm6DN6Ptz9aiymz9qGsglJMcrI1LRUXrxSjRc85+GhCKiNr0kCFDZO3h5MYmTVIo0y9pOF37acgdkcGMz8cOFqIkZMP4G9D56K8wsK589cxYvxGDP1sGzbtzMT4aXvR/Y1VmDY/AXaHgbOpN/HuiE0YPmYbojekYvSUOPR4awOWRR2C3e6Bw6UjKvoQXnh7G3q8GYupsw4jI5OqYnhRadexIGIP3nw/ElPmHsemnTl4ZegaDPpoE44nFML0eWErV/HupxvRa8A8XM+4xUKgTbMKjmoPVkQdxNDhsRg56Vv0HbYNrwxdjZjtl1FpJ62Wk63oe30AJxyQ9wcnSnqT4KaYi2mF6P76Agz7fDeKS0hrpuvxNxVG5rqKCpsT6zccxZKVR1F0i2vX/OFMWq8klfpkLvc3PTYaiWyFeYAmh5ulR4yJ3QulQwSUVvOgtJyEx3pG4KEuc/FY56mI3pgMj8eHTVv24neUXrH1IvzmhfVMG3z8ua/R/bVZyMopwImkPPR6YwGUp0bg4R4rcDm9DLplgVa+c/Js+FPf7VBajIHSbiYe6RkJpcMsDBu5Afk3bYzMJ05ZBCVsA5S2K/HLTvPxSNgU9H1rLpJSbkJVPZgyNwEPPjsDytMzoTy3Hn/qOAb9h0aguKSckS29ghN5bt91Ho8+Ox5rN96A10uDSi5dws7pH2RGzpTDwYPUKyr+o/1kTI8owpgF5Xj1nUjEnSjAobhkpm3HHTuDNn2WQWmzBEr3tVDazkOL7jPxp7DxuHK9EEdOFuCP3RZDaTkTSvdNeCBsAf6jw1SEvTgSBTdtWLHJht+2G42HOn6Nx3suZuaNTycdZGWBbFUmho+aD6VlOJSwNfjlc4vwQPtwPBY2HuOn7WQmA8OwsG7DKfxX54nYsTsDmkrarR32aieGj14H5Zm5UNrMxp+7zcavw2bhyb4bcPp8KfeXpcVCsr/f9cHM33AYgTLTCHf3ulXqwPtfbEXnt3bjUrrAjCBb7u2Rl1+Cfm9MRMfeX+PMeTt7w2Gk3YBgk7u3qekno2zf/T0GjUy2ZG90MZNAye0KDB5XCKXNcrw14hhSzt/GzgP5aP/aOvQdtgUZORpKy2xYuKYISsd1UNpFInxpDk4l5mPbnuuw2d0or/Dg8pUifDQ+Ho+8vAMXrpRDs8AqQNCr/bg516G0W4yRU08j+WwZ/jE2Dh37zkfKhRzoBpCXV4QBX2ZC6RKLPQfzcSopD6mXC1FRSRNbQ36+HeHL0qG0mY+omFwkncnBpbRikHmDPCGYRmZoWLz8MP4cNgGH4nJgMBcwR8Bzgk0gf9CFRkl3LBcuXvXiobCvWRULpfMmdOg1Dbdua4zgdYNMH9VYt60ISs/tTD6fTE5D8tkirN2UhlKbC7ZKFZHRaVC6bYDS4wjGzbqGQ4dzsG1PGgqKvfh9r81o2X8b4k/mIOFMMYZ+fgx/7jYLO/clw+P1ISvnJrp+lMHqtbXotxV7DxTg4JEsnEgsZBWWTdNC+nUb2ry0AMO/usjMGORfTK/vB+PyoDwfhy5DjiP+VAGWRufjf724HbE7rjJvCs2iyLnvIls+qYJkS8d74HAbmDznOB7vtw3xSTam+QotmfvfumGr8CAq9iJmLj6Hgpv08A4uAopjJWnd36R1r45vo5Ft4JWRXgt1Ih0TExfboLSejavXy2FZgMtjYG7EaTzZbxsOx98CfBoOnfBAaTMd4YuOw+E0WQFKqr5ANlda8CFneTqnVZ9IXLxyi5EtVQSmcjhL11zHX7p/jbMpubBMYOWa4+jSbw4SkrKh69WA5cHYBeX4w3NLcKvUCZNFb1WzLGSm4WDX3n3gAn7/9AdISaXXcPKP5fXRDLo3lXP3aJgWvhdPPjcZpxLz/FqtvSbZ+rU8Co6ga6Re8eLRsCn4ba/NUDqvQPsenzPbs8X8Td3wWQ6cTnHhjy+swKcTd6KwyAnLcMPjIS2PTCxuxJ9IR+sXwvHFV3G4dcsBQ6tkNtXTKYVQnhqDmJ02mHo1DL0KJ5Ny0LlfOKaEH0C13QufT8O7X5yA0mYGLqWXQdNM6JqHlX2ncSLSIpvv+6MPo0XfLci/WQ1VJxupD6mXSvCn3rGYuzIdpqEj+YIHrfvFICrmPNxegy9sfQ+yJZMLW/jTvfCoPsxaloyHX9qCg8eKmXZMAA2+JXhZek2yzZOdX9O5LZraK7Z7dSLKdt//D4hGItuagiRTAlXsHbfwNpQ24bh12w4fwEJjo2JT8US/ndh/5Cbg82J/vBs/6zALiefKeKSRSSaAKhDZ6eR2ZWmYF3EKbV5eiotXi6GagGnYGTEtW3MN7Z6fhLQrOaC/VdFx6NwnHKcSs2HolYDPgXELy/HIc/OZE79hUbHJSvisakaqROR7Dybj4b+8w8gWPiLiKn/aSA/zGjBUDeFzD+AvXacgISnfH6Rg5wtG1MYar9NEth5cuKLiD+0nYmVMIcJX3MTr78zB6eRcLFy6FTeLykH3STrvwpMvRSFmexq8lLCd0kcaVTCMCpiWE8eOX0aPV2cjOuYMdK0KhlkCn0/H4fh0KE+OwpnzHsAqh8+qwPWsUvQdvBgjJ+xFRYUH8KkYNuIAWvaOgmn6WPIgeojQg4BrmyrzsIjZ5YDy7ALsPpgKMi1YJpFtMZ5+eTWWR6cBPjfOXnSjVb91iFyfwnyHud224Zot3Y9H76kBsn305W04dLyEL5T6yVY8rMmrwQcfMxWRPZfMODVlLL9LeTRPDDQS2XL7GwMBc+HxMLIdv9QJ5amv8MGEy8jLduJUUhU6D9qBbm+ux6V0DzRNx65DTmZbjD9pg9OpMZuoZvgYMXtVg+37evE1PPrKtziTUsK+awYPFli8OhuP91qNC2mVTLONij6DDq+uwsnEfEamsLyYtKQMv+myGAVFVM3XxK0SN/IKHbC7DOZ7u3nvbSjt5iDxdCWcTi88Hh6KykjCcrLS6CtWH8WjHSdg3yEicfLTpVV0rm1Rn7lmxhfNDKrNdknF/wxbhMgNRcyTobBARVTMFfy/Xmtx6hxp7AaOJ7nwu5d3YdXGLFRUaUxT96gUeMF/33s4D60G7ERE9FU4qlWm1ZJmnH4jH0rrufhyXhnz+HC5TGz6JgtP9JiNuUsOwumymAz7j0jFr/seYvJyOTWm3ZKmqLNink5Q6aOCm1607jmFLYi53ARgH5JTb+PfXzmKBWtug8wNZ1JVPPXqTkSuuwq3i1c01uur4lHjwcODHWhxi+U7Njxs8W/cjHg81X8PEs7RG0TQ5YzMCORrnZ3nxOJVKdhzMB0upxeWP7xXEkzzJBg5LsFxqZ9sQybGD/dGqEm2pP1YPhMTljoY2SpPT8LPOi2B0j4c/9JuEpZGJaKi0sKmLQfR7Z2DUNouxwuDt+Cdz/Zh2cqtcHl8cDpd2L4nBe99vh0tekdD6bAcfYbE4L3PdyDtWgGy8z1oM/gklFZTMGv+HtzIUPHp6B34RcvRmLYoBXa7k2nOkZvLofx1LEZ9HY/wiDS88LdlGDBkFlIuZWL15kz0eHMtlKcno9uwk3h3+BosX3uGuZURmZpUn81Usf9wOh7uMA6LV6UzUuSuUkEhM7I1ucmj3FaBUdMvQGk5C+1eicKQUccwaMQxtHllLZ7oFYnEFBVHjp5Gv/d2QukYjbavxeKNT/bj6/A1cLh8rMwPmTa6vb0fSvt5aPH6HgwevhFLoo6ivMIFCz688N4JKH+diFFf7cbk+efx516R6NBnHhLO5CAz14Ppc7fjX7uvgfLsKrz96Tf4eMw3OJFwgZlNdIvCZSmBux2aquOLybvwp/YjkJPrQrXDjXFTt0BptwL9P9yNqzcKsJz8izutxsD316Agr8KfV7iekkkhmKJJyHNQkCmANH4vCgorMPjj9Xhh6B5cy6L9IqCDzCfkHubG7gPpeKz1MESuOQCT+VLzxTU5qYN4k7JonrK4g2xDE7KQr+RP8Zqm0uTyGdyM0HYePhoXj/Z9FqHngGWIWpeEKns1bpeZeO+Tpfhtx2lQuq7EA10W49dh4eg/aApKyy2UlVdg8sxv8GDYDPy88wIoXZbil2Ez8fuOU7Bz/wUknbuNB59bjN+GTcfQ4WuxJ64Sb3wQi4faf4m/f74PxbfssCwncvMc6PX6TOZLS6v+/7fzbEyceRBpN8rw9mfb8e9h0/FAlyX4t07z8HDHyRjw/hY4XPw1m5OojszcUrTqG4HXPjsPW2UwDy/TQoVmy8J6daTfyEOvt1bil50X4F86zcO/dZqNf+08H78Km4FXh0Tg9HkPps/ehkeeHQ+lyzLW7//daS7adfsYJWUmbBXVmDJrM/5P2HQoXZawtv2hw3i8OiwGefk2Zo+9dM2FHq9N531qNw9/fWkJYrZcZBptfFI5ur4yE/+j8yIoXSNB136iezgiovYymzUt+tFCnmZ5QEEdx05dhfLMl1i16RbKy+3oO2gmftZ5Mbr+LRI79qRh3LR4PNhpDsJemoTzFwoYQbJF0FrEGkoA7OEdeP0nzwSyQ3uQcCYP7XvPxsgJu1BRQYEQTmb7Jh9hldIyugzMWXoVPfsvRF4h9wgRQR2h15f/N0+y+Wcfl0YmW+7yo2qk5RkYu6AMSudIlJZS7gENhUVeRggULaR6DWRkO3EsyY3DiV4cYZsHV29Uw+sln0oTWXkqjiapiPP/fjTRi/jTXpRXGMzBPyFZxbFEN67ccIMCIi5d9eJYkhfXM1V4aJGNnOY1HVSld8l6OxZFlyI+ycOc/en6VzI0dnxcggdHEz2IT/LiynVa/aaMWMKRX4NbNfHBuBP4ebfVuHTlNgyDFpP8WpkgW/K9NXQ4XAbOX6Z2qThKW4IXxxK8LFji3MVq2Co0FBQ6cTLZgSN0X/rtlIoLaXa2AEW5E3IKqc8eHEmkdvE+pV2jQBEiKGqfjhs5KpZvcmDRulIknONEZZoG87NNvuhBXIIbcafcOJboxckzXhSV0Cs7vYFQO6koJn0asNlNtO29AP3e3cXc0tKuu3DklBfJqV6U23Rk5aiIT/Qi5bKbBU9Qkh1ut61/wtd8U6J7uuByqVgalYSnu09mxTs1qggSyLDGcUOeCB+POYTZi4/DtCxmquELbNw97J99Msv+14+55iCbRiVbbruk1WUTNpsdg8flQem8AScSMlBS6mKr8Mze6Q83pSgxer2kEFr2SSGrlt953TTZ/7xIJC8myY5jx/LjeWipv9IEC3kVx3nY6rvOQnspFJaOMXm4ro/nkyUNn0JiA9f0t4E0MLHyzT795oHdh8qgtJ2KNTGJnGzrIB0W4GDw+mi83bq/yKXKC16y0GQemsvvK0KUKSKLUh/yXAZsIS9EJqKN5E1BIa30yk3yosUv6he/r9dvT/aAAjF8FvemCJUvERcdT3ZUAieRrenzYeGK0xjyySa2QEkPSX5tLh/SLEl+on0qy5L2fUDPiTT/pobBI+Lx8uAIZGSRPZhCdEU6S/rfh8oqJxYt34+r10tYhFrTpKP8Pn2TxzYHkmsubWg8sg0kNOFBDVu2HYbSZQWUZ2ajc+8JiIolmyFPP6ixCcvzzJKWxGx3bNHFFQjl5eGZtJLN8wWI4/ixfAJzDUucT8dxNyM6RmOeAqQRBf006X+WPjGQ4lFoafyTJYfxx+qT4NhkZzkLKNRXx6QZu/DtkYts4Yi3g+yfnLjYYg+7Lk1Aah+/N4sqC9RQE+3jeRD4/fyuUSwVJCVnIRLkGij1T2iS/H5icpNWTZnJKDyZh8pSe1kbWMAByYTyOlDibn6NQPtEgnQWhMHlWFyi4VI6hSZTRQXax+XBE8WQ77QbrCqF4YWXXvkD/RTtqfXJovz8Ydn+FJklZV5ERKdhw7YU5gJIMqI+BdvFQ5GLStzMLS0ov1rXvov5orlMOtmOf84xaxyy9Tv108Qhex5pX/sPXcRbI+LQf/gJDBm5G9v25sCwqMQ5aW9U34xrcZyYxIq+l9clC1QLCNYZC0zK75psIsCA3YcIk6oxUJITTkak0d5xTz95kP2aJ1/xk7Q/7yq7t2mizFYFh5Ou4wshCa4p1mgfy/UarCzBrhuwYdYEYm27OUvs7U9sTpP2jrDqwHWIrEQ7BUEHV/cD2jkjb/89/bJhtd9Y8nB/4hs2bsG8wZwsiPhpPMj7gswOFMxApW/IvkqEXLMfod9FvTpeBYMnl/FqGiqq3Kh2OGu8OYSeR/8T4bPxYQ/Lu9+n9rnye/1jImXz08umccg2MPE4Aai6B9VOD/IKVZYbIL/IgL1a5F8VE0hofuI7fYr/RaITfr0gkQV/p2NpP/+NBCnIRxxT83r82nyfOC9wXb8mJshWaKss2TfLiOUnaKb1BTXZ4L35/YPt99+baY/ilb3mYJPWzDfR3pq/154coYlf+P+ifyHnC82UaeU8Ck5ch86pvfH2cs2f+hLQjv3jSTlnxfmib8LDILi/jnb7HzbCdsvayzRvFTyJO7150P2CYyjGJPCQYLKuPaZ13CuAPfnbXcdEyikEyz8NVhqVbGlSEWGxV1da7TYdMNnGtaNQMIjJJSZx6G/0vyA+TmghhBIATXCi8nMbPjFr35trYiF1tULrlDFC8F87kES79r1rDl7g+qy45J2ViKm9jGiZds9NB7X7H/pdyJVkIjZGYAFZCJ9Wrk2Tds5JkfdJnEM2bPE/fda8Rs0+sfNF+RymBfv7yIi0IXXK/LXd/G0mkmU+yv6FxfrINrTfhI36x7+mzGueJ3+T8mh8DNxBtgK87PXaP1nZPpEjlb2a8oaGHvP9Bk9oXULzFN9DBSD21UWk4ri7HVP7t9rfxTXq+mz4scyG6dey+IMh9Fz6/27Xr+s3sS/0OmLfj/dZZ0pC1o/67vHTtoeHX4feQ8iurn2ijaG/iX3ys27MSbk0tVzqJ1umdfES00E3ppqv9qrBK9E2dSfk/eVEkhiQGGjuGKiHbEW5FLLrGWz1l3w4xUq4iGXnCymhdjs54M19wGX7JEYlBpoGA/WTLVug4YX6duxNw5LIeNjstDpNHgB+l5wQr4D6bKtyYJtmYKXcpdwlBpoXBuok29AFHKqK+sHY01CemojVsedYAhlKLUiEyxZRAiv+wsbWvDooASfHQ2JAYqA5YOCuZEukS4Salq7i8eeXY9CwRbAMExYlYDEo0okGUS5SNIeBlG2QhCIx0LwxUC/Z0sBRlBG5Z1mmidf+HoWX/rYImofCNR0stR0jW+EIX+eqe/PuvASnHB+JAYmBxsJAnWTLtFUWXkuhmA6YmonXhizHSwNXMLKl1II8lJS8E8iHMxgN1VgNl/eRk0RiQGLgXsJAPWTLCZQRKmmxuok3hq1AWL/FqK4yYFoUW0+bJNt7abBlWyU5SQw0HQbqJFtBosyMYNjhs0x8NWs/lFbTMSsil2V5Iu2XHycXxiSAmw7AUvZS9vcKBu5OtqwSASfbuUuOQHl6Ov4+LsMfFSXJ9l4ZZNlOSUgSA02PgTvIlvvQUq4Cio2nsi+cbN/5eA1avjgHBQXkY0s2Wyp94tdqA/62Td8hCSo5BhIDEgPNEQN1km3Ah9ZPtoZOC2TL8OLA5dCoXDVL6hxSZ0qSbT05ECTomyPoZZskLpsCA7XI1qyV9Ylrtjp5IwyNxIsDI+omW+n2JclWYkBiQGLgrhioRbaURJtssVQmhj4pO78DTqeBFwdF4eVBSyTZSkDdFVBNoTHIe0pN9V7AQB1kS2kPqT4VL61CgQux2wuhtJuNL8bHwmda/moLVPKF6luRNiz9bO+FwZZtlKQkMdB0GKhBtjw/LfnOegLJZmih7Iupx9Cm9xycPlfsr2rKM+lTxQIqU0KFBuUgNt0gStlL2UsMNH8M1CJbM5BGkfnQMjI1kX69GMnnc6CagGr6WNpFytRPA0xkzHMkNP/OSkDKMZIYkBhoKgzUIlsq0SKq2voTzIiyL6ycjcGIlkwHVCRR1OJqqsbL+8qJIzEgMXCvYOAuZMsr2vJE4aKcNh9YstFywuWVY++Vzsp2yokpMSAx0FQYuINsgykTaVC4dqsZHtAmGklmg5rFAOUACtnIT4kFiQGJgbowUINsdYP72dYmUlFWW1xAkq0Ek8CC/JRYkBhoGAZqkS352YqKt/wCVMZbaLhSqA0TqpSTlJPEgMRAbQzclWy5W5f0oa0tNPldTiSJAYmB74sBSbYyIixgi/++4JHHS8KRGGg4BiTZSrKVZCsxIDHQCBiQZNsIQpZP/4Y//aWspKzuVwxIspVkK7UaiQGJgUbAgCTbRhDy/fqklv2SWqjEQMMxIMlWkq3UaiQGJAYaAQOSbBtByPLp3/Cnv5SVlNX9igFJtpJspVYjMSAx0AgYkGTbCEK+X5/Usl9SC5UYaDgGJNlKspVajcSAxEAjYECSbSMIWT79G/70l7KSsrpfMSDJVpKt1GokBiQGGgEDkmwbQcj365Na9ktqoRIDDceAJFtJtlKrkRiQGGgEDEiybQQhy6d/w5/+UlZSVvcrBiTZSrKVWo3EgMRAI2BAkm0jCPl+fVLLfkktVGKg4RiQZCvJVmo1EgMSA42AAUm2jSBk+fRv+NNfykrK6n7FgCRbSbZSq5EYkBhoBAwEydayoOkqdMMNXXdB1z2gH8UBod/FfvnJ5SPlIOUgMSAx8F0YIA6lTbEsC17VC1VzQlWd8KruOzZV80BuUgYSAxIDEgP/fQz8fxzpvKRdhlp8AAAAAElFTkSuQmCC;imageBorder=#000000;" vertex="1" parent="1">
          <mxGeometry x="480" y="162" width="347" height="298" as="geometry" />
        </mxCell>
        <mxCell id="5vH_vZtWq0DqF-4MKCqL-4" style="edgeStyle=orthogonalEdgeStyle;rounded=0;orthogonalLoop=1;jettySize=auto;html=1;curved=1;" edge="1" parent="1" source="5vH_vZtWq0DqF-4MKCqL-2">
          <mxGeometry relative="1" as="geometry">
            <mxPoint x="70" y="420" as="targetPoint" />
            <Array as="points">
              <mxPoint x="30" y="240" />
              <mxPoint x="30" y="420" />
            </Array>
          </mxGeometry>
        </mxCell>
        <mxCell id="5vH_vZtWq0DqF-4MKCqL-6" style="edgeStyle=orthogonalEdgeStyle;curved=1;rounded=0;orthogonalLoop=1;jettySize=auto;html=1;entryX=0.5;entryY=0;entryDx=0;entryDy=0;" edge="1" parent="1" source="5vH_vZtWq0DqF-4MKCqL-2" target="5vH_vZtWq0DqF-4MKCqL-7">
          <mxGeometry relative="1" as="geometry">
            <mxPoint x="320" y="360" as="targetPoint" />
          </mxGeometry>
        </mxCell>
        <mxCell id="5vH_vZtWq0DqF-4MKCqL-2" value="Parent Process" style="rounded=0;whiteSpace=wrap;html=1;fillColor=#dae8fc;strokeColor=#6c8ebf;" vertex="1" parent="1">
          <mxGeometry x="110" y="210" width="120" height="60" as="geometry" />
        </mxCell>
        <mxCell id="5vH_vZtWq0DqF-4MKCqL-11" style="edgeStyle=orthogonalEdgeStyle;curved=1;rounded=0;orthogonalLoop=1;jettySize=auto;html=1;entryX=0;entryY=0.25;entryDx=0;entryDy=0;" edge="1" parent="1" source="5vH_vZtWq0DqF-4MKCqL-5" target="5vH_vZtWq0DqF-4MKCqL-1">
          <mxGeometry relative="1" as="geometry" />
        </mxCell>
        <mxCell id="5vH_vZtWq0DqF-4MKCqL-5" value="p = child&#39;s ID" style="rounded=0;whiteSpace=wrap;html=1;fillColor=#dae8fc;strokeColor=#6c8ebf;" vertex="1" parent="1">
          <mxGeometry x="70" y="390" width="120" height="60" as="geometry" />
        </mxCell>
        <mxCell id="5vH_vZtWq0DqF-4MKCqL-10" style="edgeStyle=orthogonalEdgeStyle;curved=1;rounded=0;orthogonalLoop=1;jettySize=auto;html=1;entryX=-0.006;entryY=0.607;entryDx=0;entryDy=0;entryPerimeter=0;" edge="1" parent="1" source="5vH_vZtWq0DqF-4MKCqL-7" target="5vH_vZtWq0DqF-4MKCqL-1">
          <mxGeometry relative="1" as="geometry" />
        </mxCell>
        <mxCell id="5vH_vZtWq0DqF-4MKCqL-7" value="p = 0" style="rounded=0;whiteSpace=wrap;html=1;fillColor=#e1d5e7;strokeColor=#9673a6;" vertex="1" parent="1">
          <mxGeometry x="270" y="390" width="120" height="60" as="geometry" />
        </mxCell>
        <mxCell id="2" value="Child&#39;s Process" style="text;html=1;align=center;verticalAlign=middle;resizable=0;points=[];autosize=1;" vertex="1" parent="1">
          <mxGeometry x="280" y="460" width="100" height="20" as="geometry" />
        </mxCell>
        <mxCell id="5vH_vZtWq0DqF-4MKCqL-8" value="Parent Process" style="text;html=1;align=center;verticalAlign=middle;resizable=0;points=[];autosize=1;" vertex="1" parent="1">
          <mxGeometry x="80" y="460" width="100" height="20" as="geometry" />
        </mxCell>
        <mxCell id="5vH_vZtWq0DqF-4MKCqL-9" value="" style="endArrow=classic;html=1;entryX=-0.003;entryY=0.195;entryDx=0;entryDy=0;entryPerimeter=0;" edge="1" parent="1" target="5vH_vZtWq0DqF-4MKCqL-1">
          <mxGeometry width="50" height="50" relative="1" as="geometry">
            <mxPoint x="230" y="240" as="sourcePoint" />
            <mxPoint x="280" y="190" as="targetPoint" />
          </mxGeometry>
        </mxCell>
      </root>
    </mxGraphModel>
  </diagram>
</mxfile>
